<?xml version="1.0" standalone="no"?>
<!DOCTYPE svg PUBLIC "-//W3C//DTD SVG 20010904//EN"
 "http://www.w3.org/TR/2001/REC-SVG-20010904/DTD/svg10.dtd">
<svg version="1.0" xmlns="http://www.w3.org/2000/svg"
 width="1280.000000pt" height="1085.000000pt" viewBox="0 0 1280.000000 1085.000000"
 preserveAspectRatio="xMidYMid meet">

<g transform="translate(0.000000,1085.000000) scale(0.100000,-0.100000)"
fill="#000000" stroke="none">
<path d="M8178 10133 c6 -2 18 -2 25 0 6 3 1 5 -13 5 -14 0 -19 -2 -12 -5z"/>
<path d="M8118 10123 c6 -2 18 -2 25 0 6 3 1 5 -13 5 -14 0 -19 -2 -12 -5z"/>
<path d="M8018 10093 c7 -3 16 -2 19 1 4 3 -2 6 -13 5 -11 0 -14 -3 -6 -6z"/>
<path d="M8918 10093 c7 -3 16 -2 19 1 4 3 -2 6 -13 5 -11 0 -14 -3 -6 -6z"/>
<path d="M7955 10080 c-13 -5 -14 -9 -5 -9 8 0 24 4 35 9 13 5 14 9 5 9 -8 0
-24 -4 -35 -9z"/>
<path d="M7905 10060 c-3 -5 -2 -10 4 -10 5 0 13 5 16 10 3 6 2 10 -4 10 -5 0
-13 -4 -16 -10z"/>
<path d="M7762 9995 c-141 -76 -232 -145 -357 -270 -124 -123 -201 -228 -276
-370 -42 -80 -105 -243 -97 -250 3 -3 17 32 33 78 50 143 133 290 239 422 118
147 298 295 461 380 97 51 103 55 89 55 -5 0 -46 -20 -92 -45z"/>
<path d="M7021 9074 c0 -11 3 -14 6 -6 3 7 2 16 -1 19 -3 4 -6 -2 -5 -13z"/>
<path d="M7012 9030 c0 -14 2 -19 5 -12 2 6 2 18 0 25 -3 6 -5 1 -5 -13z"/>
<path d="M6982 8895 c0 -16 2 -22 5 -12 2 9 2 23 0 30 -3 6 -5 -1 -5 -18z"/>
<path d="M6973 8785 c0 -38 2 -53 4 -32 2 20 2 52 0 70 -2 17 -4 1 -4 -38z"/>
<path d="M11780 8646 c-52 -35 -158 -115 -235 -179 -242 -201 -361 -238 -544
-173 -69 25 -59 12 11 -15 51 -19 81 -24 158 -23 139 1 160 13 475 275 90 74
213 159 232 159 7 0 13 5 13 10 0 18 -13 11 -110 -54z"/>
<path d="M6973 8610 c0 -47 2 -66 4 -42 2 23 2 61 0 85 -2 23 -4 4 -4 -43z"/>
<path d="M6982 8480 c0 -19 2 -27 5 -17 2 9 2 25 0 35 -3 9 -5 1 -5 -18z"/>
<path d="M6991 8434 c-1 -17 48 -213 58 -232 5 -9 25 -51 44 -94 50 -108 124
-213 203 -287 130 -121 335 -324 331 -328 -9 -8 -444 77 -592 117 -38 10 -140
38 -225 63 -723 211 -1511 373 -2375 487 -88 12 -189 25 -225 30 -36 5 -184
19 -330 31 -366 31 -759 31 -1018 0 -686 -82 -1157 -304 -1579 -744 -99 -104
-143 -163 -143 -194 0 -31 18 -29 61 6 85 71 302 206 432 270 523 257 1105
326 1937 230 285 -33 785 -119 1155 -198 282 -61 326 -71 620 -141 879 -208
1144 -261 1565 -315 432 -55 696 -28 856 87 53 38 133 152 141 201 3 23 -3 66
-17 119 -35 132 -64 181 -259 448 -66 90 -134 192 -151 225 -17 33 -28 51 -24
40 4 -11 7 -33 7 -48 0 -20 3 -24 8 -15 6 9 9 7 9 -9 0 -12 8 -27 18 -32 19
-12 19 -12 -25 -16 -18 -1 -33 1 -33 6 0 13 18 20 23 9 4 -7 5 -6 4 1 -2 6 -6
10 -10 10 -4 -1 -24 -2 -44 -2 -38 -1 -38 -1 -8 -9 l30 -7 -35 -4 c-19 -2 -80
-2 -135 1 l-100 5 100 5 100 6 -125 1 c-77 1 -117 -2 -105 -7 16 -7 17 -9 3
-9 -9 -1 -18 -7 -20 -13 -11 -31 -50 64 -112 267 -8 28 -15 45 -15 39z m-3171
-224 c285 -27 393 -41 412 -51 16 -9 19 -8 13 2 -6 9 0 10 26 4 19 -4 51 -9
71 -10 43 -2 64 -15 27 -16 -13 0 -41 -1 -62 -3 -21 -2 -33 0 -26 5 7 4 -5 7
-27 6 -21 0 -54 5 -71 11 -37 12 -44 6 -10 -9 21 -9 21 -9 -3 -4 -38 9 -98 15
-75 8 20 -6 20 -6 0 -13 -12 -4 -24 -2 -30 6 -12 15 -99 18 -445 14 -163 -2
-240 -6 -200 -10 l65 -7 -60 -1 c-34 -1 -65 2 -70 7 -16 15 -450 18 -464 4 -7
-7 -29 -13 -51 -13 -21 0 -45 -3 -54 -6 -9 -3 -16 -1 -16 5 0 6 19 12 43 13
38 1 39 2 8 5 -40 5 -84 -4 -77 -16 3 -4 -10 -8 -30 -7 -19 1 -38 7 -43 14 -7
11 -16 11 -52 1 -24 -6 -55 -13 -69 -15 -24 -3 -24 -2 -6 12 11 8 28 12 38 8
10 -3 18 -1 18 4 0 5 42 15 93 22 125 16 118 15 157 24 114 24 743 29 970 6z
m-834 -68 c-32 -2 -63 1 -67 5 -4 4 22 6 59 3 l67 -5 -59 -3z m117 1 c-7 -2
-21 -2 -30 0 -10 3 -4 5 12 5 17 0 24 -2 18 -5z m155 0 c-15 -2 -42 -2 -60 0
-18 2 -6 4 27 4 33 0 48 -2 33 -4z m79 1 c-3 -3 -12 -4 -19 -1 -8 3 -5 6 6 6
11 1 17 -2 13 -5z m491 -1 c-43 -2 -113 -2 -155 0 -43 1 -8 3 77 3 85 0 120
-2 78 -3z m185 0 c-13 -2 -33 -2 -45 0 -13 2 -3 4 22 4 25 0 35 -2 23 -4z
m-1496 -9 c-3 -3 -12 -4 -19 -1 -8 3 -5 6 6 6 11 1 17 -2 13 -5z m1941 -1
c-10 -2 -28 -2 -40 0 -13 2 -5 4 17 4 22 1 32 -1 23 -4z m-2003 -13 c-11 -5
-27 -9 -35 -9 -9 0 -8 4 5 9 11 5 27 9 35 9 9 0 8 -4 -5 -9z m2184 -6 c8 -7
-64 -3 -104 6 -31 7 -24 7 30 3 39 -3 72 -7 74 -9z m58 -10 c-3 -3 -12 -4 -19
-1 -8 3 -5 6 6 6 11 1 17 -2 13 -5z m-110 -10 c-3 -3 -12 -4 -19 -1 -8 3 -5 6
6 6 11 1 17 -2 13 -5z m200 -20 c-3 -3 -12 -4 -19 -1 -8 3 -5 6 6 6 11 1 17
-2 13 -5z"/>
<path d="M2708 8153 c7 -3 16 -2 19 1 4 3 -2 6 -13 5 -11 0 -14 -3 -6 -6z"/>
<path d="M10425 8390 c10 -11 20 -20 23 -20 3 0 -3 9 -13 20 -10 11 -20 20
-23 20 -3 0 3 -9 13 -20z"/>
<path d="M10910 8331 c0 -10 19 -25 25 -20 1 2 -3 10 -11 17 -8 7 -14 8 -14 3z"/>
<path d="M10557 8248 c40 -40 75 -69 79 -65 4 4 -6 17 -22 29 -16 12 -49 41
-73 65 -24 24 -46 43 -50 43 -3 0 27 -32 66 -72z"/>
<path d="M11570 8309 c0 -5 5 -7 10 -4 6 3 10 8 10 11 0 2 -4 4 -10 4 -5 0
-10 -5 -10 -11z"/>
<path d="M11521 8249 c-19 -23 -39 -38 -47 -35 -8 3 -11 0 -8 -9 4 -10 0 -13
-16 -10 -17 3 -19 1 -11 -9 9 -10 6 -17 -13 -30 -28 -18 -56 -21 -56 -6 0 6
-42 10 -106 10 -67 0 -103 -4 -99 -10 4 -6 -12 -10 -42 -9 -43 1 -45 2 -18 9
27 7 25 8 -17 9 -27 1 -48 -4 -50 -11 -3 -9 -15 -9 -50 0 -26 7 -80 11 -120
10 -67 -1 -69 -2 -28 -8 34 -6 20 -7 -55 -7 -55 0 -94 2 -87 4 17 6 15 20 -4
27 -8 3 -12 2 -9 -4 3 -6 1 -10 -5 -10 -6 0 -14 10 -19 22 -6 18 -9 19 -14 5
-13 -35 163 -125 306 -157 133 -30 227 -21 347 31 73 31 217 155 253 215 14
24 3 15 -32 -27z m-588 -106 c-7 -2 -19 -2 -25 0 -7 3 -2 5 12 5 14 0 19 -2
13 -5z m424 -13 c-1 -13 -5 -16 -11 -10 -16 16 -30 12 -16 -5 9 -10 9 -15 1
-15 -10 0 -14 11 -8 28 1 4 -32 10 -73 13 l-75 5 92 2 c86 2 92 1 90 -18z
m-567 -15 c11 -13 10 -14 -4 -9 -9 3 -16 10 -16 15 0 13 6 11 20 -6z"/>
<path d="M7090 8200 c0 -5 5 -10 11 -10 5 0 7 5 4 10 -3 6 -8 10 -11 10 -2 0
-4 -4 -4 -10z"/>
<path d="M11394 8203 c3 -6 -2 -16 -11 -22 -10 -6 -13 -10 -8 -11 6 0 17 5 25
10 13 8 13 11 1 22 -9 8 -12 9 -7 1z"/>
<path d="M7148 8193 c6 -2 18 -2 25 0 6 3 1 5 -13 5 -14 0 -19 -2 -12 -5z"/>
<path d="M10705 8190 c-3 -6 1 -7 9 -4 18 7 21 14 7 14 -6 0 -13 -4 -16 -10z"/>
<path d="M11328 8193 c7 -3 16 -2 19 1 4 3 -2 6 -13 5 -11 0 -14 -3 -6 -6z"/>
<path d="M7096 8157 c3 -10 9 -15 12 -12 3 3 0 11 -7 18 -10 9 -11 8 -5 -6z"/>
<path d="M2120 6875 c-426 -55 -832 -275 -1090 -590 -188 -231 -297 -471 -361
-795 -19 -98 -23 -148 -23 -340 0 -192 3 -242 22 -340 59 -307 190 -582 374
-785 283 -312 659 -493 1065 -512 l132 -6 5 34 c3 19 10 88 16 154 7 66 15
139 19 161 l8 42 -76 7 c-306 26 -558 139 -757 339 -183 184 -304 423 -344
681 -32 204 -12 520 43 665 16 43 27 84 23 87 -8 8 -63 -157 -59 -177 1 -3
-10 -13 -23 -23 -17 -13 -22 -14 -18 -3 5 12 -18 14 -142 15 -82 1 -151 6
-154 11 -10 16 -60 -13 -61 -35 -1 -17 -2 -16 -9 5 -8 25 -8 25 -10 -5 -1 -18
-4 -23 -7 -13 -5 19 21 155 44 233 168 565 592 977 1164 1129 186 49 288 61
514 60 186 -1 225 -4 338 -27 141 -29 243 -59 356 -106 41 -16 70 -26 65 -21
-26 26 -241 100 -389 134 -159 37 -469 47 -665 21z m-1023 -1437 c-3 -8 -6 -5
-6 6 -1 11 2 17 5 13 3 -3 4 -12 1 -19z m-27 2 c0 -5 -5 -10 -11 -10 -5 0 -7
5 -4 10 3 6 8 10 11 10 2 0 4 -4 4 -10z m-384 -65 c-6 -19 -13 -30 -14 -25 -6
16 7 60 17 60 4 0 3 -16 -3 -35z m-9 -67 c-3 -8 -6 -5 -6 6 -1 11 2 17 5 13 3
-3 4 -12 1 -19z m-10 -175 c-2 -21 -4 -6 -4 32 0 39 2 55 4 38 2 -18 2 -50 0
-70z"/>
<path d="M3191 6706 c10 -9 69 -36 69 -32 0 6 -55 36 -66 36 -4 0 -5 -2 -3 -4z"/>
<path d="M3270 6666 c0 -3 14 -12 30 -21 17 -9 30 -13 30 -11 0 3 -13 12 -30
21 -16 9 -30 13 -30 11z"/>
<path d="M3370 6607 c0 -2 15 -14 33 -27 20 -15 27 -17 18 -6 -13 16 -51 41
-51 33z"/>
<path d="M9983 5100 l2 -1451 343 0 343 0 -1 725 0 725 30 16 c93 48 175 70
265 70 78 0 96 -3 135 -25 58 -33 96 -96 110 -180 6 -40 10 -312 10 -700 l0
-635 337 2 c186 2 342 3 346 3 13 0 2 1568 -11 1610 -6 19 -17 59 -26 89 -14
49 -43 100 -34 61 2 -8 6 -17 10 -20 4 -3 9 -22 12 -42 2 -21 8 -47 12 -60 6
-21 6 -21 -10 -5 -16 16 -82 17 -907 17 -586 0 -889 3 -889 10 0 7 304 10 892
10 490 0 889 2 886 5 -3 3 -406 7 -897 8 -843 2 -891 1 -891 -15 0 -10 -6 -18
-14 -18 -10 0 -16 -19 -21 -67 -3 -38 -8 -75 -9 -83 -2 -8 -4 299 -5 683 l-1
697 334 0 c213 0 337 4 341 10 4 7 -113 10 -344 10 l-351 0 3 -1450z m1182 60
c-3 -5 -12 -10 -18 -10 -7 0 -6 4 3 10 19 12 23 12 15 0z"/>
<path d="M4160 6135 c0 -210 4 -325 10 -325 6 0 10 113 10 320 l0 320 1058 3
1057 2 -1067 3 -1068 2 0 -325z"/>
<path d="M3336 6065 c88 -113 163 -294 185 -444 19 -134 7 -365 -25 -474 -69
-232 -188 -365 -355 -397 -30 -6 -58 -7 -62 -3 -5 5 -9 200 -10 436 0 241 -5
429 -10 433 -5 3 -9 -15 -9 -40 0 -43 -2 -46 -27 -47 -24 -2 -25 -2 -5 -6 12
-3 22 -12 22 -21 0 -16 -22 -17 -257 -14 -227 3 -255 1 -244 -12 7 -8 9 -21 5
-27 -5 -8 -12 1 -21 26 -13 39 -9 61 7 35 6 -8 10 -10 10 -5 0 19 -18 38 -29
31 -6 -4 -11 -3 -11 3 0 17 -58 71 -77 71 -16 0 -16 2 -3 11 12 9 12 10 -3 5
-10 -3 -26 -6 -35 -7 -9 0 -3 -5 13 -10 17 -4 46 -25 65 -44 33 -34 35 -41 38
-114 l4 -79 -233 -5 c-199 -4 -246 -8 -314 -26 -223 -61 -366 -184 -411 -354
-24 -92 -27 -176 -10 -270 39 -206 152 -342 336 -403 83 -27 271 -26 365 4 82
25 176 82 222 135 18 20 35 37 38 37 3 0 5 -38 5 -84 l0 -85 208 0 c281 -1
445 12 557 45 267 78 460 240 585 493 27 53 52 111 56 127 4 16 10 34 14 39 5
6 16 51 25 100 9 50 20 106 26 126 12 49 12 306 -1 314 -5 3 -9 -2 -8 -12 0
-10 0 -36 -1 -58 -2 -31 -4 -36 -10 -20 l-8 20 -5 -20 c-5 -18 -6 -18 -7 3 0
12 4 22 9 22 6 0 10 9 10 20 0 11 -4 20 -10 20 -5 0 -9 -3 -8 -7 0 -5 -2 -16
-6 -25 -7 -16 -25 -18 -167 -18 -106 0 -159 4 -159 11 0 6 -7 4 -15 -5 -8 -8
-15 -30 -15 -48 0 -18 -5 -40 -10 -48 -7 -10 -10 17 -10 87 0 108 -9 168 -42
271 -37 117 -135 293 -184 332 -10 8 -5 -3 12 -25z m601 -637 c-3 -8 -6 -5 -6
6 -1 11 2 17 5 13 3 -3 4 -12 1 -19z m-1397 -18 c0 -5 -2 -10 -4 -10 -3 0 -8
5 -11 10 -3 6 -1 10 4 10 6 0 11 -4 11 -10z m1021 -82 c-8 -20 -9 -18 -9 15 1
26 4 34 10 24 4 -9 4 -26 -1 -39z m-1368 15 c-7 -2 -19 -2 -25 0 -7 3 -2 5 12
5 14 0 19 -2 13 -5z m180 0 c-29 -2 -77 -2 -105 0 -29 2 -6 3 52 3 58 0 81 -1
53 -3z m-275 -10 c-10 -2 -26 -2 -35 0 -10 3 -2 5 17 5 19 0 27 -2 18 -5z
m-65 -10 c-7 -2 -19 -2 -25 0 -7 3 -2 5 12 5 14 0 19 -2 13 -5z m-153 -37 c0
-2 -7 -7 -16 -10 -8 -3 -12 -2 -9 4 6 10 25 14 25 6z m618 -368 l-3 -133 -60
-24 c-42 -17 -87 -26 -147 -29 -77 -4 -91 -2 -124 18 -39 25 -73 86 -74 133 0
49 39 115 84 142 38 23 50 25 184 25 l143 0 -3 -132z"/>
<path d="M2170 6044 c-57 -7 -291 -55 -340 -69 -121 -36 -226 -68 -232 -71 -3
-3 -2 -19 4 -37 17 -54 59 -208 76 -279 15 -62 32 -90 32 -53 0 14 -41 166
-65 240 -7 22 -16 57 -20 77 -8 40 -11 39 141 83 236 70 427 98 649 96 253 -1
392 -39 501 -134 34 -29 42 -34 29 -15 -29 38 -131 103 -195 123 -30 9 -68 22
-85 28 -30 10 -426 19 -495 11z"/>
<path d="M3891 5950 c0 -8 4 -24 9 -35 5 -13 9 -14 9 -5 0 8 -4 24 -9 35 -5
13 -9 14 -9 5z"/>
<path d="M3911 5874 c0 -11 3 -14 6 -6 3 7 2 16 -1 19 -3 4 -6 -2 -5 -13z"/>
<path d="M3920 5833 c0 -5 5 -15 10 -23 8 -12 10 -11 10 8 0 12 -4 22 -10 22
-5 0 -10 -3 -10 -7z"/>
<path d="M4868 5794 c-8 -7 -11 -2137 -4 -2145 2 -2 168 -3 368 -1 l363 2 -3
897 c-1 493 -5 893 -9 889 -8 -8 -9 -13 -11 -67 l-2 -37 -307 -1 c-169 -1
-309 -4 -312 -6 -2 -3 116 -5 262 -5 171 0 267 -4 267 -10 0 -8 -303 -13 -537
-10 -5 0 -8 7 -8 14 0 8 -4 18 -8 22 -4 4 -7 -13 -8 -37 -1 -37 -2 -40 -9 -19
-4 14 -9 22 -10 18 -7 -21 -8 -34 -11 -110 -2 -46 -6 74 -9 265 -3 192 -8 345
-12 341z m702 -484 c0 -5 -13 -10 -30 -10 -16 0 -30 5 -30 10 0 6 14 10 30 10
17 0 30 -4 30 -10z"/>
<path d="M3942 5770 c0 -14 2 -19 5 -12 2 6 2 18 0 25 -3 6 -5 1 -5 -13z"/>
<path d="M1202 5751 c-6 -17 -9 -31 -6 -31 7 0 25 52 20 57 -2 2 -8 -10 -14
-26z"/>
<path d="M6785 5754 c-16 -3 -73 -11 -126 -19 -384 -59 -633 -265 -738 -610
-69 -231 -70 -656 -1 -883 100 -330 310 -520 665 -602 271 -63 793 -44 1123
42 l84 22 -7 55 c-3 31 -15 110 -25 176 -10 66 -24 165 -31 220 -7 55 -13 101
-15 103 -1 2 -35 -5 -76 -16 -158 -44 -274 -57 -488 -57 -188 0 -211 2 -275
23 -125 42 -206 121 -239 232 -9 29 -16 60 -16 67 0 11 114 13 624 13 l624 0
9 68 c12 101 9 520 -4 567 -7 22 -19 67 -28 100 -17 64 -65 165 -78 165 -9 0
33 -81 48 -92 6 -4 2 -8 -7 -8 -12 0 -18 -8 -18 -22 0 -16 -3 -19 -8 -10 -5 7
-25 13 -46 14 -20 1 -39 5 -41 9 -3 3 1 7 8 6 38 -1 77 4 77 11 0 4 -382 7
-850 7 -467 0 -850 -3 -850 -7 0 -5 360 -8 800 -8 533 0 800 -3 800 -10 0 -7
-267 -9 -805 -8 -658 3 -804 1 -800 -10 3 -8 0 -10 -8 -5 -21 13 -37 12 -37
-3 0 -8 -4 -14 -8 -14 -5 0 -17 -18 -27 -40 -10 -22 -20 -38 -22 -36 -2 2 9
31 26 64 21 41 36 59 48 58 10 0 18 7 19 17 1 12 0 13 -3 2 -4 -14 -23 -22
-23 -10 0 20 42 79 94 134 178 185 407 268 776 278 319 9 520 -32 680 -138 57
-38 128 -108 149 -147 6 -12 16 -22 22 -22 10 0 -14 39 -51 83 -28 34 -134
114 -186 140 -71 36 -164 66 -259 84 -77 14 -416 26 -480 17z m-733 -496 c-7
-7 -12 -8 -12 -2 0 14 12 26 19 19 2 -3 -1 -11 -7 -17z m905 -4 c-3 -3 -12 -4
-19 -1 -8 3 -5 6 6 6 11 1 17 -2 13 -5z m61 -2 c8 -6 2 -9 -18 -9 -20 0 -26 3
-18 9 7 4 15 8 18 8 3 0 11 -4 18 -8z m-101 -8 c-3 -3 -12 -4 -19 -1 -8 3 -5
6 6 6 11 1 17 -2 13 -5z m139 -30 c92 -31 124 -80 124 -194 l0 -70 -280 0
c-240 0 -280 2 -280 15 0 8 9 43 21 79 25 77 80 135 154 164 65 26 192 28 261
6z m108 0 c3 -8 2 -12 -4 -9 -6 3 -10 10 -10 16 0 14 7 11 14 -7z"/>
<path d="M8825 5740 c-399 -58 -641 -241 -749 -568 -85 -255 -90 -700 -9 -956
52 -166 145 -310 261 -402 280 -223 820 -273 1430 -133 50 12 92 25 92 30 0
10 -51 243 -85 390 -14 58 -25 115 -25 127 0 32 -13 34 -97 13 -248 -62 -550
-80 -660 -40 -74 28 -124 67 -162 128 -46 76 -72 172 -78 296 -5 107 9 269 27
303 4 10 20 42 34 73 36 78 105 140 186 167 117 40 366 24 637 -40 51 -12 95
-19 99 -16 3 4 16 57 29 120 13 62 28 131 34 153 6 22 10 47 10 55 -1 22 -38
-91 -38 -118 l-1 -22 -757 0 c-417 0 -778 1 -802 0 -38 0 -43 -2 -38 -20 3
-12 1 -18 -5 -14 -5 3 -7 18 -3 32 10 39 94 154 107 146 6 -4 8 -3 5 3 -7 12
61 79 123 120 99 67 205 108 370 145 96 21 127 23 375 22 285 0 365 -10 633
-72 83 -20 117 -14 40 7 -313 83 -710 111 -983 71z m-682 -487 c-7 -2 -13 -12
-13 -20 0 -9 -3 -14 -6 -10 -10 10 4 37 18 36 10 0 10 -2 1 -6z m1045 -50
c-16 -2 -40 -2 -55 0 -16 2 -3 4 27 4 30 0 43 -2 28 -4z"/>
<path d="M11105 5736 c-134 -33 -239 -93 -349 -198 -50 -48 -84 -88 -76 -88 8
0 44 29 80 64 82 80 147 126 236 164 116 49 158 57 314 57 129 0 152 -3 210
-24 75 -28 163 -81 203 -122 15 -16 31 -29 35 -29 17 1 -102 101 -155 130
-130 71 -326 89 -498 46z"/>
<path d="M3955 5681 c3 -35 5 -72 5 -82 0 -11 4 -19 9 -19 10 0 7 37 -8 115
l-10 50 4 -64z"/>
<path d="M3032 5715 c0 -11 4 -31 8 -45 6 -20 8 -21 8 -5 0 11 -4 31 -8 45 -6
20 -8 21 -8 5z"/>
<path d="M2150 5631 c17 -12 187 -15 194 -3 2 4 -44 9 -102 10 -75 2 -103 0
-92 -7z"/>
<path d="M2053 5613 c9 -2 25 -2 35 0 9 3 1 5 -18 5 -19 0 -27 -2 -17 -5z"/>
<path d="M1983 5603 c9 -2 25 -2 35 0 9 3 1 5 -18 5 -19 0 -27 -2 -17 -5z"/>
<path d="M731 5584 c0 -11 3 -14 6 -6 3 7 2 16 -1 19 -3 4 -6 -2 -5 -13z"/>
<path d="M1853 5585 c0 -17 42 -21 52 -5 4 6 9 9 13 6 4 -2 16 0 27 5 17 6 15
8 -10 8 -17 1 -37 -5 -44 -11 -11 -10 -14 -10 -18 0 -6 17 -20 15 -20 -3z"/>
<path d="M1763 5558 c-24 -5 -43 -13 -43 -19 0 -11 14 -12 24 -2 3 4 14 8 24
10 9 1 31 7 47 12 40 12 3 12 -52 -1z"/>
<path d="M9812 5540 c0 -14 2 -19 5 -12 2 6 2 18 0 25 -3 6 -5 1 -5 -13z"/>
<path d="M10658 5530 c-3 -16 -2 -34 2 -40 4 -6 7 7 8 30 2 47 -4 53 -10 10z"/>
<path d="M2545 5540 c-3 -5 -2 -17 3 -26 8 -14 10 -12 10 9 0 29 -3 33 -13 17z"/>
<path d="M11770 5531 c5 -11 15 -23 21 -27 6 -3 3 5 -6 20 -20 30 -30 35 -15
7z"/>
<path d="M3858 5523 c12 -2 32 -2 45 0 12 2 2 4 -23 4 -25 0 -35 -2 -22 -4z"/>
<path d="M9802 5485 c0 -16 2 -22 5 -12 2 9 2 23 0 30 -3 6 -5 -1 -5 -18z"/>
<path d="M5581 5464 c0 -11 3 -14 6 -6 3 7 2 16 -1 19 -3 4 -6 -2 -5 -13z"/>
<path d="M11810 5465 c0 -5 5 -17 10 -25 5 -8 10 -10 10 -5 0 6 -5 17 -10 25
-5 8 -10 11 -10 5z"/>
<path d="M7684 5439 c-3 -6 -2 -15 3 -20 5 -5 9 -1 9 11 0 23 -2 24 -12 9z"/>
<path d="M8201 5349 c-27 -22 -23 -32 13 -34 17 0 24 4 23 17 -1 13 -4 14 -14
6 -16 -13 -17 4 -1 20 19 19 5 13 -21 -9z"/>
<path d="M4895 5331 c-3 -5 -1 -12 5 -16 5 -3 10 1 10 9 0 18 -6 21 -15 7z"/>
<path d="M8278 5328 c-13 -3 315 -5 727 -5 413 1 660 3 550 4 -480 7 -1256 7
-1277 1z"/>
<path d="M8940 2495 l0 -445 40 0 40 0 0 445 0 445 -40 0 -40 0 0 -445z"/>
<path d="M964 2911 c-2 -2 -4 -197 -4 -433 l0 -428 45 0 46 0 -3 429 -3 429
-38 4 c-21 2 -40 2 -43 -1z m23 -63 c-3 -8 -6 -5 -6 6 -1 11 2 17 5 13 3 -3 4
-12 1 -19z"/>
<path d="M5830 2878 l0 -38 120 0 120 0 0 -395 0 -395 40 0 40 0 0 395 0 395
43 1 c23 0 78 1 122 2 l80 2 1 32 1 32 -284 3 -283 3 0 -37z"/>
<path d="M9508 2912 c-21 -3 -34 -16 -62 -68 -20 -36 -36 -67 -36 -69 0 -3 9
-5 20 -5 13 0 34 23 65 71 25 39 45 72 43 73 -2 1 -15 0 -30 -2z"/>
<path d="M10548 2913 l-38 -4 0 -70 0 -69 40 0 40 0 0 75 c0 41 -1 74 -2 73
-2 -1 -20 -3 -40 -5z"/>
<path d="M4421 2874 c-41 -34 -56 -63 -42 -77 8 -8 15 -6 25 8 8 11 12 24 9
29 -4 5 -1 6 5 2 7 -4 22 0 34 8 33 23 53 20 119 -19 79 -46 120 -47 160 -3
16 18 29 37 29 44 0 23 -14 23 -36 -1 -38 -41 -66 -41 -138 -1 -79 44 -122 47
-165 10z"/>
<path d="M1468 2685 c-52 -14 -127 -55 -148 -79 -21 -27 -30 -18 -30 29 l0 45
-40 0 -40 0 0 -315 0 -315 40 0 40 0 0 245 0 244 43 28 c100 67 182 81 245 43
57 -35 62 -62 62 -325 l0 -235 40 0 40 0 0 238 c0 130 -5 257 -11 282 -13 58
-51 97 -113 115 -58 17 -66 17 -128 0z"/>
<path d="M2065 2686 c-99 -24 -129 -49 -172 -141 -25 -55 -27 -70 -28 -180 0
-118 1 -122 35 -190 29 -57 44 -75 84 -100 47 -29 55 -30 162 -30 109 0 114 1
156 30 86 61 113 130 113 285 0 138 -21 206 -79 265 -37 36 -54 45 -114 59
-82 18 -90 19 -157 2z m165 -76 c56 -29 87 -80 101 -169 13 -90 -1 -207 -32
-257 -55 -90 -197 -111 -276 -41 -57 50 -76 105 -77 222 -1 90 2 106 27 157
21 42 39 64 70 83 54 32 130 34 187 5z"/>
<path d="M3230 2684 c-52 -7 -98 -13 -102 -13 -3 -1 -3 -13 1 -28 6 -22 13
-27 32 -26 154 16 227 15 263 -2 57 -27 77 -66 74 -145 l-3 -65 -140 -6 c-77
-3 -151 -10 -165 -16 -73 -31 -118 -115 -106 -198 9 -60 38 -99 91 -125 40
-19 58 -22 130 -18 73 4 91 9 135 36 28 18 53 32 56 32 2 0 4 -13 4 -30 0 -28
2 -30 41 -30 l40 0 -3 258 c-3 244 -4 259 -26 299 -26 50 -55 67 -137 82 -68
13 -61 13 -185 -5z m268 -426 l-3 -103 -44 -24 c-53 -29 -164 -40 -211 -21
-69 28 -99 107 -68 174 25 56 77 74 221 75 l108 1 -3 -102z"/>
<path d="M3930 2684 c-136 -29 -197 -111 -207 -275 -3 -53 0 -120 6 -154 22
-118 102 -199 209 -212 l52 -6 0 -41 c0 -39 3 -43 33 -51 41 -13 62 -53 46
-88 -16 -36 -50 -51 -103 -45 -54 6 -66 -16 -15 -26 57 -11 96 -6 130 17 29
20 34 29 37 69 3 40 -1 49 -24 67 -15 11 -37 21 -50 21 -24 0 -26 3 -26 40 0
11 0 24 1 29 1 4 38 11 84 14 96 7 117 13 117 36 -1 39 -13 43 -96 31 -88 -13
-171 -7 -215 16 -114 58 -147 301 -58 424 47 65 101 84 213 77 50 -4 103 -9
118 -13 23 -5 28 -2 34 20 3 15 4 29 1 32 -6 6 -183 34 -207 33 -8 0 -44 -7
-80 -15z"/>
<path d="M4465 2689 c-116 -13 -135 -18 -135 -37 0 -37 13 -43 70 -32 29 5 87
10 130 10 64 0 83 -4 111 -23 46 -31 59 -61 59 -139 l0 -66 -137 -4 c-158 -4
-210 -21 -252 -83 -20 -30 -23 -44 -19 -109 3 -70 6 -78 38 -111 40 -42 81
-55 170 -55 64 0 157 32 174 59 13 21 26 11 26 -19 0 -28 2 -30 40 -30 l40 0
0 243 c0 143 -5 258 -11 282 -17 63 -51 92 -130 110 -73 16 -71 16 -174 4z
m235 -427 c0 -83 -3 -102 -18 -115 -47 -43 -180 -61 -245 -33 -54 22 -72 51
-72 112 0 44 4 58 26 79 40 40 93 54 207 55 l102 0 0 -98z"/>
<path d="M5125 2686 c-100 -25 -129 -50 -172 -141 -25 -55 -27 -70 -28 -181 0
-119 1 -122 35 -190 49 -97 99 -126 218 -132 104 -5 154 7 205 49 52 43 76 96
89 194 22 164 -18 306 -101 362 -63 43 -168 59 -246 39z m165 -76 c58 -29 88
-81 100 -171 13 -92 -1 -207 -31 -255 -33 -54 -83 -79 -160 -79 -85 0 -128 27
-167 105 -24 50 -27 65 -26 160 0 89 4 112 23 150 23 42 51 71 95 97 34 20
122 16 166 -7z"/>
<path d="M6532 2685 c-119 -26 -172 -77 -202 -196 -24 -92 -25 -154 -2 -245
35 -140 111 -197 271 -203 97 -3 208 5 228 17 6 4 9 19 6 36 -5 25 -9 27 -37
22 -74 -15 -174 -18 -231 -6 -46 10 -68 21 -96 49 -38 37 -69 116 -69 173 l0
28 224 0 224 0 7 38 c15 89 -18 198 -74 245 -55 46 -155 63 -249 42z m187 -84
c52 -41 77 -133 51 -182 -10 -18 -23 -19 -190 -19 -202 0 -188 -7 -169 80 11
52 52 110 93 132 66 36 163 31 215 -11z"/>
<path d="M7190 2684 c-84 -18 -137 -56 -175 -124 -29 -54 -30 -58 -30 -195 0
-134 1 -142 28 -193 31 -59 89 -106 151 -123 43 -12 267 -7 298 6 13 5 16 14
12 34 -4 14 -8 27 -9 29 -2 2 -39 -2 -84 -8 -143 -21 -227 3 -278 79 -34 51
-46 107 -41 201 6 122 45 189 130 225 46 19 156 20 225 2 l51 -14 5 31 c3 17
3 33 2 34 -4 5 -185 32 -205 31 -8 0 -44 -7 -80 -15z"/>
<path d="M7841 2684 c-57 -15 -101 -39 -139 -74 -30 -28 -45 -16 -40 31 l4 39
-38 0 -38 0 0 -315 0 -315 35 0 35 0 0 240 c0 275 -6 258 105 311 106 51 196
34 236 -43 17 -33 19 -61 19 -273 l0 -235 41 0 40 0 -3 258 c-3 253 -3 258
-28 301 -42 74 -129 103 -229 75z"/>
<path d="M8455 2690 c-143 -29 -204 -113 -213 -292 -7 -142 16 -227 77 -288
58 -58 109 -73 223 -69 73 4 91 8 133 34 94 59 137 196 115 366 -18 146 -78
218 -203 245 -70 15 -76 15 -132 4z m138 -74 c81 -34 117 -113 117 -254 0 -81
-4 -105 -24 -147 -29 -62 -59 -89 -113 -105 -89 -27 -179 11 -221 92 -47 91
-40 269 13 350 46 69 149 98 228 64z"/>
<path d="M9375 2690 c-94 -19 -150 -62 -186 -142 -20 -46 -24 -69 -24 -173 0
-155 14 -205 75 -265 57 -58 110 -74 222 -68 116 6 173 40 219 130 27 52 38
170 27 272 -15 142 -72 211 -198 240 -71 17 -77 17 -135 6z m161 -86 c67 -43
87 -91 92 -220 4 -98 2 -116 -18 -162 -30 -70 -75 -108 -138 -117 -144 -20
-232 77 -232 254 1 178 69 270 200 271 44 0 65 -6 96 -26z"/>
<path d="M10030 2693 c-134 -24 -200 -93 -200 -208 0 -71 17 -112 64 -153 l38
-33 -36 -39 c-47 -52 -53 -120 -13 -154 22 -18 22 -19 2 -30 -11 -6 -37 -27
-57 -47 -34 -33 -38 -42 -38 -89 0 -67 22 -104 80 -133 40 -20 60 -22 185 -22
114 0 149 4 190 19 102 39 145 93 145 180 0 115 -43 137 -300 151 -75 4 -123
11 -137 21 -29 18 -30 58 -3 102 17 27 24 32 43 26 12 -4 54 -7 94 -7 139 2
223 77 223 201 0 56 -23 120 -47 129 -7 3 -13 11 -13 19 0 11 16 14 65 14 57
0 65 2 65 19 0 17 -11 19 -132 24 -73 3 -146 8 -163 10 -16 3 -41 3 -55 0z
m138 -73 c54 -33 74 -75 70 -147 -4 -68 -25 -100 -82 -130 -41 -21 -140 -18
-180 5 -100 59 -102 208 -3 271 44 29 149 29 195 1z m52 -562 c118 -25 121
-131 6 -195 -48 -26 -59 -28 -166 -28 -101 0 -119 3 -151 22 -40 25 -59 59
-59 105 0 24 11 42 46 75 l46 44 116 -6 c65 -4 137 -11 162 -17z"/>
<path d="M10950 2687 c-103 -24 -154 -66 -191 -157 -19 -46 -23 -74 -23 -165
0 -123 21 -194 72 -248 58 -62 93 -72 247 -72 158 0 186 8 177 51 -4 24 -8 26
-41 20 -163 -26 -243 -16 -300 37 -54 52 -74 108 -73 212 0 132 35 200 126
247 39 20 79 21 250 6 24 -3 31 2 37 24 7 26 5 27 -55 37 -108 19 -170 21
-226 8z"/>
<path d="M11510 2694 c-19 -3 -65 -9 -102 -15 -67 -11 -68 -11 -62 -37 4 -15
8 -28 9 -30 2 -2 29 1 61 7 87 16 190 14 231 -6 47 -22 75 -83 71 -156 l-3
-52 -140 -6 c-149 -6 -162 -9 -213 -46 -94 -70 -78 -235 28 -291 40 -21 55
-23 132 -20 76 4 93 8 138 36 28 18 53 32 56 32 2 0 4 -13 4 -30 0 -28 2 -30
40 -30 l40 0 0 233 c0 356 -19 394 -205 410 -27 3 -66 3 -85 1z m208 -436 l3
-97 -47 -27 c-61 -36 -172 -45 -228 -19 -59 28 -84 105 -54 169 25 57 80 75
218 73 l105 -2 3 -97z"/>
<path d="M2470 2672 c0 -4 4 -12 9 -17 5 -6 14 -26 19 -45 6 -19 38 -109 72
-200 34 -91 78 -211 98 -267 l37 -103 51 0 c51 0 51 0 67 43 9 23 52 141 97
262 44 121 92 246 105 278 l24 57 -43 0 -44 0 -32 -87 c-138 -385 -164 -453
-171 -453 -4 0 -21 39 -39 88 -39 106 -151 422 -156 440 -4 13 -94 18 -94 4z"/>
<path d="M10510 2365 l0 -315 40 0 40 0 0 315 0 315 -40 0 -40 0 0 -315z"/>
<path d="M4811 1493 c-71 -205 -142 -408 -200 -573 -23 -63 -41 -117 -41 -121
0 -11 78 -5 88 6 5 6 21 46 36 90 15 44 32 92 38 108 l10 27 179 0 c177 0 180
0 189 -22 5 -13 24 -65 42 -117 l33 -95 49 -3 c41 -3 48 -1 42 12 -11 29 -177
519 -234 692 l-57 172 -56 1 -56 0 -62 -177z m151 -25 c15 -46 47 -141 73
-212 25 -71 45 -136 45 -143 0 -10 -34 -13 -160 -13 -88 0 -160 2 -160 4 0 2
34 97 75 211 41 114 75 214 75 221 0 8 6 14 13 14 6 0 24 -37 39 -82z"/>
<path d="M9972 1595 c-37 -76 -39 -85 -13 -78 11 3 40 36 65 74 l46 69 -33 0
c-30 0 -35 -5 -65 -65z"/>
<path d="M10794 1590 l1 -70 42 0 43 0 0 70 0 70 -43 0 -43 0 0 -70z"/>
<path d="M1427 1425 c-21 -8 -51 -23 -66 -35 -38 -26 -41 -26 -41 10 0 28 -2
30 -40 30 l-40 0 0 -445 0 -445 43 0 42 0 -3 141 c-2 78 -1 147 2 154 3 9 22
3 66 -18 87 -43 160 -48 234 -14 102 47 144 156 134 353 -7 149 -62 250 -148
274 -49 14 -138 11 -183 -5z m160 -75 c19 -11 44 -42 60 -72 25 -48 27 -63 28
-163 0 -101 -2 -115 -28 -168 -22 -44 -38 -62 -67 -77 -57 -29 -132 -26 -200
8 l-55 27 -3 202 -2 201 30 22 c41 29 74 38 145 39 43 1 69 -5 92 -19z"/>
<path d="M2020 1433 c-86 -13 -90 -14 -90 -33 0 -41 9 -48 53 -39 75 14 225
11 258 -7 39 -20 59 -68 59 -144 l0 -60 -117 0 c-129 0 -173 -9 -224 -43 -48
-32 -73 -81 -73 -142 0 -76 28 -124 95 -158 75 -39 157 -35 251 11 36 17 67
32 70 32 2 0 4 -12 3 -27 0 -25 3 -28 35 -28 l35 0 3 250 c2 207 0 257 -13
291 -18 48 -47 77 -94 93 -31 10 -193 13 -251 4z m280 -427 c0 -90 -1 -95 -26
-115 -31 -25 -114 -51 -158 -51 -45 1 -112 34 -133 66 -23 35 -22 104 1 139
28 43 69 54 199 55 l117 0 0 -94z"/>
<path d="M2778 1426 c-46 -16 -121 -60 -138 -80 -23 -29 -33 -18 -28 34 l5 50
-38 0 -39 0 0 -310 c0 -171 0 -313 0 -317 0 -5 16 -8 36 -8 l36 0 -1 236 c-2
215 0 236 16 251 31 27 120 67 165 74 60 9 72 18 73 53 1 27 -3 31 -25 31 -14
-1 -41 -7 -62 -14z"/>
<path d="M2986 1429 c-32 -5 -61 -11 -64 -13 -2 -3 0 -17 5 -33 8 -24 14 -27
39 -23 16 3 82 5 147 5 l119 0 28 -32 c22 -25 30 -45 35 -96 4 -36 4 -70 0
-76 -4 -7 -51 -11 -125 -11 -198 0 -278 -46 -288 -165 -6 -70 2 -97 38 -139
35 -39 102 -66 167 -66 48 0 147 31 173 55 26 24 42 19 38 -12 -3 -26 -1 -28
37 -28 l40 0 0 250 c0 289 -7 326 -73 367 -32 20 -52 23 -147 25 -60 1 -137
-3 -169 -8z m314 -415 c0 -47 -4 -93 -10 -103 -16 -31 -108 -65 -175 -65 -97
-1 -155 47 -155 127 0 41 18 75 53 101 24 18 47 22 150 26 67 3 125 4 130 2 4
-2 7 -41 7 -88z"/>
<path d="M3836 1429 c-32 -5 -61 -10 -63 -12 -2 -2 0 -17 3 -34 l6 -30 51 9
c28 6 96 8 150 6 l99 -3 29 -35 c26 -31 29 -42 29 -106 l0 -72 -137 -4 c-125
-3 -142 -5 -183 -28 -24 -14 -55 -41 -68 -60 -20 -30 -23 -44 -20 -105 4 -85
22 -114 92 -150 79 -40 199 -28 278 26 35 26 44 24 43 -8 0 -25 4 -28 38 -31
l37 -3 0 261 c0 279 -4 304 -51 346 -13 12 -39 26 -58 33 -39 13 -187 13 -275
0z m304 -430 l0 -100 -57 -27 c-101 -47 -217 -32 -259 34 -25 38 -21 110 8
141 39 43 74 52 196 53 l112 0 0 -101z"/>
<path d="M5505 1425 c-85 -33 -128 -98 -128 -195 -1 -76 16 -115 69 -158 36
-30 36 -30 14 -44 -28 -17 -60 -79 -60 -116 0 -15 9 -38 20 -50 26 -28 25 -33
-12 -57 -51 -33 -73 -70 -73 -125 0 -61 24 -97 88 -129 41 -20 62 -23 160 -23
62 0 138 5 169 11 75 16 142 60 168 110 27 53 27 129 0 163 -36 47 -80 59
-246 69 -85 5 -163 13 -173 19 -28 14 -31 43 -10 90 l19 42 63 -7 c174 -19
286 59 287 198 0 58 -15 102 -44 126 -32 27 -18 37 44 33 59 -4 60 -4 60 22 0
26 0 26 -83 26 -46 0 -131 2 -188 5 -79 4 -114 1 -144 -10z m186 -49 c63 -26
99 -81 99 -149 0 -91 -87 -163 -187 -153 -98 9 -153 64 -153 152 0 28 8 64 18
84 35 67 144 99 223 66z m32 -565 c96 -10 127 -33 127 -92 0 -83 -101 -142
-245 -143 -128 -1 -205 46 -205 127 0 32 7 46 39 78 l39 39 83 -1 c46 0 119
-4 162 -8z"/>
<path d="M6299 1425 c-44 -16 -109 -56 -128 -79 -23 -27 -31 -18 -31 34 l0 50
-40 0 -40 0 0 -314 c0 -341 -3 -326 56 -326 l24 0 2 247 3 248 65 32 c36 17
90 36 121 42 55 11 57 13 61 46 4 33 3 35 -27 34 -16 0 -46 -6 -66 -14z"/>
<path d="M6589 1427 c-125 -47 -180 -167 -166 -363 10 -147 70 -236 178 -268
160 -48 320 24 360 160 18 63 18 255 0 309 -22 64 -61 114 -110 143 -38 22
-59 27 -136 29 -58 2 -103 -2 -126 -10z m208 -77 c51 -31 81 -85 93 -167 12
-91 0 -187 -32 -245 -63 -116 -253 -116 -316 -1 -52 94 -50 275 3 354 39 59
78 79 155 79 47 0 74 -6 97 -20z"/>
<path d="M7307 1425 c-21 -8 -51 -23 -66 -35 -38 -26 -41 -26 -41 10 0 28 -2
30 -40 30 l-40 0 0 -445 0 -445 40 0 40 0 0 156 c0 86 3 154 8 152 147 -75
209 -85 295 -45 92 42 128 116 135 284 4 95 1 122 -17 183 -26 85 -72 141
-129 158 -52 16 -138 14 -185 -3z m153 -70 c85 -44 122 -218 79 -377 -11 -44
-50 -93 -90 -113 -45 -24 -126 -18 -189 13 l-55 27 -3 202 -2 201 29 21 c16
12 39 25 52 30 38 15 147 13 179 -4z"/>
<path d="M7942 1421 c-112 -38 -163 -125 -170 -288 -5 -128 18 -210 78 -272
70 -72 222 -99 375 -68 58 12 60 14 63 46 3 32 2 33 -25 27 -15 -4 -71 -9
-124 -13 -111 -6 -153 4 -205 50 -46 39 -62 73 -70 141 l-7 56 224 2 224 3 3
65 c10 188 -67 271 -250 270 -35 -1 -87 -9 -116 -19z m223 -65 c46 -30 66 -74
63 -141 l-3 -60 -182 -3 -183 -2 0 23 c0 81 57 171 125 196 41 15 149 7 180
-13z"/>
<path d="M8612 1425 c-103 -32 -157 -107 -174 -243 -15 -113 5 -228 49 -294
59 -88 195 -126 357 -98 91 15 95 18 89 53 -5 26 -9 28 -37 23 -17 -3 -71 -9
-121 -12 -80 -6 -95 -4 -137 16 -52 24 -56 28 -89 85 -18 33 -24 59 -27 142
-4 92 -2 106 21 156 15 33 39 66 62 83 35 26 47 29 131 32 51 2 114 -1 141 -6
26 -6 48 -10 49 -9 1 1 4 16 7 34 l6 31 -63 11 c-83 15 -211 13 -264 -4z"/>
<path d="M9791 1429 c-30 -5 -57 -11 -59 -13 -2 -3 -1 -18 3 -34 l6 -29 52 9
c28 5 95 8 149 6 91 -3 99 -5 125 -31 25 -24 28 -36 31 -106 l4 -79 -138 -4
c-126 -3 -143 -5 -184 -28 -65 -36 -90 -79 -90 -153 0 -81 28 -129 94 -162 89
-44 158 -35 309 43 4 2 7 -10 7 -28 0 -30 1 -31 41 -28 l40 3 -1 250 c0 138
-5 266 -10 285 -12 44 -55 87 -101 100 -41 12 -203 11 -278 -1z m309 -430 l0
-100 -57 -27 c-168 -77 -322 15 -263 158 22 52 72 70 208 70 l112 0 0 -101z"/>
<path d="M10583 1429 c-17 -5 -61 -29 -97 -53 l-66 -44 0 49 0 49 -40 0 -40 0
0 -310 c0 -171 0 -313 0 -317 0 -5 17 -8 38 -8 l37 0 5 245 5 244 40 23 c45
25 111 48 168 58 34 5 37 8 37 40 0 32 -3 35 -27 34 -16 0 -42 -5 -60 -10z"/>
<path d="M11111 1429 c-30 -5 -56 -11 -58 -13 -2 -1 0 -16 3 -33 6 -29 7 -30
47 -22 66 13 229 10 256 -4 45 -23 61 -57 64 -132 l2 -70 -140 -5 c-125 -5
-145 -8 -185 -30 -64 -36 -90 -79 -90 -152 0 -63 14 -100 52 -135 74 -70 220
-70 320 -1 37 25 50 23 46 -9 -3 -25 0 -28 35 -30 l38 -3 -3 274 c-3 259 -4
276 -24 302 -45 61 -66 69 -192 71 -64 1 -141 -3 -171 -8z m319 -415 c0 -47
-4 -93 -10 -103 -11 -22 -91 -58 -146 -67 -56 -8 -122 12 -156 48 -36 39 -39
111 -6 153 35 44 71 54 201 55 l117 0 0 -86z"/>
<path d="M9040 1200 c0 -311 13 -359 104 -401 80 -36 195 -15 278 52 22 17 42
28 45 25 4 -3 7 -23 7 -44 1 -36 2 -37 39 -37 20 0 37 3 37 8 0 4 0 146 0 317
l0 310 -40 0 -40 0 0 -249 0 -248 -37 -25 c-123 -80 -247 -75 -290 11 -15 31
-18 70 -21 274 l-3 237 -40 0 -39 0 0 -230z"/>
<path d="M10795 1113 l0 -318 40 0 40 0 3 318 2 317 -43 0 -43 0 1 -317z"/>
</g>
</svg>
