<?xml version="1.0" encoding="utf-8" standalone="no"?>
<!DOCTYPE svg PUBLIC "-//W3C//DTD SVG 1.1//EN"
  "http://www.w3.org/Graphics/SVG/1.1/DTD/svg11.dtd">
<svg xmlns:xlink="http://www.w3.org/1999/xlink" width="436.08431pt" height="235.034908pt" viewBox="0 0 436.08431 235.034908" xmlns="http://www.w3.org/2000/svg" version="1.1">
 <metadata>
  <rdf:RDF xmlns:dc="http://purl.org/dc/elements/1.1/" xmlns:cc="http://creativecommons.org/ns#" xmlns:rdf="http://www.w3.org/1999/02/22-rdf-syntax-ns#">
   <cc:Work>
    <dc:type rdf:resource="http://purl.org/dc/dcmitype/StillImage"/>
    <dc:date>2026-08-18T17:42:38.470463</dc:date>
    <dc:format>image/svg+xml</dc:format>
    <dc:creator>
     <cc:Agent>
      <dc:title>Matplotlib v3.11.1, https://matplotlib.org/</dc:title>
     </cc:Agent>
    </dc:creator>
   </cc:Work>
  </rdf:RDF>
 </metadata>
 <defs>
  <style type="text/css">*{stroke-linejoin: round; stroke-linecap: butt}</style>
 </defs>
 <g id="figure_1">
  <g id="patch_1">
   <path d="M 0 235.034908 
L 436.08431 235.034908 
L 436.08431 0 
L 0 0 
z
" style="fill: #ffffff"/>
  </g>
  <g id="axes_1">
   <g id="patch_2">
    <path d="M 40.328926 192.153781 
L 428.88431 192.153781 
L 428.88431 21.936328 
L 40.328926 21.936328 
z
" style="fill: #ffffff"/>
   </g>
   <g id="matplotlib.axis_1">
    <g id="xtick_1">
     <g id="line2d_1">
      <path d="M 74.254791 192.153781 
L 74.254791 21.936328 
" clip-path="url(#pb05ec8827b)" style="fill: none; stroke: #cccccc; stroke-width: 0.8; stroke-linecap: round"/>
     </g>
     <g id="line2d_2"/>
     <g id="text_1">
      <!-- grátis -->
      <g style="fill: #262626" transform="translate(49.804079 216.117352) rotate(-30) scale(0.11 -0.11)">
       <defs>
        <path id="LiberationSans-4a" d="M 1713 -1328 
Q 1159 -1328 831 -1111 
Q 503 -894 409 -494 
L 975 -413 
Q 1031 -647 1223 -773 
Q 1416 -900 1728 -900 
Q 2569 -900 2569 84 
L 2569 628 
L 2563 628 
Q 2403 303 2125 139 
Q 1847 -25 1475 -25 
Q 853 -25 561 387 
Q 269 800 269 1684 
Q 269 2581 583 3007 
Q 897 3434 1538 3434 
Q 1897 3434 2161 3270 
Q 2425 3106 2569 2803 
L 2575 2803 
Q 2575 2897 2587 3128 
Q 2600 3359 2613 3381 
L 3147 3381 
Q 3128 3213 3128 2681 
L 3128 97 
Q 3128 -1328 1713 -1328 
z
M 2569 1691 
Q 2569 2103 2456 2401 
Q 2344 2700 2139 2858 
Q 1934 3016 1675 3016 
Q 1244 3016 1047 2703 
Q 850 2391 850 1691 
Q 850 997 1034 694 
Q 1219 391 1666 391 
Q 1931 391 2137 547 
Q 2344 703 2456 995 
Q 2569 1288 2569 1691 
z
" transform="scale(0.015625)"/>
        <path id="LiberationSans-55" d="M 444 0 
L 444 2594 
Q 444 2950 425 3381 
L 956 3381 
Q 981 2806 981 2691 
L 994 2691 
Q 1128 3125 1303 3284 
Q 1478 3444 1797 3444 
Q 1909 3444 2025 3413 
L 2025 2897 
Q 1913 2928 1725 2928 
Q 1375 2928 1190 2626 
Q 1006 2325 1006 1763 
L 1006 0 
L 444 0 
z
" transform="scale(0.015625)"/>
        <path id="LiberationSans-a3" d="M 1294 -63 
Q 784 -63 528 206 
Q 272 475 272 944 
Q 272 1469 617 1750 
Q 963 2031 1731 2050 
L 2491 2063 
L 2491 2247 
Q 2491 2659 2316 2837 
Q 2141 3016 1766 3016 
Q 1388 3016 1216 2887 
Q 1044 2759 1009 2478 
L 422 2531 
Q 566 3444 1778 3444 
Q 2416 3444 2737 3151 
Q 3059 2859 3059 2306 
L 3059 850 
Q 3059 600 3125 473 
Q 3191 347 3375 347 
Q 3456 347 3559 369 
L 3559 19 
Q 3347 -31 3125 -31 
Q 2813 -31 2670 133 
Q 2528 297 2509 647 
L 2491 647 
Q 2275 259 1989 98 
Q 1703 -63 1294 -63 
z
M 1422 359 
Q 1731 359 1972 500 
Q 2213 641 2352 886 
Q 2491 1131 2491 1391 
L 2491 1669 
L 1875 1656 
Q 1478 1650 1273 1575 
Q 1069 1500 959 1344 
Q 850 1188 850 934 
Q 850 659 998 509 
Q 1147 359 1422 359 
z
M 1288 3753 
L 1288 3816 
L 1966 4713 
L 2613 4713 
L 2613 4622 
L 1582 3753 
L 1288 3753 
z
" transform="scale(0.015625)"/>
        <path id="LiberationSans-57" d="M 1731 25 
Q 1453 -50 1163 -50 
Q 488 -50 488 716 
L 488 2972 
L 97 2972 
L 97 3381 
L 509 3381 
L 675 4138 
L 1050 4138 
L 1050 3381 
L 1675 3381 
L 1675 2972 
L 1050 2972 
L 1050 838 
Q 1050 594 1129 495 
Q 1209 397 1406 397 
Q 1519 397 1731 441 
L 1731 25 
z
" transform="scale(0.015625)"/>
        <path id="LiberationSans-4c" d="M 428 4100 
L 428 4638 
L 991 4638 
L 991 4100 
L 428 4100 
z
M 428 0 
L 428 3381 
L 991 3381 
L 991 0 
L 428 0 
z
" transform="scale(0.015625)"/>
        <path id="LiberationSans-56" d="M 2969 934 
Q 2969 456 2608 196 
Q 2247 -63 1597 -63 
Q 966 -63 623 145 
Q 281 353 178 794 
L 675 891 
Q 747 619 972 492 
Q 1197 366 1597 366 
Q 2025 366 2223 497 
Q 2422 628 2422 891 
Q 2422 1091 2284 1216 
Q 2147 1341 1841 1422 
L 1438 1528 
Q 953 1653 748 1773 
Q 544 1894 428 2066 
Q 313 2238 313 2488 
Q 313 2950 642 3192 
Q 972 3434 1603 3434 
Q 2163 3434 2492 3237 
Q 2822 3041 2909 2606 
L 2403 2544 
Q 2356 2769 2151 2889 
Q 1947 3009 1603 3009 
Q 1222 3009 1040 2893 
Q 859 2778 859 2544 
Q 859 2400 934 2306 
Q 1009 2213 1156 2147 
Q 1303 2081 1775 1966 
Q 2222 1853 2419 1758 
Q 2616 1663 2730 1547 
Q 2844 1431 2906 1279 
Q 2969 1128 2969 934 
z
" transform="scale(0.015625)"/>
       </defs>
       <use xlink:href="#LiberationSans-4a"/>
       <use xlink:href="#LiberationSans-55" transform="translate(55.609375 0)"/>
       <use xlink:href="#LiberationSans-a3" transform="translate(88.90625 0)"/>
       <use xlink:href="#LiberationSans-57" transform="translate(144.515625 0)"/>
       <use xlink:href="#LiberationSans-4c" transform="translate(172.296875 0)"/>
       <use xlink:href="#LiberationSans-56" transform="translate(194.515625 0)"/>
      </g>
     </g>
    </g>
    <g id="xtick_2">
     <g id="line2d_3">
      <path d="M 120.069599 192.153781 
L 120.069599 21.936328 
" clip-path="url(#pb05ec8827b)" style="fill: none; stroke: #cccccc; stroke-width: 0.8; stroke-linecap: round"/>
     </g>
     <g id="line2d_4"/>
     <g id="text_2">
      <!-- clique -->
      <g style="fill: #262626" transform="translate(94.023234 216.958782) rotate(-30) scale(0.11 -0.11)">
       <defs>
        <path id="LiberationSans-46" d="M 859 1706 
Q 859 1031 1071 706 
Q 1284 381 1713 381 
Q 2013 381 2214 543 
Q 2416 706 2463 1044 
L 3031 1006 
Q 2966 519 2616 228 
Q 2266 -63 1728 -63 
Q 1019 -63 645 385 
Q 272 834 272 1694 
Q 272 2547 647 2995 
Q 1022 3444 1722 3444 
Q 2241 3444 2583 3175 
Q 2925 2906 3013 2434 
L 2434 2391 
Q 2391 2672 2212 2837 
Q 2034 3003 1706 3003 
Q 1259 3003 1059 2706 
Q 859 2409 859 1706 
z
" transform="scale(0.015625)"/>
        <path id="LiberationSans-4f" d="M 431 0 
L 431 4638 
L 994 4638 
L 994 0 
L 431 0 
z
" transform="scale(0.015625)"/>
        <path id="LiberationSans-54" d="M 1513 -63 
Q 869 -63 569 371 
Q 269 806 269 1675 
Q 269 3444 1513 3444 
Q 1897 3444 2147 3308 
Q 2397 3172 2566 2856 
L 2572 2856 
Q 2572 2950 2584 3179 
Q 2597 3409 2609 3425 
L 3150 3425 
Q 3128 3241 3128 2503 
L 3128 -1328 
L 2566 -1328 
L 2566 44 
L 2578 556 
L 2572 556 
Q 2403 222 2156 79 
Q 1909 -63 1513 -63 
z
M 2566 1731 
Q 2566 2391 2350 2709 
Q 2134 3028 1663 3028 
Q 1234 3028 1046 2709 
Q 859 2391 859 1694 
Q 859 984 1048 678 
Q 1238 372 1656 372 
Q 2134 372 2350 712 
Q 2566 1053 2566 1731 
z
" transform="scale(0.015625)"/>
        <path id="LiberationSans-58" d="M 981 3381 
L 981 1238 
Q 981 903 1047 718 
Q 1113 534 1256 453 
Q 1400 372 1678 372 
Q 2084 372 2318 650 
Q 2553 928 2553 1422 
L 2553 3381 
L 3116 3381 
L 3116 722 
Q 3116 131 3134 0 
L 2603 0 
Q 2600 16 2597 84 
Q 2594 153 2589 242 
Q 2584 331 2578 578 
L 2569 578 
Q 2375 228 2120 82 
Q 1866 -63 1488 -63 
Q 931 -63 673 214 
Q 416 491 416 1128 
L 416 3381 
L 981 3381 
z
" transform="scale(0.015625)"/>
        <path id="LiberationSans-48" d="M 863 1572 
Q 863 991 1103 675 
Q 1344 359 1806 359 
Q 2172 359 2392 506 
Q 2613 653 2691 878 
L 3184 738 
Q 2881 -63 1806 -63 
Q 1056 -63 664 384 
Q 272 831 272 1713 
Q 272 2550 664 2997 
Q 1056 3444 1784 3444 
Q 3275 3444 3275 1647 
L 3275 1572 
L 863 1572 
z
M 2694 2003 
Q 2647 2538 2422 2783 
Q 2197 3028 1775 3028 
Q 1366 3028 1127 2754 
Q 888 2481 869 2003 
L 2694 2003 
z
" transform="scale(0.015625)"/>
       </defs>
       <use xlink:href="#LiberationSans-46"/>
       <use xlink:href="#LiberationSans-4f" transform="translate(50 0)"/>
       <use xlink:href="#LiberationSans-4c" transform="translate(72.21875 0)"/>
       <use xlink:href="#LiberationSans-54" transform="translate(94.4375 0)"/>
       <use xlink:href="#LiberationSans-58" transform="translate(150.046875 0)"/>
       <use xlink:href="#LiberationSans-48" transform="translate(205.65625 0)"/>
      </g>
     </g>
    </g>
    <g id="xtick_3">
     <g id="line2d_5">
      <path d="M 165.884406 192.153781 
L 165.884406 21.936328 
" clip-path="url(#pb05ec8827b)" style="fill: none; stroke: #cccccc; stroke-width: 0.8; stroke-linecap: round"/>
     </g>
     <g id="line2d_6"/>
     <g id="text_3">
      <!-- comprar -->
      <g style="fill: #262626" transform="translate(129.792283 222.758704) rotate(-30) scale(0.11 -0.11)">
       <defs>
        <path id="LiberationSans-52" d="M 3291 1694 
Q 3291 806 2900 371 
Q 2509 -63 1766 -63 
Q 1025 -63 647 389 
Q 269 841 269 1694 
Q 269 3444 1784 3444 
Q 2559 3444 2925 3017 
Q 3291 2591 3291 1694 
z
M 2700 1694 
Q 2700 2394 2492 2711 
Q 2284 3028 1794 3028 
Q 1300 3028 1079 2704 
Q 859 2381 859 1694 
Q 859 1025 1076 689 
Q 1294 353 1759 353 
Q 2266 353 2483 678 
Q 2700 1003 2700 1694 
z
" transform="scale(0.015625)"/>
        <path id="LiberationSans-50" d="M 2400 0 
L 2400 2144 
Q 2400 2634 2265 2821 
Q 2131 3009 1781 3009 
Q 1422 3009 1212 2734 
Q 1003 2459 1003 1959 
L 1003 0 
L 444 0 
L 444 2659 
Q 444 3250 425 3381 
L 956 3381 
Q 959 3366 962 3297 
Q 966 3228 970 3139 
Q 975 3050 981 2803 
L 991 2803 
Q 1172 3163 1406 3303 
Q 1641 3444 1978 3444 
Q 2363 3444 2586 3291 
Q 2809 3138 2897 2803 
L 2906 2803 
Q 3081 3144 3329 3294 
Q 3578 3444 3931 3444 
Q 4444 3444 4676 3166 
Q 4909 2888 4909 2253 
L 4909 0 
L 4353 0 
L 4353 2144 
Q 4353 2634 4218 2821 
Q 4084 3009 3734 3009 
Q 3366 3009 3161 2736 
Q 2956 2463 2956 1959 
L 2956 0 
L 2400 0 
z
" transform="scale(0.015625)"/>
        <path id="LiberationSans-53" d="M 3291 1706 
Q 3291 -63 2047 -63 
Q 1266 -63 997 525 
L 981 525 
Q 994 500 994 -6 
L 994 -1328 
L 431 -1328 
L 431 2691 
Q 431 3213 413 3381 
L 956 3381 
Q 959 3369 965 3292 
Q 972 3216 980 3056 
Q 988 2897 988 2838 
L 1000 2838 
Q 1150 3150 1397 3295 
Q 1644 3441 2047 3441 
Q 2672 3441 2981 3022 
Q 3291 2603 3291 1706 
z
M 2700 1694 
Q 2700 2400 2509 2703 
Q 2319 3006 1903 3006 
Q 1569 3006 1380 2865 
Q 1191 2725 1092 2426 
Q 994 2128 994 1650 
Q 994 984 1206 668 
Q 1419 353 1897 353 
Q 2316 353 2508 661 
Q 2700 969 2700 1694 
z
" transform="scale(0.015625)"/>
        <path id="LiberationSans-44" d="M 1294 -63 
Q 784 -63 528 206 
Q 272 475 272 944 
Q 272 1469 617 1750 
Q 963 2031 1731 2050 
L 2491 2063 
L 2491 2247 
Q 2491 2659 2316 2837 
Q 2141 3016 1766 3016 
Q 1388 3016 1216 2887 
Q 1044 2759 1009 2478 
L 422 2531 
Q 566 3444 1778 3444 
Q 2416 3444 2737 3151 
Q 3059 2859 3059 2306 
L 3059 850 
Q 3059 600 3125 473 
Q 3191 347 3375 347 
Q 3456 347 3559 369 
L 3559 19 
Q 3347 -31 3125 -31 
Q 2813 -31 2670 133 
Q 2528 297 2509 647 
L 2491 647 
Q 2275 259 1989 98 
Q 1703 -63 1294 -63 
z
M 1422 359 
Q 1731 359 1972 500 
Q 2213 641 2352 886 
Q 2491 1131 2491 1391 
L 2491 1669 
L 1875 1656 
Q 1478 1650 1273 1575 
Q 1069 1500 959 1344 
Q 850 1188 850 934 
Q 850 659 998 509 
Q 1147 359 1422 359 
z
" transform="scale(0.015625)"/>
       </defs>
       <use xlink:href="#LiberationSans-46"/>
       <use xlink:href="#LiberationSans-52" transform="translate(50 0)"/>
       <use xlink:href="#LiberationSans-50" transform="translate(105.609375 0)"/>
       <use xlink:href="#LiberationSans-53" transform="translate(188.90625 0)"/>
       <use xlink:href="#LiberationSans-55" transform="translate(244.515625 0)"/>
       <use xlink:href="#LiberationSans-44" transform="translate(277.8125 0)"/>
       <use xlink:href="#LiberationSans-55" transform="translate(333.421875 0)"/>
      </g>
     </g>
    </g>
    <g id="xtick_4">
     <g id="line2d_7">
      <path d="M 211.699214 192.153781 
L 211.699214 21.936328 
" clip-path="url(#pb05ec8827b)" style="fill: none; stroke: #cccccc; stroke-width: 0.8; stroke-linecap: round"/>
     </g>
     <g id="line2d_8"/>
     <g id="text_4">
      <!-- urgente -->
      <g style="fill: #262626" transform="translate(178.235748 221.241047) rotate(-30) scale(0.11 -0.11)">
       <defs>
        <path id="LiberationSans-51" d="M 2578 0 
L 2578 2144 
Q 2578 2478 2512 2662 
Q 2447 2847 2303 2928 
Q 2159 3009 1881 3009 
Q 1475 3009 1240 2731 
Q 1006 2453 1006 1959 
L 1006 0 
L 444 0 
L 444 2659 
Q 444 3250 425 3381 
L 956 3381 
Q 959 3366 962 3297 
Q 966 3228 970 3139 
Q 975 3050 981 2803 
L 991 2803 
Q 1184 3153 1439 3298 
Q 1694 3444 2072 3444 
Q 2628 3444 2886 3167 
Q 3144 2891 3144 2253 
L 3144 0 
L 2578 0 
z
" transform="scale(0.015625)"/>
       </defs>
       <use xlink:href="#LiberationSans-58"/>
       <use xlink:href="#LiberationSans-55" transform="translate(55.609375 0)"/>
       <use xlink:href="#LiberationSans-4a" transform="translate(88.90625 0)"/>
       <use xlink:href="#LiberationSans-48" transform="translate(144.515625 0)"/>
       <use xlink:href="#LiberationSans-51" transform="translate(200.125 0)"/>
       <use xlink:href="#LiberationSans-57" transform="translate(255.734375 0)"/>
       <use xlink:href="#LiberationSans-48" transform="translate(283.515625 0)"/>
      </g>
     </g>
    </g>
    <g id="xtick_5">
     <g id="line2d_9">
      <path d="M 257.514022 192.153781 
L 257.514022 21.936328 
" clip-path="url(#pb05ec8827b)" style="fill: none; stroke: #cccccc; stroke-width: 0.8; stroke-linecap: round"/>
     </g>
     <g id="line2d_10"/>
     <g id="text_5">
      <!-- ganhador -->
      <g style="fill: #262626" transform="translate(216.102067 225.83011) rotate(-30) scale(0.11 -0.11)">
       <defs>
        <path id="LiberationSans-4b" d="M 991 2803 
Q 1172 3134 1426 3289 
Q 1681 3444 2072 3444 
Q 2622 3444 2883 3170 
Q 3144 2897 3144 2253 
L 3144 0 
L 2578 0 
L 2578 2144 
Q 2578 2500 2512 2673 
Q 2447 2847 2297 2928 
Q 2147 3009 1881 3009 
Q 1484 3009 1245 2734 
Q 1006 2459 1006 1994 
L 1006 0 
L 444 0 
L 444 4638 
L 1006 4638 
L 1006 3431 
Q 1006 3241 995 3037 
Q 984 2834 981 2803 
L 991 2803 
z
" transform="scale(0.015625)"/>
        <path id="LiberationSans-47" d="M 2566 544 
Q 2409 219 2151 78 
Q 1894 -63 1513 -63 
Q 872 -63 570 368 
Q 269 800 269 1675 
Q 269 3444 1513 3444 
Q 1897 3444 2153 3303 
Q 2409 3163 2566 2856 
L 2572 2856 
L 2566 3234 
L 2566 4638 
L 3128 4638 
L 3128 697 
Q 3128 169 3147 0 
L 2609 0 
Q 2600 50 2589 231 
Q 2578 413 2578 544 
L 2566 544 
z
M 859 1694 
Q 859 984 1046 678 
Q 1234 372 1656 372 
Q 2134 372 2350 703 
Q 2566 1034 2566 1731 
Q 2566 2403 2350 2715 
Q 2134 3028 1663 3028 
Q 1238 3028 1048 2714 
Q 859 2400 859 1694 
z
" transform="scale(0.015625)"/>
       </defs>
       <use xlink:href="#LiberationSans-4a"/>
       <use xlink:href="#LiberationSans-44" transform="translate(55.609375 0)"/>
       <use xlink:href="#LiberationSans-51" transform="translate(111.21875 0)"/>
       <use xlink:href="#LiberationSans-4b" transform="translate(166.828125 0)"/>
       <use xlink:href="#LiberationSans-44" transform="translate(222.4375 0)"/>
       <use xlink:href="#LiberationSans-47" transform="translate(278.046875 0)"/>
       <use xlink:href="#LiberationSans-52" transform="translate(333.65625 0)"/>
       <use xlink:href="#LiberationSans-55" transform="translate(389.265625 0)"/>
      </g>
     </g>
    </g>
    <g id="xtick_6">
     <g id="line2d_11">
      <path d="M 303.32883 192.153781 
L 303.32883 21.936328 
" clip-path="url(#pb05ec8827b)" style="fill: none; stroke: #cccccc; stroke-width: 0.8; stroke-linecap: round"/>
     </g>
     <g id="line2d_12"/>
     <g id="text_6">
      <!-- reunião -->
      <g style="fill: #262626" transform="translate(270.395263 220.93511) rotate(-30) scale(0.11 -0.11)">
       <defs>
        <path id="LiberationSans-a5" d="M 1294 -63 
Q 784 -63 528 206 
Q 272 475 272 944 
Q 272 1469 617 1750 
Q 963 2031 1731 2050 
L 2491 2063 
L 2491 2247 
Q 2491 2659 2316 2837 
Q 2141 3016 1766 3016 
Q 1388 3016 1216 2887 
Q 1044 2759 1009 2478 
L 422 2531 
Q 566 3444 1778 3444 
Q 2416 3444 2737 3151 
Q 3059 2859 3059 2306 
L 3059 850 
Q 3059 600 3125 473 
Q 3191 347 3375 347 
Q 3456 347 3559 369 
L 3559 19 
Q 3347 -31 3125 -31 
Q 2813 -31 2670 133 
Q 2528 297 2509 647 
L 2491 647 
Q 2275 259 1989 98 
Q 1703 -63 1294 -63 
z
M 1422 359 
Q 1731 359 1972 500 
Q 2213 641 2352 886 
Q 2491 1131 2491 1391 
L 2491 1669 
L 1875 1656 
Q 1478 1650 1273 1575 
Q 1069 1500 959 1344 
Q 850 1188 850 934 
Q 850 659 998 509 
Q 1147 359 1422 359 
z
M 2304 3753 
Q 2172 3753 2041 3811 
Q 1910 3869 1788 3939 
Q 1666 4009 1555 4067 
Q 1444 4125 1347 4125 
Q 1175 4125 1091 4028 
Q 1007 3931 979 3753 
L 694 3753 
Q 728 4072 803 4236 
Q 879 4400 1005 4495 
Q 1132 4591 1329 4591 
Q 1466 4591 1597 4533 
Q 1729 4475 1850 4404 
Q 1972 4334 2080 4276 
Q 2188 4219 2282 4219 
Q 2594 4219 2647 4591 
L 2935 4591 
Q 2882 4128 2725 3940 
Q 2569 3753 2304 3753 
z
" transform="scale(0.015625)"/>
       </defs>
       <use xlink:href="#LiberationSans-55"/>
       <use xlink:href="#LiberationSans-48" transform="translate(33.296875 0)"/>
       <use xlink:href="#LiberationSans-58" transform="translate(88.90625 0)"/>
       <use xlink:href="#LiberationSans-51" transform="translate(144.515625 0)"/>
       <use xlink:href="#LiberationSans-4c" transform="translate(200.125 0)"/>
       <use xlink:href="#LiberationSans-a5" transform="translate(222.34375 0)"/>
       <use xlink:href="#LiberationSans-52" transform="translate(277.953125 0)"/>
      </g>
     </g>
    </g>
    <g id="xtick_7">
     <g id="line2d_13">
      <path d="M 349.143637 192.153781 
L 349.143637 21.936328 
" clip-path="url(#pb05ec8827b)" style="fill: none; stroke: #cccccc; stroke-width: 0.8; stroke-linecap: round"/>
     </g>
     <g id="line2d_14"/>
     <g id="text_7">
      <!-- prazo -->
      <g style="fill: #262626" transform="translate(324.15856 216.346047) rotate(-30) scale(0.11 -0.11)">
       <defs>
        <path id="LiberationSans-5d" d="M 259 0 
L 259 428 
L 2150 2947 
L 366 2947 
L 366 3381 
L 2816 3381 
L 2816 2953 
L 922 434 
L 2881 434 
L 2881 0 
L 259 0 
z
" transform="scale(0.015625)"/>
       </defs>
       <use xlink:href="#LiberationSans-53"/>
       <use xlink:href="#LiberationSans-55" transform="translate(55.609375 0)"/>
       <use xlink:href="#LiberationSans-44" transform="translate(88.90625 0)"/>
       <use xlink:href="#LiberationSans-5d" transform="translate(144.515625 0)"/>
       <use xlink:href="#LiberationSans-52" transform="translate(194.515625 0)"/>
      </g>
     </g>
    </g>
    <g id="xtick_8">
     <g id="line2d_15">
      <path d="M 394.958445 192.153781 
L 394.958445 21.936328 
" clip-path="url(#pb05ec8827b)" style="fill: none; stroke: #cccccc; stroke-width: 0.8; stroke-linecap: round"/>
     </g>
     <g id="line2d_16"/>
     <g id="text_8">
      <!-- relatório -->
      <g style="fill: #262626" transform="translate(359.38729 222.537742) rotate(-30) scale(0.11 -0.11)">
       <defs>
        <path id="LiberationSans-b5" d="M 3291 1694 
Q 3291 806 2900 371 
Q 2509 -63 1766 -63 
Q 1025 -63 647 389 
Q 269 841 269 1694 
Q 269 3444 1784 3444 
Q 2559 3444 2925 3017 
Q 3291 2591 3291 1694 
z
M 2700 1694 
Q 2700 2394 2492 2711 
Q 2284 3028 1794 3028 
Q 1300 3028 1079 2704 
Q 859 2381 859 1694 
Q 859 1025 1076 689 
Q 1294 353 1759 353 
Q 2266 353 2483 678 
Q 2700 1003 2700 1694 
z
M 1347 3753 
L 1347 3816 
L 2025 4713 
L 2672 4713 
L 2672 4622 
L 1641 3753 
L 1347 3753 
z
" transform="scale(0.015625)"/>
       </defs>
       <use xlink:href="#LiberationSans-55"/>
       <use xlink:href="#LiberationSans-48" transform="translate(33.296875 0)"/>
       <use xlink:href="#LiberationSans-4f" transform="translate(88.90625 0)"/>
       <use xlink:href="#LiberationSans-44" transform="translate(111.125 0)"/>
       <use xlink:href="#LiberationSans-57" transform="translate(166.734375 0)"/>
       <use xlink:href="#LiberationSans-b5" transform="translate(194.515625 0)"/>
       <use xlink:href="#LiberationSans-55" transform="translate(250.125 0)"/>
       <use xlink:href="#LiberationSans-4c" transform="translate(283.421875 0)"/>
       <use xlink:href="#LiberationSans-52" transform="translate(305.640625 0)"/>
      </g>
     </g>
    </g>
   </g>
   <g id="matplotlib.axis_2">
    <g id="ytick_1">
     <g id="line2d_17">
      <path d="M 40.328926 192.153781 
L 428.88431 192.153781 
" clip-path="url(#pb05ec8827b)" style="fill: none; stroke: #cccccc; stroke-width: 0.8; stroke-linecap: round"/>
     </g>
     <g id="line2d_18"/>
     <g id="text_9">
      <!-- 0.0 -->
      <g style="fill: #262626" transform="translate(21.538926 196.157931) scale(0.11 -0.11)">
       <defs>
        <path id="LiberationSans-13" d="M 3309 2203 
Q 3309 1100 2920 518 
Q 2531 -63 1772 -63 
Q 1013 -63 631 515 
Q 250 1094 250 2203 
Q 250 3338 620 3903 
Q 991 4469 1791 4469 
Q 2569 4469 2939 3897 
Q 3309 3325 3309 2203 
z
M 2738 2203 
Q 2738 3156 2517 3584 
Q 2297 4013 1791 4013 
Q 1272 4013 1045 3591 
Q 819 3169 819 2203 
Q 819 1266 1048 831 
Q 1278 397 1778 397 
Q 2275 397 2506 840 
Q 2738 1284 2738 2203 
z
" transform="scale(0.015625)"/>
        <path id="LiberationSans-11" d="M 584 0 
L 584 684 
L 1194 684 
L 1194 0 
L 584 0 
z
" transform="scale(0.015625)"/>
       </defs>
       <use xlink:href="#LiberationSans-13"/>
       <use xlink:href="#LiberationSans-11" transform="translate(55.609375 0)"/>
       <use xlink:href="#LiberationSans-13" transform="translate(83.390625 0)"/>
      </g>
     </g>
    </g>
    <g id="ytick_2">
     <g id="line2d_19">
      <path d="M 40.328926 153.819094 
L 428.88431 153.819094 
" clip-path="url(#pb05ec8827b)" style="fill: none; stroke: #cccccc; stroke-width: 0.8; stroke-linecap: round"/>
     </g>
     <g id="line2d_20"/>
     <g id="text_10">
      <!-- 0.2 -->
      <g style="fill: #262626" transform="translate(21.538926 157.823244) scale(0.11 -0.11)">
       <defs>
        <path id="LiberationSans-15" d="M 322 0 
L 322 397 
Q 481 763 711 1042 
Q 941 1322 1194 1548 
Q 1447 1775 1695 1969 
Q 1944 2163 2144 2356 
Q 2344 2550 2467 2762 
Q 2591 2975 2591 3244 
Q 2591 3606 2378 3806 
Q 2166 4006 1788 4006 
Q 1428 4006 1195 3811 
Q 963 3616 922 3263 
L 347 3316 
Q 409 3844 795 4156 
Q 1181 4469 1788 4469 
Q 2453 4469 2811 4155 
Q 3169 3841 3169 3263 
Q 3169 3006 3051 2753 
Q 2934 2500 2703 2247 
Q 2472 1994 1819 1463 
Q 1459 1169 1246 933 
Q 1034 697 941 478 
L 3238 478 
L 3238 0 
L 322 0 
z
" transform="scale(0.015625)"/>
       </defs>
       <use xlink:href="#LiberationSans-13"/>
       <use xlink:href="#LiberationSans-11" transform="translate(55.609375 0)"/>
       <use xlink:href="#LiberationSans-15" transform="translate(83.390625 0)"/>
      </g>
     </g>
    </g>
    <g id="ytick_3">
     <g id="line2d_21">
      <path d="M 40.328926 115.484407 
L 428.88431 115.484407 
" clip-path="url(#pb05ec8827b)" style="fill: none; stroke: #cccccc; stroke-width: 0.8; stroke-linecap: round"/>
     </g>
     <g id="line2d_22"/>
     <g id="text_11">
      <!-- 0.4 -->
      <g style="fill: #262626" transform="translate(21.538926 119.488557) scale(0.11 -0.11)">
       <defs>
        <path id="LiberationSans-17" d="M 2753 997 
L 2753 0 
L 2222 0 
L 2222 997 
L 147 997 
L 147 1434 
L 2163 4403 
L 2753 4403 
L 2753 1441 
L 3372 1441 
L 3372 997 
L 2753 997 
z
M 2222 3769 
Q 2216 3750 2134 3603 
Q 2053 3456 2013 3397 
L 884 1734 
L 716 1503 
L 666 1441 
L 2222 1441 
L 2222 3769 
z
" transform="scale(0.015625)"/>
       </defs>
       <use xlink:href="#LiberationSans-13"/>
       <use xlink:href="#LiberationSans-11" transform="translate(55.609375 0)"/>
       <use xlink:href="#LiberationSans-17" transform="translate(83.390625 0)"/>
      </g>
     </g>
    </g>
    <g id="ytick_4">
     <g id="line2d_23">
      <path d="M 40.328926 77.14972 
L 428.88431 77.14972 
" clip-path="url(#pb05ec8827b)" style="fill: none; stroke: #cccccc; stroke-width: 0.8; stroke-linecap: round"/>
     </g>
     <g id="line2d_24"/>
     <g id="text_12">
      <!-- 0.6 -->
      <g style="fill: #262626" transform="translate(21.538926 81.153871) scale(0.11 -0.11)">
       <defs>
        <path id="LiberationSans-19" d="M 3278 1441 
Q 3278 744 2900 340 
Q 2522 -63 1856 -63 
Q 1113 -63 719 490 
Q 325 1044 325 2100 
Q 325 3244 734 3856 
Q 1144 4469 1900 4469 
Q 2897 4469 3156 3572 
L 2619 3475 
Q 2453 4013 1894 4013 
Q 1413 4013 1148 3564 
Q 884 3116 884 2266 
Q 1038 2550 1316 2698 
Q 1594 2847 1953 2847 
Q 2563 2847 2920 2465 
Q 3278 2084 3278 1441 
z
M 2706 1416 
Q 2706 1894 2472 2153 
Q 2238 2413 1819 2413 
Q 1425 2413 1183 2183 
Q 941 1953 941 1550 
Q 941 1041 1192 716 
Q 1444 391 1838 391 
Q 2244 391 2475 664 
Q 2706 938 2706 1416 
z
" transform="scale(0.015625)"/>
       </defs>
       <use xlink:href="#LiberationSans-13"/>
       <use xlink:href="#LiberationSans-11" transform="translate(55.609375 0)"/>
       <use xlink:href="#LiberationSans-19" transform="translate(83.390625 0)"/>
      </g>
     </g>
    </g>
    <g id="ytick_5">
     <g id="line2d_25">
      <path d="M 40.328926 38.815033 
L 428.88431 38.815033 
" clip-path="url(#pb05ec8827b)" style="fill: none; stroke: #cccccc; stroke-width: 0.8; stroke-linecap: round"/>
     </g>
     <g id="line2d_26"/>
     <g id="text_13">
      <!-- 0.8 -->
      <g style="fill: #262626" transform="translate(21.538926 42.819184) scale(0.11 -0.11)">
       <defs>
        <path id="LiberationSans-1b" d="M 3281 1228 
Q 3281 619 2893 278 
Q 2506 -63 1781 -63 
Q 1075 -63 676 271 
Q 278 606 278 1222 
Q 278 1653 525 1947 
Q 772 2241 1156 2303 
L 1156 2316 
Q 797 2400 589 2681 
Q 381 2963 381 3341 
Q 381 3844 757 4156 
Q 1134 4469 1769 4469 
Q 2419 4469 2795 4162 
Q 3172 3856 3172 3334 
Q 3172 2956 2962 2675 
Q 2753 2394 2391 2322 
L 2391 2309 
Q 2813 2241 3047 1952 
Q 3281 1663 3281 1228 
z
M 2588 3303 
Q 2588 4050 1769 4050 
Q 1372 4050 1164 3862 
Q 956 3675 956 3303 
Q 956 2925 1170 2726 
Q 1384 2528 1775 2528 
Q 2172 2528 2380 2711 
Q 2588 2894 2588 3303 
z
M 2697 1281 
Q 2697 1691 2453 1898 
Q 2209 2106 1769 2106 
Q 1341 2106 1100 1882 
Q 859 1659 859 1269 
Q 859 359 1788 359 
Q 2247 359 2472 579 
Q 2697 800 2697 1281 
z
" transform="scale(0.015625)"/>
       </defs>
       <use xlink:href="#LiberationSans-13"/>
       <use xlink:href="#LiberationSans-11" transform="translate(55.609375 0)"/>
       <use xlink:href="#LiberationSans-1b" transform="translate(83.390625 0)"/>
      </g>
     </g>
    </g>
    <g id="text_14">
     <!-- probabilidade estimada de presença -->
     <g style="fill: #262626" transform="translate(15.208301 195.709351) rotate(-90) scale(0.11 -0.11)">
      <defs>
       <path id="LiberationSans-45" d="M 3291 1706 
Q 3291 -63 2047 -63 
Q 1663 -63 1408 76 
Q 1153 216 994 525 
L 988 525 
Q 988 428 975 229 
Q 963 31 956 0 
L 413 0 
Q 431 169 431 697 
L 431 4638 
L 994 4638 
L 994 3316 
Q 994 3113 981 2838 
L 994 2838 
Q 1150 3163 1408 3303 
Q 1666 3444 2047 3444 
Q 2688 3444 2989 3012 
Q 3291 2581 3291 1706 
z
M 2700 1688 
Q 2700 2397 2512 2703 
Q 2325 3009 1903 3009 
Q 1428 3009 1211 2684 
Q 994 2359 994 1653 
Q 994 988 1206 670 
Q 1419 353 1897 353 
Q 2322 353 2511 667 
Q 2700 981 2700 1688 
z
" transform="scale(0.015625)"/>
       <path id="LiberationSans-3" transform="scale(0.015625)"/>
       <path id="LiberationSans-a9" d="M 859 1706 
Q 859 1031 1071 706 
Q 1284 381 1713 381 
Q 2013 381 2214 543 
Q 2416 706 2463 1044 
L 3031 1006 
Q 2966 519 2616 228 
Q 2266 -63 1728 -63 
Q 1019 -63 645 385 
Q 272 834 272 1694 
Q 272 2547 647 2995 
Q 1022 3444 1722 3444 
Q 2241 3444 2583 3175 
Q 2925 2906 3013 2434 
L 2434 2391 
Q 2391 2672 2212 2837 
Q 2034 3003 1706 3003 
Q 1259 3003 1059 2706 
Q 859 2409 859 1706 
z
M 2347 -791 
Q 2347 -1356 1491 -1356 
Q 1313 -1356 1210 -1344 
L 1210 -1038 
Q 1363 -1056 1479 -1056 
Q 1938 -1056 1938 -803 
Q 1938 -563 1522 -563 
Q 1388 -563 1344 -569 
L 1547 0 
L 1882 0 
L 1760 -313 
Q 2054 -322 2200 -448 
Q 2347 -575 2347 -791 
z
" transform="scale(0.015625)"/>
      </defs>
      <use xlink:href="#LiberationSans-53"/>
      <use xlink:href="#LiberationSans-55" transform="translate(55.609375 0)"/>
      <use xlink:href="#LiberationSans-52" transform="translate(88.90625 0)"/>
      <use xlink:href="#LiberationSans-45" transform="translate(144.515625 0)"/>
      <use xlink:href="#LiberationSans-44" transform="translate(200.125 0)"/>
      <use xlink:href="#LiberationSans-45" transform="translate(255.734375 0)"/>
      <use xlink:href="#LiberationSans-4c" transform="translate(311.34375 0)"/>
      <use xlink:href="#LiberationSans-4f" transform="translate(333.5625 0)"/>
      <use xlink:href="#LiberationSans-4c" transform="translate(355.78125 0)"/>
      <use xlink:href="#LiberationSans-47" transform="translate(378 0)"/>
      <use xlink:href="#LiberationSans-44" transform="translate(433.609375 0)"/>
      <use xlink:href="#LiberationSans-47" transform="translate(489.21875 0)"/>
      <use xlink:href="#LiberationSans-48" transform="translate(544.828125 0)"/>
      <use xlink:href="#LiberationSans-3" transform="translate(600.4375 0)"/>
      <use xlink:href="#LiberationSans-48" transform="translate(628.21875 0)"/>
      <use xlink:href="#LiberationSans-56" transform="translate(683.828125 0)"/>
      <use xlink:href="#LiberationSans-57" transform="translate(733.828125 0)"/>
      <use xlink:href="#LiberationSans-4c" transform="translate(761.609375 0)"/>
      <use xlink:href="#LiberationSans-50" transform="translate(783.828125 0)"/>
      <use xlink:href="#LiberationSans-44" transform="translate(867.125 0)"/>
      <use xlink:href="#LiberationSans-47" transform="translate(922.734375 0)"/>
      <use xlink:href="#LiberationSans-44" transform="translate(978.34375 0)"/>
      <use xlink:href="#LiberationSans-3" transform="translate(1033.953125 0)"/>
      <use xlink:href="#LiberationSans-47" transform="translate(1061.734375 0)"/>
      <use xlink:href="#LiberationSans-48" transform="translate(1117.34375 0)"/>
      <use xlink:href="#LiberationSans-3" transform="translate(1172.953125 0)"/>
      <use xlink:href="#LiberationSans-53" transform="translate(1200.734375 0)"/>
      <use xlink:href="#LiberationSans-55" transform="translate(1256.34375 0)"/>
      <use xlink:href="#LiberationSans-48" transform="translate(1289.640625 0)"/>
      <use xlink:href="#LiberationSans-56" transform="translate(1345.25 0)"/>
      <use xlink:href="#LiberationSans-48" transform="translate(1395.25 0)"/>
      <use xlink:href="#LiberationSans-51" transform="translate(1450.859375 0)"/>
      <use xlink:href="#LiberationSans-a9" transform="translate(1506.46875 0)"/>
      <use xlink:href="#LiberationSans-44" transform="translate(1556.46875 0)"/>
     </g>
    </g>
   </g>
   <g id="patch_3">
    <path d="M 57.990534 192.153781 
L 74.025717 192.153781 
L 74.025717 30.041921 
L 57.990534 30.041921 
z
" clip-path="url(#pb05ec8827b)" style="fill: #c0392b; opacity: 0.85"/>
   </g>
   <g id="patch_4">
    <path d="M 103.805342 192.153781 
L 119.840525 192.153781 
L 119.840525 43.39231 
L 103.805342 43.39231 
z
" clip-path="url(#pb05ec8827b)" style="fill: #c0392b; opacity: 0.85"/>
   </g>
   <g id="patch_5">
    <path d="M 149.62015 192.153781 
L 165.655332 192.153781 
L 165.655332 82.966675 
L 149.62015 82.966675 
z
" clip-path="url(#pb05ec8827b)" style="fill: #c0392b; opacity: 0.85"/>
   </g>
   <g id="patch_6">
    <path d="M 195.434957 192.153781 
L 211.47014 192.153781 
L 211.47014 67.232289 
L 195.434957 67.232289 
z
" clip-path="url(#pb05ec8827b)" style="fill: #c0392b; opacity: 0.85"/>
   </g>
   <g id="patch_7">
    <path d="M 241.249765 192.153781 
L 257.284948 192.153781 
L 257.284948 85.350673 
L 241.249765 85.350673 
z
" clip-path="url(#pb05ec8827b)" style="fill: #c0392b; opacity: 0.85"/>
   </g>
   <g id="patch_8">
    <path d="M 287.064573 192.153781 
L 303.099756 192.153781 
L 303.099756 185.478586 
L 287.064573 185.478586 
z
" clip-path="url(#pb05ec8827b)" style="fill: #c0392b; opacity: 0.85"/>
   </g>
   <g id="patch_9">
    <path d="M 332.879381 192.153781 
L 348.914563 192.153781 
L 348.914563 183.571388 
L 332.879381 183.571388 
z
" clip-path="url(#pb05ec8827b)" style="fill: #c0392b; opacity: 0.85"/>
   </g>
   <g id="patch_10">
    <path d="M 378.694188 192.153781 
L 394.729371 192.153781 
L 394.729371 186.432186 
L 378.694188 186.432186 
z
" clip-path="url(#pb05ec8827b)" style="fill: #c0392b; opacity: 0.85"/>
   </g>
   <g id="patch_11">
    <path d="M 74.483865 192.153781 
L 90.519048 192.153781 
L 90.519048 184.19392 
L 74.483865 184.19392 
z
" clip-path="url(#pb05ec8827b)" style="fill: #2471a3; opacity: 0.85"/>
   </g>
   <g id="patch_12">
    <path d="M 120.298673 192.153781 
L 136.333855 192.153781 
L 136.333855 182.920343 
L 120.298673 182.920343 
z
" clip-path="url(#pb05ec8827b)" style="fill: #2471a3; opacity: 0.85"/>
   </g>
   <g id="patch_13">
    <path d="M 166.11348 192.153781 
L 182.148663 192.153781 
L 182.148663 173.686905 
L 166.11348 173.686905 
z
" clip-path="url(#pb05ec8827b)" style="fill: #2471a3; opacity: 0.85"/>
   </g>
   <g id="patch_14">
    <path d="M 211.928288 192.153781 
L 227.963471 192.153781 
L 227.963471 181.646765 
L 211.928288 181.646765 
z
" clip-path="url(#pb05ec8827b)" style="fill: #2471a3; opacity: 0.85"/>
   </g>
   <g id="patch_15">
    <path d="M 257.743096 192.153781 
L 273.778279 192.153781 
L 273.778279 188.333048 
L 257.743096 188.333048 
z
" clip-path="url(#pb05ec8827b)" style="fill: #2471a3; opacity: 0.85"/>
   </g>
   <g id="patch_16">
    <path d="M 303.557904 192.153781 
L 319.593086 192.153781 
L 319.593086 96.317064 
L 303.557904 96.317064 
z
" clip-path="url(#pb05ec8827b)" style="fill: #2471a3; opacity: 0.85"/>
   </g>
   <g id="patch_17">
    <path d="M 349.372712 192.153781 
L 365.407894 192.153781 
L 365.407894 74.347849 
L 349.372712 74.347849 
z
" clip-path="url(#pb05ec8827b)" style="fill: #2471a3; opacity: 0.85"/>
   </g>
   <g id="patch_18">
    <path d="M 395.187519 192.153781 
L 411.222702 192.153781 
L 411.222702 93.13312 
L 395.187519 93.13312 
z
" clip-path="url(#pb05ec8827b)" style="fill: #2471a3; opacity: 0.85"/>
   </g>
   <g id="patch_19">
    <path d="M 40.328926 192.153781 
L 40.328926 21.936328 
" style="fill: none; stroke: #cccccc; stroke-linejoin: miter; stroke-linecap: square"/>
   </g>
   <g id="patch_20">
    <path d="M 428.88431 192.153781 
L 428.88431 21.936328 
" style="fill: none; stroke: #cccccc; stroke-linejoin: miter; stroke-linecap: square"/>
   </g>
   <g id="patch_21">
    <path d="M 40.328926 192.153781 
L 428.88431 192.153781 
" style="fill: none; stroke: #cccccc; stroke-linejoin: miter; stroke-linecap: square"/>
   </g>
   <g id="patch_22">
    <path d="M 40.328926 21.936328 
L 428.88431 21.936328 
" style="fill: none; stroke: #cccccc; stroke-linejoin: miter; stroke-linecap: square"/>
   </g>
   <g id="text_15">
    <!-- Probabilidades ajustadas por palavra e por classe -->
    <g style="fill: #262626" transform="translate(91.891931 15.936328) scale(0.12 -0.12)">
     <defs>
      <path id="LiberationSans-Bold-33" d="M 4050 3009 
Q 4050 2584 3856 2250 
Q 3663 1916 3302 1733 
Q 2941 1550 2444 1550 
L 1350 1550 
L 1350 0 
L 428 0 
L 428 4403 
L 2406 4403 
Q 3197 4403 3623 4039 
Q 4050 3675 4050 3009 
z
M 3122 2994 
Q 3122 3688 2303 3688 
L 1350 3688 
L 1350 2259 
L 2328 2259 
Q 2709 2259 2915 2448 
Q 3122 2638 3122 2994 
z
" transform="scale(0.015625)"/>
      <path id="LiberationSans-Bold-55" d="M 447 0 
L 447 2588 
Q 447 2866 439 3052 
Q 431 3238 422 3381 
L 1259 3381 
Q 1269 3325 1284 3039 
Q 1300 2753 1300 2659 
L 1313 2659 
Q 1441 3016 1541 3161 
Q 1641 3306 1778 3376 
Q 1916 3447 2122 3447 
Q 2291 3447 2394 3400 
L 2394 2666 
Q 2181 2713 2019 2713 
Q 1691 2713 1508 2447 
Q 1325 2181 1325 1659 
L 1325 0 
L 447 0 
z
" transform="scale(0.015625)"/>
      <path id="LiberationSans-Bold-52" d="M 3659 1694 
Q 3659 872 3203 404 
Q 2747 -63 1941 -63 
Q 1150 -63 700 406 
Q 250 875 250 1694 
Q 250 2509 700 2976 
Q 1150 3444 1959 3444 
Q 2788 3444 3223 2992 
Q 3659 2541 3659 1694 
z
M 2741 1694 
Q 2741 2297 2544 2569 
Q 2347 2841 1972 2841 
Q 1172 2841 1172 1694 
Q 1172 1128 1367 833 
Q 1563 538 1931 538 
Q 2741 538 2741 1694 
z
" transform="scale(0.015625)"/>
      <path id="LiberationSans-Bold-45" d="M 3647 1703 
Q 3647 866 3311 401 
Q 2975 -63 2350 -63 
Q 1991 -63 1728 93 
Q 1466 250 1325 544 
L 1319 544 
Q 1319 434 1305 243 
Q 1291 53 1275 0 
L 422 0 
Q 447 291 447 772 
L 447 4638 
L 1325 4638 
L 1325 3344 
L 1313 2794 
L 1325 2794 
Q 1622 3444 2406 3444 
Q 3006 3444 3326 2989 
Q 3647 2534 3647 1703 
z
M 2731 1703 
Q 2731 2278 2562 2556 
Q 2394 2834 2041 2834 
Q 1684 2834 1498 2536 
Q 1313 2238 1313 1675 
Q 1313 1138 1495 838 
Q 1678 538 2034 538 
Q 2731 538 2731 1703 
z
" transform="scale(0.015625)"/>
      <path id="LiberationSans-Bold-44" d="M 1228 -63 
Q 738 -63 463 204 
Q 188 472 188 956 
Q 188 1481 530 1756 
Q 872 2031 1522 2038 
L 2250 2050 
L 2250 2222 
Q 2250 2553 2134 2714 
Q 2019 2875 1756 2875 
Q 1513 2875 1398 2764 
Q 1284 2653 1256 2397 
L 341 2441 
Q 425 2934 792 3189 
Q 1159 3444 1794 3444 
Q 2434 3444 2781 3128 
Q 3128 2813 3128 2231 
L 3128 1000 
Q 3128 716 3192 608 
Q 3256 500 3406 500 
Q 3506 500 3600 519 
L 3600 44 
Q 3522 25 3459 9 
Q 3397 -6 3334 -15 
Q 3272 -25 3201 -31 
Q 3131 -38 3038 -38 
Q 2706 -38 2548 125 
Q 2391 288 2359 603 
L 2341 603 
Q 1972 -63 1228 -63 
z
M 2250 1566 
L 1800 1559 
Q 1494 1547 1366 1492 
Q 1238 1438 1170 1325 
Q 1103 1213 1103 1025 
Q 1103 784 1214 667 
Q 1325 550 1509 550 
Q 1716 550 1886 662 
Q 2056 775 2153 973 
Q 2250 1172 2250 1394 
L 2250 1566 
z
" transform="scale(0.015625)"/>
      <path id="LiberationSans-Bold-4c" d="M 447 3991 
L 447 4638 
L 1325 4638 
L 1325 3991 
L 447 3991 
z
M 447 0 
L 447 3381 
L 1325 3381 
L 1325 0 
L 447 0 
z
" transform="scale(0.015625)"/>
      <path id="LiberationSans-Bold-4f" d="M 447 0 
L 447 4638 
L 1325 4638 
L 1325 0 
L 447 0 
z
" transform="scale(0.015625)"/>
      <path id="LiberationSans-Bold-47" d="M 2638 0 
Q 2625 47 2608 236 
Q 2591 425 2591 550 
L 2578 550 
Q 2294 -63 1497 -63 
Q 906 -63 584 398 
Q 263 859 263 1688 
Q 263 2528 602 2986 
Q 941 3444 1563 3444 
Q 1922 3444 2183 3294 
Q 2444 3144 2584 2847 
L 2591 2847 
L 2584 3403 
L 2584 4638 
L 3463 4638 
L 3463 738 
Q 3463 425 3488 0 
L 2638 0 
z
M 2597 1709 
Q 2597 2256 2414 2551 
Q 2231 2847 1875 2847 
Q 1522 2847 1350 2561 
Q 1178 2275 1178 1688 
Q 1178 538 1869 538 
Q 2216 538 2406 842 
Q 2597 1147 2597 1709 
z
" transform="scale(0.015625)"/>
      <path id="LiberationSans-Bold-48" d="M 1831 -63 
Q 1069 -63 659 389 
Q 250 841 250 1706 
Q 250 2544 665 2994 
Q 1081 3444 1844 3444 
Q 2572 3444 2956 2961 
Q 3341 2478 3341 1547 
L 3341 1522 
L 1172 1522 
Q 1172 1028 1355 776 
Q 1538 525 1875 525 
Q 2341 525 2463 928 
L 3291 856 
Q 2931 -63 1831 -63 
z
M 1831 2891 
Q 1522 2891 1355 2675 
Q 1188 2459 1178 2072 
L 2491 2072 
Q 2466 2481 2294 2686 
Q 2122 2891 1831 2891 
z
" transform="scale(0.015625)"/>
      <path id="LiberationSans-Bold-56" d="M 3297 988 
Q 3297 497 2895 217 
Q 2494 -63 1784 -63 
Q 1088 -63 717 157 
Q 347 378 225 844 
L 997 959 
Q 1063 719 1223 619 
Q 1384 519 1784 519 
Q 2153 519 2322 612 
Q 2491 706 2491 906 
Q 2491 1069 2355 1164 
Q 2219 1259 1894 1325 
Q 1150 1472 890 1598 
Q 631 1725 495 1926 
Q 359 2128 359 2422 
Q 359 2906 732 3176 
Q 1106 3447 1791 3447 
Q 2394 3447 2761 3212 
Q 3128 2978 3219 2534 
L 2441 2453 
Q 2403 2659 2256 2761 
Q 2109 2863 1791 2863 
Q 1478 2863 1322 2783 
Q 1166 2703 1166 2516 
Q 1166 2369 1286 2283 
Q 1406 2197 1691 2141 
Q 2088 2059 2395 1973 
Q 2703 1888 2889 1769 
Q 3075 1650 3186 1464 
Q 3297 1278 3297 988 
z
" transform="scale(0.015625)"/>
      <path id="LiberationSans-Bold-3" transform="scale(0.015625)"/>
      <path id="LiberationSans-Bold-4d" d="M 450 3991 
L 450 4638 
L 1328 4638 
L 1328 3991 
L 450 3991 
z
M 431 -1328 
Q 119 -1328 -100 -1300 
L -100 -681 
L 59 -694 
Q 284 -694 367 -595 
Q 450 -497 450 -188 
L 450 3381 
L 1328 3381 
L 1328 -400 
Q 1328 -847 1101 -1087 
Q 875 -1328 431 -1328 
z
" transform="scale(0.015625)"/>
      <path id="LiberationSans-Bold-58" d="M 1275 3381 
L 1275 1484 
Q 1275 594 1875 594 
Q 2194 594 2389 867 
Q 2584 1141 2584 1569 
L 2584 3381 
L 3463 3381 
L 3463 756 
Q 3463 325 3488 0 
L 2650 0 
Q 2613 450 2613 672 
L 2597 672 
Q 2422 288 2151 112 
Q 1881 -63 1509 -63 
Q 972 -63 684 267 
Q 397 597 397 1234 
L 397 3381 
L 1275 3381 
z
" transform="scale(0.015625)"/>
      <path id="LiberationSans-Bold-57" d="M 1313 -56 
Q 925 -56 715 155 
Q 506 366 506 794 
L 506 2788 
L 78 2788 
L 78 3381 
L 550 3381 
L 825 4175 
L 1375 4175 
L 1375 3381 
L 2016 3381 
L 2016 2788 
L 1375 2788 
L 1375 1031 
Q 1375 784 1469 667 
Q 1563 550 1759 550 
Q 1863 550 2053 594 
L 2053 50 
Q 1728 -56 1313 -56 
z
" transform="scale(0.015625)"/>
      <path id="LiberationSans-Bold-53" d="M 3647 1706 
Q 3647 859 3308 398 
Q 2969 -63 2350 -63 
Q 1994 -63 1730 92 
Q 1466 247 1325 538 
L 1306 538 
Q 1325 444 1325 -31 
L 1325 -1328 
L 447 -1328 
L 447 2603 
Q 447 3081 422 3381 
L 1275 3381 
Q 1291 3325 1302 3159 
Q 1313 2994 1313 2831 
L 1325 2831 
Q 1622 3453 2406 3453 
Q 2997 3453 3322 2998 
Q 3647 2544 3647 1706 
z
M 2731 1706 
Q 2731 2844 2034 2844 
Q 1684 2844 1498 2537 
Q 1313 2231 1313 1681 
Q 1313 1134 1498 836 
Q 1684 538 2028 538 
Q 2731 538 2731 1706 
z
" transform="scale(0.015625)"/>
      <path id="LiberationSans-Bold-59" d="M 2284 0 
L 1234 0 
L 25 3381 
L 953 3381 
L 1544 1491 
Q 1591 1334 1766 709 
Q 1797 838 1894 1159 
Q 1991 1481 2613 3381 
L 3531 3381 
L 2284 0 
z
" transform="scale(0.015625)"/>
      <path id="LiberationSans-Bold-46" d="M 1856 -63 
Q 1088 -63 669 395 
Q 250 853 250 1672 
Q 250 2509 672 2976 
Q 1094 3444 1869 3444 
Q 2466 3444 2856 3144 
Q 3247 2844 3347 2316 
L 2463 2272 
Q 2425 2531 2275 2686 
Q 2125 2841 1850 2841 
Q 1172 2841 1172 1706 
Q 1172 538 1863 538 
Q 2113 538 2281 695 
Q 2450 853 2491 1166 
L 3372 1125 
Q 3325 778 3123 506 
Q 2922 234 2594 85 
Q 2266 -63 1856 -63 
z
" transform="scale(0.015625)"/>
     </defs>
     <use xlink:href="#LiberationSans-Bold-33"/>
     <use xlink:href="#LiberationSans-Bold-55" transform="translate(66.703125 0)"/>
     <use xlink:href="#LiberationSans-Bold-52" transform="translate(105.625 0)"/>
     <use xlink:href="#LiberationSans-Bold-45" transform="translate(166.703125 0)"/>
     <use xlink:href="#LiberationSans-Bold-44" transform="translate(227.78125 0)"/>
     <use xlink:href="#LiberationSans-Bold-45" transform="translate(283.390625 0)"/>
     <use xlink:href="#LiberationSans-Bold-4c" transform="translate(344.46875 0)"/>
     <use xlink:href="#LiberationSans-Bold-4f" transform="translate(372.25 0)"/>
     <use xlink:href="#LiberationSans-Bold-4c" transform="translate(400.03125 0)"/>
     <use xlink:href="#LiberationSans-Bold-47" transform="translate(427.8125 0)"/>
     <use xlink:href="#LiberationSans-Bold-44" transform="translate(488.890625 0)"/>
     <use xlink:href="#LiberationSans-Bold-47" transform="translate(544.5 0)"/>
     <use xlink:href="#LiberationSans-Bold-48" transform="translate(605.578125 0)"/>
     <use xlink:href="#LiberationSans-Bold-56" transform="translate(661.1875 0)"/>
     <use xlink:href="#LiberationSans-Bold-3" transform="translate(716.796875 0)"/>
     <use xlink:href="#LiberationSans-Bold-44" transform="translate(744.578125 0)"/>
     <use xlink:href="#LiberationSans-Bold-4d" transform="translate(800.1875 0)"/>
     <use xlink:href="#LiberationSans-Bold-58" transform="translate(827.96875 0)"/>
     <use xlink:href="#LiberationSans-Bold-56" transform="translate(889.046875 0)"/>
     <use xlink:href="#LiberationSans-Bold-57" transform="translate(944.65625 0)"/>
     <use xlink:href="#LiberationSans-Bold-44" transform="translate(977.953125 0)"/>
     <use xlink:href="#LiberationSans-Bold-47" transform="translate(1033.5625 0)"/>
     <use xlink:href="#LiberationSans-Bold-44" transform="translate(1094.640625 0)"/>
     <use xlink:href="#LiberationSans-Bold-56" transform="translate(1150.25 0)"/>
     <use xlink:href="#LiberationSans-Bold-3" transform="translate(1205.859375 0)"/>
     <use xlink:href="#LiberationSans-Bold-53" transform="translate(1233.640625 0)"/>
     <use xlink:href="#LiberationSans-Bold-52" transform="translate(1294.71875 0)"/>
     <use xlink:href="#LiberationSans-Bold-55" transform="translate(1355.796875 0)"/>
     <use xlink:href="#LiberationSans-Bold-3" transform="translate(1394.71875 0)"/>
     <use xlink:href="#LiberationSans-Bold-53" transform="translate(1422.5 0)"/>
     <use xlink:href="#LiberationSans-Bold-44" transform="translate(1483.578125 0)"/>
     <use xlink:href="#LiberationSans-Bold-4f" transform="translate(1539.1875 0)"/>
     <use xlink:href="#LiberationSans-Bold-44" transform="translate(1566.96875 0)"/>
     <use xlink:href="#LiberationSans-Bold-59" transform="translate(1622.578125 0)"/>
     <use xlink:href="#LiberationSans-Bold-55" transform="translate(1678.1875 0)"/>
     <use xlink:href="#LiberationSans-Bold-44" transform="translate(1717.109375 0)"/>
     <use xlink:href="#LiberationSans-Bold-3" transform="translate(1772.71875 0)"/>
     <use xlink:href="#LiberationSans-Bold-48" transform="translate(1800.5 0)"/>
     <use xlink:href="#LiberationSans-Bold-3" transform="translate(1856.109375 0)"/>
     <use xlink:href="#LiberationSans-Bold-53" transform="translate(1883.890625 0)"/>
     <use xlink:href="#LiberationSans-Bold-52" transform="translate(1944.96875 0)"/>
     <use xlink:href="#LiberationSans-Bold-55" transform="translate(2006.046875 0)"/>
     <use xlink:href="#LiberationSans-Bold-3" transform="translate(2044.96875 0)"/>
     <use xlink:href="#LiberationSans-Bold-46" transform="translate(2072.75 0)"/>
     <use xlink:href="#LiberationSans-Bold-4f" transform="translate(2128.359375 0)"/>
     <use xlink:href="#LiberationSans-Bold-44" transform="translate(2156.140625 0)"/>
     <use xlink:href="#LiberationSans-Bold-56" transform="translate(2211.75 0)"/>
     <use xlink:href="#LiberationSans-Bold-56" transform="translate(2267.359375 0)"/>
     <use xlink:href="#LiberationSans-Bold-48" transform="translate(2322.96875 0)"/>
    </g>
   </g>
   <g id="legend_1">
    <g id="patch_23">
     <path d="M 340.86431 62.616328 
L 422.58431 62.616328 
Q 424.38431 62.616328 424.38431 60.816328 
L 424.38431 28.236328 
Q 424.38431 26.436328 422.58431 26.436328 
L 340.86431 26.436328 
Q 339.06431 26.436328 339.06431 28.236328 
L 339.06431 60.816328 
Q 339.06431 62.616328 340.86431 62.616328 
z
" style="fill: #ffffff; opacity: 0.9; stroke: #cccccc; stroke-linejoin: miter"/>
    </g>
    <g id="patch_24">
     <path d="M 342.66431 40.296328 
L 360.66431 40.296328 
L 360.66431 33.996328 
L 342.66431 33.996328 
z
" style="fill: #c0392b; opacity: 0.85"/>
    </g>
    <g id="text_16">
     <!-- $\hat\theta$ | spam -->
     <g style="fill: #262626" transform="translate(367.86431 40.296328) scale(0.09 -0.09)">
      <defs>
       <path id="DejaVuSans-2b3" d="M -1831 5119 
L -1369 5119 
L -603 3944 
L -1038 3944 
L -1600 4709 
L -2163 3944 
L -2597 3944 
L -1831 5119 
z
M -1600 3584 
L -1600 3584 
z
" transform="scale(0.015625)"/>
       <path id="DejaVuSans-Oblique-34c" d="M 2913 2219 
L 925 2219 
Q 791 1284 928 888 
Q 1100 400 1566 400 
Q 2034 400 2391 891 
Q 2703 1322 2913 2219 
z
M 3009 2750 
Q 3094 3638 2984 3950 
Q 2813 4444 2353 4444 
Q 1875 4444 1525 3956 
Q 1250 3563 1034 2750 
L 3009 2750 
z
M 2444 4913 
Q 3194 4913 3494 4250 
Q 3794 3591 3566 2422 
Q 3341 1256 2781 594 
Q 2225 -72 1475 -72 
Q 722 -72 425 594 
Q 128 1256 353 2422 
Q 581 3591 1134 4250 
Q 1691 4913 2444 4913 
z
" transform="scale(0.015625)"/>
       <path id="LiberationSans-5f" d="M 572 -1356 
L 572 4638 
L 1091 4638 
L 1091 -1356 
L 572 -1356 
z
" transform="scale(0.015625)"/>
      </defs>
      <use xlink:href="#DejaVuSans-2b3" transform="translate(60.898438 34.015625)"/>
      <use xlink:href="#DejaVuSans-Oblique-34c" transform="translate(0 0.75)"/>
      <use xlink:href="#LiberationSans-3" transform="translate(61.181641 0.75)"/>
      <use xlink:href="#LiberationSans-5f" transform="translate(88.964844 0.75)"/>
      <use xlink:href="#LiberationSans-3" transform="translate(114.941406 0.75)"/>
      <use xlink:href="#LiberationSans-56" transform="translate(142.724609 0.75)"/>
      <use xlink:href="#LiberationSans-53" transform="translate(192.724609 0.75)"/>
      <use xlink:href="#LiberationSans-44" transform="translate(248.339844 0.75)"/>
      <use xlink:href="#LiberationSans-50" transform="translate(303.955078 0.75)"/>
     </g>
    </g>
    <g id="patch_25">
     <path d="M 342.66431 57.036328 
L 360.66431 57.036328 
L 360.66431 50.736328 
L 342.66431 50.736328 
z
" style="fill: #2471a3; opacity: 0.85"/>
    </g>
    <g id="text_17">
     <!-- $\hat\theta$ | não-spam -->
     <g style="fill: #262626" transform="translate(367.86431 57.036328) scale(0.09 -0.09)">
      <defs>
       <path id="LiberationSans-10" d="M 284 1450 
L 284 1950 
L 1847 1950 
L 1847 1450 
L 284 1450 
z
" transform="scale(0.015625)"/>
      </defs>
      <use xlink:href="#DejaVuSans-2b3" transform="translate(60.898438 34.015625)"/>
      <use xlink:href="#DejaVuSans-Oblique-34c" transform="translate(0 0.75)"/>
      <use xlink:href="#LiberationSans-3" transform="translate(61.181641 0.75)"/>
      <use xlink:href="#LiberationSans-5f" transform="translate(88.964844 0.75)"/>
      <use xlink:href="#LiberationSans-3" transform="translate(114.941406 0.75)"/>
      <use xlink:href="#LiberationSans-51" transform="translate(142.724609 0.75)"/>
      <use xlink:href="#LiberationSans-a5" transform="translate(198.339844 0.75)"/>
      <use xlink:href="#LiberationSans-52" transform="translate(253.955078 0.75)"/>
      <use xlink:href="#LiberationSans-10" transform="translate(309.570312 0.75)"/>
      <use xlink:href="#LiberationSans-56" transform="translate(342.871094 0.75)"/>
      <use xlink:href="#LiberationSans-53" transform="translate(392.871094 0.75)"/>
      <use xlink:href="#LiberationSans-44" transform="translate(448.486328 0.75)"/>
      <use xlink:href="#LiberationSans-50" transform="translate(504.101562 0.75)"/>
     </g>
    </g>
   </g>
  </g>
 </g>
 <defs>
  <clipPath id="pb05ec8827b">
   <rect x="40.328926" y="21.936328" width="388.555385" height="170.217452"/>
  </clipPath>
 </defs>
</svg>
