<?xml version="1.0" encoding="utf-8" standalone="no"?>
<!DOCTYPE svg PUBLIC "-//W3C//DTD SVG 1.1//EN"
  "http://www.w3.org/Graphics/SVG/1.1/DTD/svg11.dtd">
<svg xmlns:xlink="http://www.w3.org/1999/xlink" width="422.122916pt" height="248.907692pt" viewBox="0 0 422.122916 248.907692" xmlns="http://www.w3.org/2000/svg" version="1.1">
 <metadata>
  <rdf:RDF xmlns:dc="http://purl.org/dc/elements/1.1/" xmlns:cc="http://creativecommons.org/ns#" xmlns:rdf="http://www.w3.org/1999/02/22-rdf-syntax-ns#">
   <cc:Work>
    <dc:type rdf:resource="http://purl.org/dc/dcmitype/StillImage"/>
    <dc:date>2026-08-19T16:53:41.614073</dc:date>
    <dc:format>image/svg+xml</dc:format>
    <dc:creator>
     <cc:Agent>
      <dc:title>Matplotlib v3.11.1, https://matplotlib.org/</dc:title>
     </cc:Agent>
    </dc:creator>
   </cc:Work>
  </rdf:RDF>
 </metadata>
 <defs>
  <style type="text/css">*{stroke-linejoin: round; stroke-linecap: butt}</style>
 </defs>
 <g id="figure_1">
  <g id="patch_1">
   <path d="M 0 248.907692 
L 422.122916 248.907692 
L 422.122916 0 
L 0 0 
z
" style="fill: #ffffff"/>
  </g>
  <g id="axes_1">
   <g id="patch_2">
    <path d="M 40.313242 213.32445 
L 414.922916 213.32445 
L 414.922916 22.2 
L 40.313242 22.2 
z
" style="fill: #ffffff"/>
   </g>
   <g id="matplotlib.axis_1">
    <g id="xtick_1">
     <g id="line2d_1">
      <path d="M 57.306892 213.32445 
L 57.306892 22.2 
" clip-path="url(#p5c44c13f8b)" style="fill: none; stroke: #cccccc; stroke-width: 0.8; stroke-linecap: round"/>
     </g>
     <g id="line2d_2"/>
     <g id="text_1">
      <!-- 0.0 -->
      <g style="fill: #262626" transform="translate(49.661892 224.832751) scale(0.11 -0.11)">
       <defs>
        <path id="LiberationSans-13" d="M 3309 2203 
Q 3309 1100 2920 518 
Q 2531 -63 1772 -63 
Q 1013 -63 631 515 
Q 250 1094 250 2203 
Q 250 3338 620 3903 
Q 991 4469 1791 4469 
Q 2569 4469 2939 3897 
Q 3309 3325 3309 2203 
z
M 2738 2203 
Q 2738 3156 2517 3584 
Q 2297 4013 1791 4013 
Q 1272 4013 1045 3591 
Q 819 3169 819 2203 
Q 819 1266 1048 831 
Q 1278 397 1778 397 
Q 2275 397 2506 840 
Q 2738 1284 2738 2203 
z
" transform="scale(0.015625)"/>
        <path id="LiberationSans-11" d="M 584 0 
L 584 684 
L 1194 684 
L 1194 0 
L 584 0 
z
" transform="scale(0.015625)"/>
       </defs>
       <use xlink:href="#LiberationSans-13"/>
       <use xlink:href="#LiberationSans-11" transform="translate(55.609375 0)"/>
       <use xlink:href="#LiberationSans-13" transform="translate(83.390625 0)"/>
      </g>
     </g>
    </g>
    <g id="xtick_2">
     <g id="line2d_3">
      <path d="M 125.431367 213.32445 
L 125.431367 22.2 
" clip-path="url(#p5c44c13f8b)" style="fill: none; stroke: #cccccc; stroke-width: 0.8; stroke-linecap: round"/>
     </g>
     <g id="line2d_4"/>
     <g id="text_2">
      <!-- 0.2 -->
      <g style="fill: #262626" transform="translate(117.786367 224.832751) scale(0.11 -0.11)">
       <defs>
        <path id="LiberationSans-15" d="M 322 0 
L 322 397 
Q 481 763 711 1042 
Q 941 1322 1194 1548 
Q 1447 1775 1695 1969 
Q 1944 2163 2144 2356 
Q 2344 2550 2467 2762 
Q 2591 2975 2591 3244 
Q 2591 3606 2378 3806 
Q 2166 4006 1788 4006 
Q 1428 4006 1195 3811 
Q 963 3616 922 3263 
L 347 3316 
Q 409 3844 795 4156 
Q 1181 4469 1788 4469 
Q 2453 4469 2811 4155 
Q 3169 3841 3169 3263 
Q 3169 3006 3051 2753 
Q 2934 2500 2703 2247 
Q 2472 1994 1819 1463 
Q 1459 1169 1246 933 
Q 1034 697 941 478 
L 3238 478 
L 3238 0 
L 322 0 
z
" transform="scale(0.015625)"/>
       </defs>
       <use xlink:href="#LiberationSans-13"/>
       <use xlink:href="#LiberationSans-11" transform="translate(55.609375 0)"/>
       <use xlink:href="#LiberationSans-15" transform="translate(83.390625 0)"/>
      </g>
     </g>
    </g>
    <g id="xtick_3">
     <g id="line2d_5">
      <path d="M 193.555842 213.32445 
L 193.555842 22.2 
" clip-path="url(#p5c44c13f8b)" style="fill: none; stroke: #cccccc; stroke-width: 0.8; stroke-linecap: round"/>
     </g>
     <g id="line2d_6"/>
     <g id="text_3">
      <!-- 0.4 -->
      <g style="fill: #262626" transform="translate(185.910842 224.832751) scale(0.11 -0.11)">
       <defs>
        <path id="LiberationSans-17" d="M 2753 997 
L 2753 0 
L 2222 0 
L 2222 997 
L 147 997 
L 147 1434 
L 2163 4403 
L 2753 4403 
L 2753 1441 
L 3372 1441 
L 3372 997 
L 2753 997 
z
M 2222 3769 
Q 2216 3750 2134 3603 
Q 2053 3456 2013 3397 
L 884 1734 
L 716 1503 
L 666 1441 
L 2222 1441 
L 2222 3769 
z
" transform="scale(0.015625)"/>
       </defs>
       <use xlink:href="#LiberationSans-13"/>
       <use xlink:href="#LiberationSans-11" transform="translate(55.609375 0)"/>
       <use xlink:href="#LiberationSans-17" transform="translate(83.390625 0)"/>
      </g>
     </g>
    </g>
    <g id="xtick_4">
     <g id="line2d_7">
      <path d="M 261.680317 213.32445 
L 261.680317 22.2 
" clip-path="url(#p5c44c13f8b)" style="fill: none; stroke: #cccccc; stroke-width: 0.8; stroke-linecap: round"/>
     </g>
     <g id="line2d_8"/>
     <g id="text_4">
      <!-- 0.6 -->
      <g style="fill: #262626" transform="translate(254.035317 224.832751) scale(0.11 -0.11)">
       <defs>
        <path id="LiberationSans-19" d="M 3278 1441 
Q 3278 744 2900 340 
Q 2522 -63 1856 -63 
Q 1113 -63 719 490 
Q 325 1044 325 2100 
Q 325 3244 734 3856 
Q 1144 4469 1900 4469 
Q 2897 4469 3156 3572 
L 2619 3475 
Q 2453 4013 1894 4013 
Q 1413 4013 1148 3564 
Q 884 3116 884 2266 
Q 1038 2550 1316 2698 
Q 1594 2847 1953 2847 
Q 2563 2847 2920 2465 
Q 3278 2084 3278 1441 
z
M 2706 1416 
Q 2706 1894 2472 2153 
Q 2238 2413 1819 2413 
Q 1425 2413 1183 2183 
Q 941 1953 941 1550 
Q 941 1041 1192 716 
Q 1444 391 1838 391 
Q 2244 391 2475 664 
Q 2706 938 2706 1416 
z
" transform="scale(0.015625)"/>
       </defs>
       <use xlink:href="#LiberationSans-13"/>
       <use xlink:href="#LiberationSans-11" transform="translate(55.609375 0)"/>
       <use xlink:href="#LiberationSans-19" transform="translate(83.390625 0)"/>
      </g>
     </g>
    </g>
    <g id="xtick_5">
     <g id="line2d_9">
      <path d="M 329.804791 213.32445 
L 329.804791 22.2 
" clip-path="url(#p5c44c13f8b)" style="fill: none; stroke: #cccccc; stroke-width: 0.8; stroke-linecap: round"/>
     </g>
     <g id="line2d_10"/>
     <g id="text_5">
      <!-- 0.8 -->
      <g style="fill: #262626" transform="translate(322.159791 224.832751) scale(0.11 -0.11)">
       <defs>
        <path id="LiberationSans-1b" d="M 3281 1228 
Q 3281 619 2893 278 
Q 2506 -63 1781 -63 
Q 1075 -63 676 271 
Q 278 606 278 1222 
Q 278 1653 525 1947 
Q 772 2241 1156 2303 
L 1156 2316 
Q 797 2400 589 2681 
Q 381 2963 381 3341 
Q 381 3844 757 4156 
Q 1134 4469 1769 4469 
Q 2419 4469 2795 4162 
Q 3172 3856 3172 3334 
Q 3172 2956 2962 2675 
Q 2753 2394 2391 2322 
L 2391 2309 
Q 2813 2241 3047 1952 
Q 3281 1663 3281 1228 
z
M 2588 3303 
Q 2588 4050 1769 4050 
Q 1372 4050 1164 3862 
Q 956 3675 956 3303 
Q 956 2925 1170 2726 
Q 1384 2528 1775 2528 
Q 2172 2528 2380 2711 
Q 2588 2894 2588 3303 
z
M 2697 1281 
Q 2697 1691 2453 1898 
Q 2209 2106 1769 2106 
Q 1341 2106 1100 1882 
Q 859 1659 859 1269 
Q 859 359 1788 359 
Q 2247 359 2472 579 
Q 2697 800 2697 1281 
z
" transform="scale(0.015625)"/>
       </defs>
       <use xlink:href="#LiberationSans-13"/>
       <use xlink:href="#LiberationSans-11" transform="translate(55.609375 0)"/>
       <use xlink:href="#LiberationSans-1b" transform="translate(83.390625 0)"/>
      </g>
     </g>
    </g>
    <g id="xtick_6">
     <g id="line2d_11">
      <path d="M 397.929266 213.32445 
L 397.929266 22.2 
" clip-path="url(#p5c44c13f8b)" style="fill: none; stroke: #cccccc; stroke-width: 0.8; stroke-linecap: round"/>
     </g>
     <g id="line2d_12"/>
     <g id="text_6">
      <!-- 1.0 -->
      <g style="fill: #262626" transform="translate(390.284266 224.832751) scale(0.11 -0.11)">
       <defs>
        <path id="LiberationSans-14" d="M 488 0 
L 488 478 
L 1609 478 
L 1609 3866 
L 616 3156 
L 616 3688 
L 1656 4403 
L 2175 4403 
L 2175 478 
L 3247 478 
L 3247 0 
L 488 0 
z
" transform="scale(0.015625)"/>
       </defs>
       <use xlink:href="#LiberationSans-14"/>
       <use xlink:href="#LiberationSans-11" transform="translate(55.609375 0)"/>
       <use xlink:href="#LiberationSans-13" transform="translate(83.390625 0)"/>
      </g>
     </g>
    </g>
    <g id="text_7">
     <!-- $p$ (proporção da classe majoritária) -->
     <g style="fill: #262626" transform="translate(142.203079 239.287692) scale(0.11 -0.11)">
      <defs>
       <path id="DejaVuSans-Oblique-53" d="M 3175 2156 
Q 3175 2616 2975 2859 
Q 2775 3103 2400 3103 
Q 2144 3103 1911 2972 
Q 1678 2841 1497 2591 
Q 1319 2344 1212 1994 
Q 1106 1644 1106 1300 
Q 1106 863 1306 627 
Q 1506 391 1875 391 
Q 2147 391 2380 519 
Q 2613 647 2778 891 
Q 2956 1147 3065 1494 
Q 3175 1841 3175 2156 
z
M 1394 2969 
Q 1625 3272 1939 3428 
Q 2253 3584 2638 3584 
Q 3175 3584 3472 3232 
Q 3769 2881 3769 2247 
Q 3769 1728 3584 1258 
Q 3400 788 3053 416 
Q 2822 169 2531 39 
Q 2241 -91 1919 -91 
Q 1547 -91 1294 64 
Q 1041 219 916 525 
L 556 -1331 
L -19 -1331 
L 922 3500 
L 1497 3500 
L 1394 2969 
z
" transform="scale(0.015625)"/>
       <path id="LiberationSans-3" transform="scale(0.015625)"/>
       <path id="LiberationSans-b" d="M 397 1663 
Q 397 2566 680 3284 
Q 963 4003 1550 4638 
L 2094 4638 
Q 1509 3988 1236 3256 
Q 963 2525 963 1656 
Q 963 791 1233 62 
Q 1503 -666 2094 -1325 
L 1550 -1325 
Q 959 -688 678 32 
Q 397 753 397 1650 
L 397 1663 
z
" transform="scale(0.015625)"/>
       <path id="LiberationSans-53" d="M 3291 1706 
Q 3291 -63 2047 -63 
Q 1266 -63 997 525 
L 981 525 
Q 994 500 994 -6 
L 994 -1328 
L 431 -1328 
L 431 2691 
Q 431 3213 413 3381 
L 956 3381 
Q 959 3369 965 3292 
Q 972 3216 980 3056 
Q 988 2897 988 2838 
L 1000 2838 
Q 1150 3150 1397 3295 
Q 1644 3441 2047 3441 
Q 2672 3441 2981 3022 
Q 3291 2603 3291 1706 
z
M 2700 1694 
Q 2700 2400 2509 2703 
Q 2319 3006 1903 3006 
Q 1569 3006 1380 2865 
Q 1191 2725 1092 2426 
Q 994 2128 994 1650 
Q 994 984 1206 668 
Q 1419 353 1897 353 
Q 2316 353 2508 661 
Q 2700 969 2700 1694 
z
" transform="scale(0.015625)"/>
       <path id="LiberationSans-55" d="M 444 0 
L 444 2594 
Q 444 2950 425 3381 
L 956 3381 
Q 981 2806 981 2691 
L 994 2691 
Q 1128 3125 1303 3284 
Q 1478 3444 1797 3444 
Q 1909 3444 2025 3413 
L 2025 2897 
Q 1913 2928 1725 2928 
Q 1375 2928 1190 2626 
Q 1006 2325 1006 1763 
L 1006 0 
L 444 0 
z
" transform="scale(0.015625)"/>
       <path id="LiberationSans-52" d="M 3291 1694 
Q 3291 806 2900 371 
Q 2509 -63 1766 -63 
Q 1025 -63 647 389 
Q 269 841 269 1694 
Q 269 3444 1784 3444 
Q 2559 3444 2925 3017 
Q 3291 2591 3291 1694 
z
M 2700 1694 
Q 2700 2394 2492 2711 
Q 2284 3028 1794 3028 
Q 1300 3028 1079 2704 
Q 859 2381 859 1694 
Q 859 1025 1076 689 
Q 1294 353 1759 353 
Q 2266 353 2483 678 
Q 2700 1003 2700 1694 
z
" transform="scale(0.015625)"/>
       <path id="LiberationSans-a9" d="M 859 1706 
Q 859 1031 1071 706 
Q 1284 381 1713 381 
Q 2013 381 2214 543 
Q 2416 706 2463 1044 
L 3031 1006 
Q 2966 519 2616 228 
Q 2266 -63 1728 -63 
Q 1019 -63 645 385 
Q 272 834 272 1694 
Q 272 2547 647 2995 
Q 1022 3444 1722 3444 
Q 2241 3444 2583 3175 
Q 2925 2906 3013 2434 
L 2434 2391 
Q 2391 2672 2212 2837 
Q 2034 3003 1706 3003 
Q 1259 3003 1059 2706 
Q 859 2409 859 1706 
z
M 2347 -791 
Q 2347 -1356 1491 -1356 
Q 1313 -1356 1210 -1344 
L 1210 -1038 
Q 1363 -1056 1479 -1056 
Q 1938 -1056 1938 -803 
Q 1938 -563 1522 -563 
Q 1388 -563 1344 -569 
L 1547 0 
L 1882 0 
L 1760 -313 
Q 2054 -322 2200 -448 
Q 2347 -575 2347 -791 
z
" transform="scale(0.015625)"/>
       <path id="LiberationSans-a5" d="M 1294 -63 
Q 784 -63 528 206 
Q 272 475 272 944 
Q 272 1469 617 1750 
Q 963 2031 1731 2050 
L 2491 2063 
L 2491 2247 
Q 2491 2659 2316 2837 
Q 2141 3016 1766 3016 
Q 1388 3016 1216 2887 
Q 1044 2759 1009 2478 
L 422 2531 
Q 566 3444 1778 3444 
Q 2416 3444 2737 3151 
Q 3059 2859 3059 2306 
L 3059 850 
Q 3059 600 3125 473 
Q 3191 347 3375 347 
Q 3456 347 3559 369 
L 3559 19 
Q 3347 -31 3125 -31 
Q 2813 -31 2670 133 
Q 2528 297 2509 647 
L 2491 647 
Q 2275 259 1989 98 
Q 1703 -63 1294 -63 
z
M 1422 359 
Q 1731 359 1972 500 
Q 2213 641 2352 886 
Q 2491 1131 2491 1391 
L 2491 1669 
L 1875 1656 
Q 1478 1650 1273 1575 
Q 1069 1500 959 1344 
Q 850 1188 850 934 
Q 850 659 998 509 
Q 1147 359 1422 359 
z
M 2304 3753 
Q 2172 3753 2041 3811 
Q 1910 3869 1788 3939 
Q 1666 4009 1555 4067 
Q 1444 4125 1347 4125 
Q 1175 4125 1091 4028 
Q 1007 3931 979 3753 
L 694 3753 
Q 728 4072 803 4236 
Q 879 4400 1005 4495 
Q 1132 4591 1329 4591 
Q 1466 4591 1597 4533 
Q 1729 4475 1850 4404 
Q 1972 4334 2080 4276 
Q 2188 4219 2282 4219 
Q 2594 4219 2647 4591 
L 2935 4591 
Q 2882 4128 2725 3940 
Q 2569 3753 2304 3753 
z
" transform="scale(0.015625)"/>
       <path id="LiberationSans-47" d="M 2566 544 
Q 2409 219 2151 78 
Q 1894 -63 1513 -63 
Q 872 -63 570 368 
Q 269 800 269 1675 
Q 269 3444 1513 3444 
Q 1897 3444 2153 3303 
Q 2409 3163 2566 2856 
L 2572 2856 
L 2566 3234 
L 2566 4638 
L 3128 4638 
L 3128 697 
Q 3128 169 3147 0 
L 2609 0 
Q 2600 50 2589 231 
Q 2578 413 2578 544 
L 2566 544 
z
M 859 1694 
Q 859 984 1046 678 
Q 1234 372 1656 372 
Q 2134 372 2350 703 
Q 2566 1034 2566 1731 
Q 2566 2403 2350 2715 
Q 2134 3028 1663 3028 
Q 1238 3028 1048 2714 
Q 859 2400 859 1694 
z
" transform="scale(0.015625)"/>
       <path id="LiberationSans-44" d="M 1294 -63 
Q 784 -63 528 206 
Q 272 475 272 944 
Q 272 1469 617 1750 
Q 963 2031 1731 2050 
L 2491 2063 
L 2491 2247 
Q 2491 2659 2316 2837 
Q 2141 3016 1766 3016 
Q 1388 3016 1216 2887 
Q 1044 2759 1009 2478 
L 422 2531 
Q 566 3444 1778 3444 
Q 2416 3444 2737 3151 
Q 3059 2859 3059 2306 
L 3059 850 
Q 3059 600 3125 473 
Q 3191 347 3375 347 
Q 3456 347 3559 369 
L 3559 19 
Q 3347 -31 3125 -31 
Q 2813 -31 2670 133 
Q 2528 297 2509 647 
L 2491 647 
Q 2275 259 1989 98 
Q 1703 -63 1294 -63 
z
M 1422 359 
Q 1731 359 1972 500 
Q 2213 641 2352 886 
Q 2491 1131 2491 1391 
L 2491 1669 
L 1875 1656 
Q 1478 1650 1273 1575 
Q 1069 1500 959 1344 
Q 850 1188 850 934 
Q 850 659 998 509 
Q 1147 359 1422 359 
z
" transform="scale(0.015625)"/>
       <path id="LiberationSans-46" d="M 859 1706 
Q 859 1031 1071 706 
Q 1284 381 1713 381 
Q 2013 381 2214 543 
Q 2416 706 2463 1044 
L 3031 1006 
Q 2966 519 2616 228 
Q 2266 -63 1728 -63 
Q 1019 -63 645 385 
Q 272 834 272 1694 
Q 272 2547 647 2995 
Q 1022 3444 1722 3444 
Q 2241 3444 2583 3175 
Q 2925 2906 3013 2434 
L 2434 2391 
Q 2391 2672 2212 2837 
Q 2034 3003 1706 3003 
Q 1259 3003 1059 2706 
Q 859 2409 859 1706 
z
" transform="scale(0.015625)"/>
       <path id="LiberationSans-4f" d="M 431 0 
L 431 4638 
L 994 4638 
L 994 0 
L 431 0 
z
" transform="scale(0.015625)"/>
       <path id="LiberationSans-56" d="M 2969 934 
Q 2969 456 2608 196 
Q 2247 -63 1597 -63 
Q 966 -63 623 145 
Q 281 353 178 794 
L 675 891 
Q 747 619 972 492 
Q 1197 366 1597 366 
Q 2025 366 2223 497 
Q 2422 628 2422 891 
Q 2422 1091 2284 1216 
Q 2147 1341 1841 1422 
L 1438 1528 
Q 953 1653 748 1773 
Q 544 1894 428 2066 
Q 313 2238 313 2488 
Q 313 2950 642 3192 
Q 972 3434 1603 3434 
Q 2163 3434 2492 3237 
Q 2822 3041 2909 2606 
L 2403 2544 
Q 2356 2769 2151 2889 
Q 1947 3009 1603 3009 
Q 1222 3009 1040 2893 
Q 859 2778 859 2544 
Q 859 2400 934 2306 
Q 1009 2213 1156 2147 
Q 1303 2081 1775 1966 
Q 2222 1853 2419 1758 
Q 2616 1663 2730 1547 
Q 2844 1431 2906 1279 
Q 2969 1128 2969 934 
z
" transform="scale(0.015625)"/>
       <path id="LiberationSans-48" d="M 863 1572 
Q 863 991 1103 675 
Q 1344 359 1806 359 
Q 2172 359 2392 506 
Q 2613 653 2691 878 
L 3184 738 
Q 2881 -63 1806 -63 
Q 1056 -63 664 384 
Q 272 831 272 1713 
Q 272 2550 664 2997 
Q 1056 3444 1784 3444 
Q 3275 3444 3275 1647 
L 3275 1572 
L 863 1572 
z
M 2694 2003 
Q 2647 2538 2422 2783 
Q 2197 3028 1775 3028 
Q 1366 3028 1127 2754 
Q 888 2481 869 2003 
L 2694 2003 
z
" transform="scale(0.015625)"/>
       <path id="LiberationSans-50" d="M 2400 0 
L 2400 2144 
Q 2400 2634 2265 2821 
Q 2131 3009 1781 3009 
Q 1422 3009 1212 2734 
Q 1003 2459 1003 1959 
L 1003 0 
L 444 0 
L 444 2659 
Q 444 3250 425 3381 
L 956 3381 
Q 959 3366 962 3297 
Q 966 3228 970 3139 
Q 975 3050 981 2803 
L 991 2803 
Q 1172 3163 1406 3303 
Q 1641 3444 1978 3444 
Q 2363 3444 2586 3291 
Q 2809 3138 2897 2803 
L 2906 2803 
Q 3081 3144 3329 3294 
Q 3578 3444 3931 3444 
Q 4444 3444 4676 3166 
Q 4909 2888 4909 2253 
L 4909 0 
L 4353 0 
L 4353 2144 
Q 4353 2634 4218 2821 
Q 4084 3009 3734 3009 
Q 3366 3009 3161 2736 
Q 2956 2463 2956 1959 
L 2956 0 
L 2400 0 
z
" transform="scale(0.015625)"/>
       <path id="LiberationSans-4d" d="M 428 4100 
L 428 4638 
L 991 4638 
L 991 4100 
L 428 4100 
z
M 991 -419 
Q 991 -897 803 -1112 
Q 616 -1328 241 -1328 
Q 0 -1328 -156 -1300 
L -156 -866 
L 38 -884 
Q 253 -884 340 -771 
Q 428 -659 428 -334 
L 428 3381 
L 991 3381 
L 991 -419 
z
" transform="scale(0.015625)"/>
       <path id="LiberationSans-4c" d="M 428 4100 
L 428 4638 
L 991 4638 
L 991 4100 
L 428 4100 
z
M 428 0 
L 428 3381 
L 991 3381 
L 991 0 
L 428 0 
z
" transform="scale(0.015625)"/>
       <path id="LiberationSans-57" d="M 1731 25 
Q 1453 -50 1163 -50 
Q 488 -50 488 716 
L 488 2972 
L 97 2972 
L 97 3381 
L 509 3381 
L 675 4138 
L 1050 4138 
L 1050 3381 
L 1675 3381 
L 1675 2972 
L 1050 2972 
L 1050 838 
Q 1050 594 1129 495 
Q 1209 397 1406 397 
Q 1519 397 1731 441 
L 1731 25 
z
" transform="scale(0.015625)"/>
       <path id="LiberationSans-a3" d="M 1294 -63 
Q 784 -63 528 206 
Q 272 475 272 944 
Q 272 1469 617 1750 
Q 963 2031 1731 2050 
L 2491 2063 
L 2491 2247 
Q 2491 2659 2316 2837 
Q 2141 3016 1766 3016 
Q 1388 3016 1216 2887 
Q 1044 2759 1009 2478 
L 422 2531 
Q 566 3444 1778 3444 
Q 2416 3444 2737 3151 
Q 3059 2859 3059 2306 
L 3059 850 
Q 3059 600 3125 473 
Q 3191 347 3375 347 
Q 3456 347 3559 369 
L 3559 19 
Q 3347 -31 3125 -31 
Q 2813 -31 2670 133 
Q 2528 297 2509 647 
L 2491 647 
Q 2275 259 1989 98 
Q 1703 -63 1294 -63 
z
M 1422 359 
Q 1731 359 1972 500 
Q 2213 641 2352 886 
Q 2491 1131 2491 1391 
L 2491 1669 
L 1875 1656 
Q 1478 1650 1273 1575 
Q 1069 1500 959 1344 
Q 850 1188 850 934 
Q 850 659 998 509 
Q 1147 359 1422 359 
z
M 1288 3753 
L 1288 3816 
L 1966 4713 
L 2613 4713 
L 2613 4622 
L 1582 3753 
L 1288 3753 
z
" transform="scale(0.015625)"/>
       <path id="LiberationSans-c" d="M 1734 1650 
Q 1734 747 1451 28 
Q 1169 -691 581 -1325 
L 38 -1325 
Q 625 -669 897 57 
Q 1169 784 1169 1656 
Q 1169 2528 895 3256 
Q 622 3984 38 4638 
L 581 4638 
Q 1172 4000 1453 3279 
Q 1734 2559 1734 1663 
L 1734 1650 
z
" transform="scale(0.015625)"/>
      </defs>
      <use xlink:href="#DejaVuSans-Oblique-53" transform="translate(0 0.359375)"/>
      <use xlink:href="#LiberationSans-3" transform="translate(63.476562 0.359375)"/>
      <use xlink:href="#LiberationSans-b" transform="translate(91.259766 0.359375)"/>
      <use xlink:href="#LiberationSans-53" transform="translate(124.560547 0.359375)"/>
      <use xlink:href="#LiberationSans-55" transform="translate(180.175781 0.359375)"/>
      <use xlink:href="#LiberationSans-52" transform="translate(213.476562 0.359375)"/>
      <use xlink:href="#LiberationSans-53" transform="translate(269.091797 0.359375)"/>
      <use xlink:href="#LiberationSans-52" transform="translate(324.707031 0.359375)"/>
      <use xlink:href="#LiberationSans-55" transform="translate(380.322266 0.359375)"/>
      <use xlink:href="#LiberationSans-a9" transform="translate(413.623047 0.359375)"/>
      <use xlink:href="#LiberationSans-a5" transform="translate(463.623047 0.359375)"/>
      <use xlink:href="#LiberationSans-52" transform="translate(519.238281 0.359375)"/>
      <use xlink:href="#LiberationSans-3" transform="translate(574.853516 0.359375)"/>
      <use xlink:href="#LiberationSans-47" transform="translate(602.636719 0.359375)"/>
      <use xlink:href="#LiberationSans-44" transform="translate(658.251953 0.359375)"/>
      <use xlink:href="#LiberationSans-3" transform="translate(713.867188 0.359375)"/>
      <use xlink:href="#LiberationSans-46" transform="translate(741.650391 0.359375)"/>
      <use xlink:href="#LiberationSans-4f" transform="translate(791.650391 0.359375)"/>
      <use xlink:href="#LiberationSans-44" transform="translate(813.867188 0.359375)"/>
      <use xlink:href="#LiberationSans-56" transform="translate(869.482422 0.359375)"/>
      <use xlink:href="#LiberationSans-56" transform="translate(919.482422 0.359375)"/>
      <use xlink:href="#LiberationSans-48" transform="translate(969.482422 0.359375)"/>
      <use xlink:href="#LiberationSans-3" transform="translate(1025.097656 0.359375)"/>
      <use xlink:href="#LiberationSans-50" transform="translate(1052.880859 0.359375)"/>
      <use xlink:href="#LiberationSans-44" transform="translate(1136.181641 0.359375)"/>
      <use xlink:href="#LiberationSans-4d" transform="translate(1191.796875 0.359375)"/>
      <use xlink:href="#LiberationSans-52" transform="translate(1214.013672 0.359375)"/>
      <use xlink:href="#LiberationSans-55" transform="translate(1269.628906 0.359375)"/>
      <use xlink:href="#LiberationSans-4c" transform="translate(1302.929688 0.359375)"/>
      <use xlink:href="#LiberationSans-57" transform="translate(1325.146484 0.359375)"/>
      <use xlink:href="#LiberationSans-a3" transform="translate(1352.929688 0.359375)"/>
      <use xlink:href="#LiberationSans-55" transform="translate(1408.544922 0.359375)"/>
      <use xlink:href="#LiberationSans-4c" transform="translate(1441.845703 0.359375)"/>
      <use xlink:href="#LiberationSans-44" transform="translate(1464.0625 0.359375)"/>
      <use xlink:href="#LiberationSans-c" transform="translate(1519.677734 0.359375)"/>
     </g>
    </g>
   </g>
   <g id="matplotlib.axis_2">
    <g id="ytick_1">
     <g id="line2d_13">
      <path d="M 40.313242 204.687118 
L 414.922916 204.687118 
" clip-path="url(#p5c44c13f8b)" style="fill: none; stroke: #cccccc; stroke-width: 0.8; stroke-linecap: round"/>
     </g>
     <g id="line2d_14"/>
     <g id="text_8">
      <!-- 0.0 -->
      <g style="fill: #262626" transform="translate(21.523242 208.691269) scale(0.11 -0.11)">
       <use xlink:href="#LiberationSans-13"/>
       <use xlink:href="#LiberationSans-11" transform="translate(55.609375 0)"/>
       <use xlink:href="#LiberationSans-13" transform="translate(83.390625 0)"/>
      </g>
     </g>
    </g>
    <g id="ytick_2">
     <g id="line2d_15">
      <path d="M 40.313242 179.612928 
L 414.922916 179.612928 
" clip-path="url(#p5c44c13f8b)" style="fill: none; stroke: #cccccc; stroke-width: 0.8; stroke-linecap: round"/>
     </g>
     <g id="line2d_16"/>
     <g id="text_9">
      <!-- 0.1 -->
      <g style="fill: #262626" transform="translate(21.523242 183.617078) scale(0.11 -0.11)">
       <use xlink:href="#LiberationSans-13"/>
       <use xlink:href="#LiberationSans-11" transform="translate(55.609375 0)"/>
       <use xlink:href="#LiberationSans-14" transform="translate(83.390625 0)"/>
      </g>
     </g>
    </g>
    <g id="ytick_3">
     <g id="line2d_17">
      <path d="M 40.313242 154.538737 
L 414.922916 154.538737 
" clip-path="url(#p5c44c13f8b)" style="fill: none; stroke: #cccccc; stroke-width: 0.8; stroke-linecap: round"/>
     </g>
     <g id="line2d_18"/>
     <g id="text_10">
      <!-- 0.2 -->
      <g style="fill: #262626" transform="translate(21.523242 158.542888) scale(0.11 -0.11)">
       <use xlink:href="#LiberationSans-13"/>
       <use xlink:href="#LiberationSans-11" transform="translate(55.609375 0)"/>
       <use xlink:href="#LiberationSans-15" transform="translate(83.390625 0)"/>
      </g>
     </g>
    </g>
    <g id="ytick_4">
     <g id="line2d_19">
      <path d="M 40.313242 129.464547 
L 414.922916 129.464547 
" clip-path="url(#p5c44c13f8b)" style="fill: none; stroke: #cccccc; stroke-width: 0.8; stroke-linecap: round"/>
     </g>
     <g id="line2d_20"/>
     <g id="text_11">
      <!-- 0.3 -->
      <g style="fill: #262626" transform="translate(21.523242 133.468697) scale(0.11 -0.11)">
       <defs>
        <path id="LiberationSans-16" d="M 3278 1216 
Q 3278 606 2890 271 
Q 2503 -63 1784 -63 
Q 1116 -63 717 239 
Q 319 541 244 1131 
L 825 1184 
Q 938 403 1784 403 
Q 2209 403 2451 612 
Q 2694 822 2694 1234 
Q 2694 1594 2417 1795 
Q 2141 1997 1619 1997 
L 1300 1997 
L 1300 2484 
L 1606 2484 
Q 2069 2484 2323 2686 
Q 2578 2888 2578 3244 
Q 2578 3597 2370 3801 
Q 2163 4006 1753 4006 
Q 1381 4006 1151 3815 
Q 922 3625 884 3278 
L 319 3322 
Q 381 3863 767 4166 
Q 1153 4469 1759 4469 
Q 2422 4469 2789 4161 
Q 3156 3853 3156 3303 
Q 3156 2881 2920 2617 
Q 2684 2353 2234 2259 
L 2234 2247 
Q 2728 2194 3003 1916 
Q 3278 1638 3278 1216 
z
" transform="scale(0.015625)"/>
       </defs>
       <use xlink:href="#LiberationSans-13"/>
       <use xlink:href="#LiberationSans-11" transform="translate(55.609375 0)"/>
       <use xlink:href="#LiberationSans-16" transform="translate(83.390625 0)"/>
      </g>
     </g>
    </g>
    <g id="ytick_5">
     <g id="line2d_21">
      <path d="M 40.313242 104.390356 
L 414.922916 104.390356 
" clip-path="url(#p5c44c13f8b)" style="fill: none; stroke: #cccccc; stroke-width: 0.8; stroke-linecap: round"/>
     </g>
     <g id="line2d_22"/>
     <g id="text_12">
      <!-- 0.4 -->
      <g style="fill: #262626" transform="translate(21.523242 108.394506) scale(0.11 -0.11)">
       <use xlink:href="#LiberationSans-13"/>
       <use xlink:href="#LiberationSans-11" transform="translate(55.609375 0)"/>
       <use xlink:href="#LiberationSans-17" transform="translate(83.390625 0)"/>
      </g>
     </g>
    </g>
    <g id="ytick_6">
     <g id="line2d_23">
      <path d="M 40.313242 79.316165 
L 414.922916 79.316165 
" clip-path="url(#p5c44c13f8b)" style="fill: none; stroke: #cccccc; stroke-width: 0.8; stroke-linecap: round"/>
     </g>
     <g id="line2d_24"/>
     <g id="text_13">
      <!-- 0.5 -->
      <g style="fill: #262626" transform="translate(21.523242 83.320316) scale(0.11 -0.11)">
       <defs>
        <path id="LiberationSans-18" d="M 3291 1434 
Q 3291 738 2877 337 
Q 2463 -63 1728 -63 
Q 1113 -63 734 206 
Q 356 475 256 984 
L 825 1050 
Q 1003 397 1741 397 
Q 2194 397 2450 670 
Q 2706 944 2706 1422 
Q 2706 1838 2448 2094 
Q 2191 2350 1753 2350 
Q 1525 2350 1328 2278 
Q 1131 2206 934 2034 
L 384 2034 
L 531 4403 
L 3034 4403 
L 3034 3925 
L 1044 3925 
L 959 2528 
Q 1325 2809 1869 2809 
Q 2519 2809 2905 2428 
Q 3291 2047 3291 1434 
z
" transform="scale(0.015625)"/>
       </defs>
       <use xlink:href="#LiberationSans-13"/>
       <use xlink:href="#LiberationSans-11" transform="translate(55.609375 0)"/>
       <use xlink:href="#LiberationSans-18" transform="translate(83.390625 0)"/>
      </g>
     </g>
    </g>
    <g id="ytick_7">
     <g id="line2d_25">
      <path d="M 40.313242 54.241975 
L 414.922916 54.241975 
" clip-path="url(#p5c44c13f8b)" style="fill: none; stroke: #cccccc; stroke-width: 0.8; stroke-linecap: round"/>
     </g>
     <g id="line2d_26"/>
     <g id="text_14">
      <!-- 0.6 -->
      <g style="fill: #262626" transform="translate(21.523242 58.246125) scale(0.11 -0.11)">
       <use xlink:href="#LiberationSans-13"/>
       <use xlink:href="#LiberationSans-11" transform="translate(55.609375 0)"/>
       <use xlink:href="#LiberationSans-19" transform="translate(83.390625 0)"/>
      </g>
     </g>
    </g>
    <g id="ytick_8">
     <g id="line2d_27">
      <path d="M 40.313242 29.167784 
L 414.922916 29.167784 
" clip-path="url(#p5c44c13f8b)" style="fill: none; stroke: #cccccc; stroke-width: 0.8; stroke-linecap: round"/>
     </g>
     <g id="line2d_28"/>
     <g id="text_15">
      <!-- 0.7 -->
      <g style="fill: #262626" transform="translate(21.523242 33.171935) scale(0.11 -0.11)">
       <defs>
        <path id="LiberationSans-1a" d="M 3238 3947 
Q 2563 2916 2284 2331 
Q 2006 1747 1867 1178 
Q 1728 609 1728 0 
L 1141 0 
Q 1141 844 1498 1776 
Q 1856 2709 2694 3925 
L 328 3925 
L 328 4403 
L 3238 4403 
L 3238 3947 
z
" transform="scale(0.015625)"/>
       </defs>
       <use xlink:href="#LiberationSans-13"/>
       <use xlink:href="#LiberationSans-11" transform="translate(55.609375 0)"/>
       <use xlink:href="#LiberationSans-1a" transform="translate(83.390625 0)"/>
      </g>
     </g>
    </g>
    <g id="text_16">
     <!-- impureza -->
     <g style="fill: #262626" transform="translate(15.208301 140.380975) rotate(-90) scale(0.11 -0.11)">
      <defs>
       <path id="LiberationSans-58" d="M 981 3381 
L 981 1238 
Q 981 903 1047 718 
Q 1113 534 1256 453 
Q 1400 372 1678 372 
Q 2084 372 2318 650 
Q 2553 928 2553 1422 
L 2553 3381 
L 3116 3381 
L 3116 722 
Q 3116 131 3134 0 
L 2603 0 
Q 2600 16 2597 84 
Q 2594 153 2589 242 
Q 2584 331 2578 578 
L 2569 578 
Q 2375 228 2120 82 
Q 1866 -63 1488 -63 
Q 931 -63 673 214 
Q 416 491 416 1128 
L 416 3381 
L 981 3381 
z
" transform="scale(0.015625)"/>
       <path id="LiberationSans-5d" d="M 259 0 
L 259 428 
L 2150 2947 
L 366 2947 
L 366 3381 
L 2816 3381 
L 2816 2953 
L 922 434 
L 2881 434 
L 2881 0 
L 259 0 
z
" transform="scale(0.015625)"/>
      </defs>
      <use xlink:href="#LiberationSans-4c"/>
      <use xlink:href="#LiberationSans-50" transform="translate(22.21875 0)"/>
      <use xlink:href="#LiberationSans-53" transform="translate(105.515625 0)"/>
      <use xlink:href="#LiberationSans-58" transform="translate(161.125 0)"/>
      <use xlink:href="#LiberationSans-55" transform="translate(216.734375 0)"/>
      <use xlink:href="#LiberationSans-48" transform="translate(250.03125 0)"/>
      <use xlink:href="#LiberationSans-5d" transform="translate(305.640625 0)"/>
      <use xlink:href="#LiberationSans-44" transform="translate(355.640625 0)"/>
     </g>
    </g>
   </g>
   <g id="line2d_29">
    <path d="M 57.340955 204.431104 
L 58.479932 198.927992 
L 60.757887 190.493963 
L 63.035842 183.277076 
L 65.313797 176.75714 
L 68.730729 167.869757 
L 72.147661 159.772463 
L 75.564593 152.285902 
L 78.981526 145.299529 
L 82.398458 138.73829 
L 86.954368 130.559438 
L 91.510277 122.947135 
L 96.066187 115.832748 
L 100.622097 109.164104 
L 105.178006 102.900254 
L 109.733916 97.008257 
L 114.289826 91.461088 
L 118.845735 86.236215 
L 123.401645 81.314608 
L 127.957555 76.680016 
L 132.513464 72.318438 
L 137.069374 68.21772 
L 141.625284 64.367243 
L 146.181194 60.75768 
L 150.737103 57.38081 
L 155.293013 54.229357 
L 159.848923 51.296869 
L 164.404832 48.577617 
L 168.960742 46.066508 
L 173.516652 43.759018 
L 178.072561 41.651133 
L 182.628471 39.7393 
L 187.184381 38.020387 
L 191.74029 36.491649 
L 196.2962 35.1507 
L 200.85211 33.995487 
L 205.408019 33.02427 
L 209.963929 32.23561 
L 214.519839 31.628349 
L 219.075749 31.201607 
L 223.631658 30.954767 
L 228.187568 30.887475 
L 232.743478 30.999635 
L 237.299387 31.291407 
L 241.855297 31.763211 
L 246.411207 32.415728 
L 250.967116 33.249908 
L 255.523026 34.266978 
L 260.078936 35.46845 
L 264.634845 36.856141 
L 269.190755 38.432185 
L 273.746665 40.199056 
L 278.302574 42.159593 
L 282.858484 44.317029 
L 287.414394 46.675028 
L 291.970303 49.237728 
L 296.526213 52.009788 
L 301.082123 54.996453 
L 305.638033 58.203625 
L 310.193942 61.637952 
L 314.749852 65.306932 
L 319.305762 69.219049 
L 323.861671 73.383931 
L 328.417581 77.812556 
L 332.973491 82.517509 
L 337.5294 87.513311 
L 342.08531 92.816852 
L 346.64122 98.447959 
L 351.197129 104.430182 
L 355.753039 110.791872 
L 360.308949 117.567742 
L 364.864858 124.801184 
L 369.420768 132.547888 
L 372.8377 138.73829 
L 376.254633 145.299529 
L 379.671565 152.285902 
L 383.088497 159.772463 
L 386.505429 167.869757 
L 389.922362 176.75714 
L 392.200317 183.277076 
L 394.478271 190.493963 
L 395.617249 194.493757 
L 396.756226 198.927992 
L 397.895204 204.431104 
L 397.895204 204.431104 
" clip-path="url(#p5c44c13f8b)" style="fill: none; stroke: #c0392b; stroke-width: 2.4; stroke-linecap: round"/>
   </g>
   <g id="line2d_30">
    <path d="M 57.340955 204.636975 
L 64.174819 194.779636 
L 71.008684 185.326011 
L 77.842548 176.2761 
L 84.676413 167.629902 
L 91.510277 159.387417 
L 98.344142 151.548646 
L 104.039029 145.324729 
L 109.733916 139.381169 
L 115.428803 133.717965 
L 121.12369 128.335118 
L 126.818577 123.232628 
L 132.513464 118.410494 
L 138.208352 113.868717 
L 143.903239 109.607296 
L 149.598126 105.626232 
L 155.293013 101.925525 
L 160.9879 98.505174 
L 166.682787 95.36518 
L 172.377674 92.505542 
L 178.072561 89.926262 
L 183.767448 87.627337 
L 189.462336 85.60877 
L 195.157223 83.870559 
L 200.85211 82.412704 
L 206.546997 81.235206 
L 212.241884 80.338065 
L 216.797794 79.822209 
L 221.353703 79.485781 
L 225.909613 79.328781 
L 230.465523 79.35121 
L 235.021432 79.553067 
L 239.577342 79.934352 
L 244.133252 80.495065 
L 249.828139 81.448278 
L 255.523026 82.681847 
L 261.217913 84.195772 
L 266.9128 85.990055 
L 272.607687 88.064694 
L 278.302574 90.419689 
L 283.997462 93.055041 
L 289.692349 95.97075 
L 295.387236 99.166816 
L 301.082123 102.643238 
L 306.77701 106.400016 
L 312.471897 110.437152 
L 318.166784 114.754644 
L 323.861671 119.352492 
L 329.556558 124.230697 
L 335.251446 129.389259 
L 340.946333 134.828177 
L 346.64122 140.547452 
L 352.336107 146.547084 
L 358.030994 152.827072 
L 363.725881 159.387417 
L 370.559746 167.629902 
L 377.39361 176.2761 
L 384.227475 185.326011 
L 391.061339 194.779636 
L 397.895204 204.636975 
L 397.895204 204.636975 
" clip-path="url(#p5c44c13f8b)" style="fill: none; stroke: #2471a3; stroke-width: 2.4; stroke-linecap: round"/>
   </g>
   <g id="patch_3">
    <path d="M 40.313242 213.32445 
L 40.313242 22.2 
" style="fill: none; stroke: #cccccc; stroke-linejoin: miter; stroke-linecap: square"/>
   </g>
   <g id="patch_4">
    <path d="M 414.922916 213.32445 
L 414.922916 22.2 
" style="fill: none; stroke: #cccccc; stroke-linejoin: miter; stroke-linecap: square"/>
   </g>
   <g id="patch_5">
    <path d="M 40.313242 213.32445 
L 414.922916 213.32445 
" style="fill: none; stroke: #cccccc; stroke-linejoin: miter; stroke-linecap: square"/>
   </g>
   <g id="patch_6">
    <path d="M 40.313242 22.2 
L 414.922916 22.2 
" style="fill: none; stroke: #cccccc; stroke-linejoin: miter; stroke-linecap: square"/>
   </g>
   <g id="text_17">
    <!-- Ambas se anulam nas bordas, máximas em $p=0{,}5$ -->
    <g style="fill: #262626" transform="translate(81.158079 16.2) scale(0.12 -0.12)">
     <defs>
      <path id="LiberationSans-Bold-24" d="M 3541 0 
L 3150 1125 
L 1472 1125 
L 1081 0 
L 159 0 
L 1766 4403 
L 2853 4403 
L 4453 0 
L 3541 0 
z
M 2309 3725 
L 2291 3656 
Q 2259 3544 2215 3400 
Q 2172 3256 1678 1819 
L 2944 1819 
L 2509 3084 
L 2375 3509 
L 2309 3725 
z
" transform="scale(0.015625)"/>
      <path id="LiberationSans-Bold-50" d="M 2438 0 
L 2438 1897 
Q 2438 2788 1925 2788 
Q 1659 2788 1492 2516 
Q 1325 2244 1325 1813 
L 1325 0 
L 447 0 
L 447 2625 
Q 447 2897 439 3070 
Q 431 3244 422 3381 
L 1259 3381 
Q 1269 3322 1284 3064 
Q 1300 2806 1300 2709 
L 1313 2709 
Q 1475 3097 1717 3272 
Q 1959 3447 2297 3447 
Q 3072 3447 3238 2709 
L 3256 2709 
Q 3428 3103 3668 3275 
Q 3909 3447 4281 3447 
Q 4775 3447 5034 3111 
Q 5294 2775 5294 2147 
L 5294 0 
L 4422 0 
L 4422 1897 
Q 4422 2788 3909 2788 
Q 3653 2788 3489 2539 
Q 3325 2291 3309 1853 
L 3309 0 
L 2438 0 
z
" transform="scale(0.015625)"/>
      <path id="LiberationSans-Bold-45" d="M 3647 1703 
Q 3647 866 3311 401 
Q 2975 -63 2350 -63 
Q 1991 -63 1728 93 
Q 1466 250 1325 544 
L 1319 544 
Q 1319 434 1305 243 
Q 1291 53 1275 0 
L 422 0 
Q 447 291 447 772 
L 447 4638 
L 1325 4638 
L 1325 3344 
L 1313 2794 
L 1325 2794 
Q 1622 3444 2406 3444 
Q 3006 3444 3326 2989 
Q 3647 2534 3647 1703 
z
M 2731 1703 
Q 2731 2278 2562 2556 
Q 2394 2834 2041 2834 
Q 1684 2834 1498 2536 
Q 1313 2238 1313 1675 
Q 1313 1138 1495 838 
Q 1678 538 2034 538 
Q 2731 538 2731 1703 
z
" transform="scale(0.015625)"/>
      <path id="LiberationSans-Bold-44" d="M 1228 -63 
Q 738 -63 463 204 
Q 188 472 188 956 
Q 188 1481 530 1756 
Q 872 2031 1522 2038 
L 2250 2050 
L 2250 2222 
Q 2250 2553 2134 2714 
Q 2019 2875 1756 2875 
Q 1513 2875 1398 2764 
Q 1284 2653 1256 2397 
L 341 2441 
Q 425 2934 792 3189 
Q 1159 3444 1794 3444 
Q 2434 3444 2781 3128 
Q 3128 2813 3128 2231 
L 3128 1000 
Q 3128 716 3192 608 
Q 3256 500 3406 500 
Q 3506 500 3600 519 
L 3600 44 
Q 3522 25 3459 9 
Q 3397 -6 3334 -15 
Q 3272 -25 3201 -31 
Q 3131 -38 3038 -38 
Q 2706 -38 2548 125 
Q 2391 288 2359 603 
L 2341 603 
Q 1972 -63 1228 -63 
z
M 2250 1566 
L 1800 1559 
Q 1494 1547 1366 1492 
Q 1238 1438 1170 1325 
Q 1103 1213 1103 1025 
Q 1103 784 1214 667 
Q 1325 550 1509 550 
Q 1716 550 1886 662 
Q 2056 775 2153 973 
Q 2250 1172 2250 1394 
L 2250 1566 
z
" transform="scale(0.015625)"/>
      <path id="LiberationSans-Bold-56" d="M 3297 988 
Q 3297 497 2895 217 
Q 2494 -63 1784 -63 
Q 1088 -63 717 157 
Q 347 378 225 844 
L 997 959 
Q 1063 719 1223 619 
Q 1384 519 1784 519 
Q 2153 519 2322 612 
Q 2491 706 2491 906 
Q 2491 1069 2355 1164 
Q 2219 1259 1894 1325 
Q 1150 1472 890 1598 
Q 631 1725 495 1926 
Q 359 2128 359 2422 
Q 359 2906 732 3176 
Q 1106 3447 1791 3447 
Q 2394 3447 2761 3212 
Q 3128 2978 3219 2534 
L 2441 2453 
Q 2403 2659 2256 2761 
Q 2109 2863 1791 2863 
Q 1478 2863 1322 2783 
Q 1166 2703 1166 2516 
Q 1166 2369 1286 2283 
Q 1406 2197 1691 2141 
Q 2088 2059 2395 1973 
Q 2703 1888 2889 1769 
Q 3075 1650 3186 1464 
Q 3297 1278 3297 988 
z
" transform="scale(0.015625)"/>
      <path id="LiberationSans-Bold-3" transform="scale(0.015625)"/>
      <path id="LiberationSans-Bold-48" d="M 1831 -63 
Q 1069 -63 659 389 
Q 250 841 250 1706 
Q 250 2544 665 2994 
Q 1081 3444 1844 3444 
Q 2572 3444 2956 2961 
Q 3341 2478 3341 1547 
L 3341 1522 
L 1172 1522 
Q 1172 1028 1355 776 
Q 1538 525 1875 525 
Q 2341 525 2463 928 
L 3291 856 
Q 2931 -63 1831 -63 
z
M 1831 2891 
Q 1522 2891 1355 2675 
Q 1188 2459 1178 2072 
L 2491 2072 
Q 2466 2481 2294 2686 
Q 2122 2891 1831 2891 
z
" transform="scale(0.015625)"/>
      <path id="LiberationSans-Bold-51" d="M 2638 0 
L 2638 1897 
Q 2638 2788 2034 2788 
Q 1716 2788 1520 2514 
Q 1325 2241 1325 1813 
L 1325 0 
L 447 0 
L 447 2625 
Q 447 2897 439 3070 
Q 431 3244 422 3381 
L 1259 3381 
Q 1269 3322 1284 3064 
Q 1300 2806 1300 2709 
L 1313 2709 
Q 1491 3097 1759 3272 
Q 2028 3447 2400 3447 
Q 2938 3447 3225 3115 
Q 3513 2784 3513 2147 
L 3513 0 
L 2638 0 
z
" transform="scale(0.015625)"/>
      <path id="LiberationSans-Bold-58" d="M 1275 3381 
L 1275 1484 
Q 1275 594 1875 594 
Q 2194 594 2389 867 
Q 2584 1141 2584 1569 
L 2584 3381 
L 3463 3381 
L 3463 756 
Q 3463 325 3488 0 
L 2650 0 
Q 2613 450 2613 672 
L 2597 672 
Q 2422 288 2151 112 
Q 1881 -63 1509 -63 
Q 972 -63 684 267 
Q 397 597 397 1234 
L 397 3381 
L 1275 3381 
z
" transform="scale(0.015625)"/>
      <path id="LiberationSans-Bold-4f" d="M 447 0 
L 447 4638 
L 1325 4638 
L 1325 0 
L 447 0 
z
" transform="scale(0.015625)"/>
      <path id="LiberationSans-Bold-52" d="M 3659 1694 
Q 3659 872 3203 404 
Q 2747 -63 1941 -63 
Q 1150 -63 700 406 
Q 250 875 250 1694 
Q 250 2509 700 2976 
Q 1150 3444 1959 3444 
Q 2788 3444 3223 2992 
Q 3659 2541 3659 1694 
z
M 2741 1694 
Q 2741 2297 2544 2569 
Q 2347 2841 1972 2841 
Q 1172 2841 1172 1694 
Q 1172 1128 1367 833 
Q 1563 538 1931 538 
Q 2741 538 2741 1694 
z
" transform="scale(0.015625)"/>
      <path id="LiberationSans-Bold-55" d="M 447 0 
L 447 2588 
Q 447 2866 439 3052 
Q 431 3238 422 3381 
L 1259 3381 
Q 1269 3325 1284 3039 
Q 1300 2753 1300 2659 
L 1313 2659 
Q 1441 3016 1541 3161 
Q 1641 3306 1778 3376 
Q 1916 3447 2122 3447 
Q 2291 3447 2394 3400 
L 2394 2666 
Q 2181 2713 2019 2713 
Q 1691 2713 1508 2447 
Q 1325 2181 1325 1659 
L 1325 0 
L 447 0 
z
" transform="scale(0.015625)"/>
      <path id="LiberationSans-Bold-47" d="M 2638 0 
Q 2625 47 2608 236 
Q 2591 425 2591 550 
L 2578 550 
Q 2294 -63 1497 -63 
Q 906 -63 584 398 
Q 263 859 263 1688 
Q 263 2528 602 2986 
Q 941 3444 1563 3444 
Q 1922 3444 2183 3294 
Q 2444 3144 2584 2847 
L 2591 2847 
L 2584 3403 
L 2584 4638 
L 3463 4638 
L 3463 738 
Q 3463 425 3488 0 
L 2638 0 
z
M 2597 1709 
Q 2597 2256 2414 2551 
Q 2231 2847 1875 2847 
Q 1522 2847 1350 2561 
Q 1178 2275 1178 1688 
Q 1178 538 1869 538 
Q 2216 538 2406 842 
Q 2597 1147 2597 1709 
z
" transform="scale(0.015625)"/>
      <path id="LiberationSans-Bold-f" d="M 1350 206 
Q 1350 -169 1270 -456 
Q 1191 -744 1013 -991 
L 434 -991 
Q 619 -769 734 -503 
Q 850 -238 850 0 
L 447 0 
L 447 953 
L 1350 953 
L 1350 206 
z
" transform="scale(0.015625)"/>
      <path id="LiberationSans-Bold-a3" d="M 1203 -63 
Q 713 -63 438 204 
Q 163 472 163 956 
Q 163 1481 505 1756 
Q 847 2031 1497 2038 
L 2225 2050 
L 2225 2222 
Q 2225 2553 2109 2714 
Q 1994 2875 1731 2875 
Q 1488 2875 1373 2764 
Q 1259 2653 1231 2397 
L 316 2441 
Q 400 2934 767 3189 
Q 1134 3444 1769 3444 
Q 2409 3444 2756 3128 
Q 3103 2813 3103 2231 
L 3103 1000 
Q 3103 716 3167 608 
Q 3231 500 3381 500 
Q 3481 500 3575 519 
L 3575 44 
Q 3497 25 3434 9 
Q 3372 -6 3309 -15 
Q 3247 -25 3176 -31 
Q 3106 -38 3013 -38 
Q 2681 -38 2523 125 
Q 2366 288 2334 603 
L 2316 603 
Q 1947 -63 1203 -63 
z
M 2225 1566 
L 1775 1559 
Q 1469 1547 1341 1492 
Q 1213 1438 1145 1325 
Q 1078 1213 1078 1025 
Q 1078 784 1189 667 
Q 1300 550 1484 550 
Q 1691 550 1861 662 
Q 2031 775 2128 973 
Q 2225 1172 2225 1394 
L 2225 1566 
z
M 1172 3697 
L 1172 3794 
L 1959 4694 
L 2766 4694 
L 2766 4559 
L 1703 3697 
L 1172 3697 
z
" transform="scale(0.015625)"/>
      <path id="LiberationSans-Bold-5b" d="M 2559 0 
L 1772 1225 
L 978 0 
L 44 0 
L 1281 1747 
L 103 3381 
L 1050 3381 
L 1772 2275 
L 2491 3381 
L 3444 3381 
L 2266 1756 
L 3513 0 
L 2559 0 
z
" transform="scale(0.015625)"/>
      <path id="LiberationSans-Bold-4c" d="M 447 3991 
L 447 4638 
L 1325 4638 
L 1325 3991 
L 447 3991 
z
M 447 0 
L 447 3381 
L 1325 3381 
L 1325 0 
L 447 0 
z
" transform="scale(0.015625)"/>
      <path id="DejaVuSans-20" d="M 678 2906 
L 4684 2906 
L 4684 2381 
L 678 2381 
L 678 2906 
z
M 678 1631 
L 4684 1631 
L 4684 1100 
L 678 1100 
L 678 1631 
z
" transform="scale(0.015625)"/>
      <path id="DejaVuSans-13" d="M 2034 4250 
Q 1547 4250 1301 3770 
Q 1056 3291 1056 2328 
Q 1056 1369 1301 889 
Q 1547 409 2034 409 
Q 2525 409 2770 889 
Q 3016 1369 3016 2328 
Q 3016 3291 2770 3770 
Q 2525 4250 2034 4250 
z
M 2034 4750 
Q 2819 4750 3233 4129 
Q 3647 3509 3647 2328 
Q 3647 1150 3233 529 
Q 2819 -91 2034 -91 
Q 1250 -91 836 529 
Q 422 1150 422 2328 
Q 422 3509 836 4129 
Q 1250 4750 2034 4750 
z
" transform="scale(0.015625)"/>
      <path id="DejaVuSans-f" d="M 750 794 
L 1409 794 
L 1409 256 
L 897 -744 
L 494 -744 
L 750 256 
L 750 794 
z
" transform="scale(0.015625)"/>
      <path id="DejaVuSans-18" d="M 691 4666 
L 3169 4666 
L 3169 4134 
L 1269 4134 
L 1269 2991 
Q 1406 3038 1543 3061 
Q 1681 3084 1819 3084 
Q 2600 3084 3056 2656 
Q 3513 2228 3513 1497 
Q 3513 744 3044 326 
Q 2575 -91 1722 -91 
Q 1428 -91 1123 -41 
Q 819 9 494 109 
L 494 744 
Q 775 591 1075 516 
Q 1375 441 1709 441 
Q 2250 441 2565 725 
Q 2881 1009 2881 1497 
Q 2881 1984 2565 2268 
Q 2250 2553 1709 2553 
Q 1456 2553 1204 2497 
Q 953 2441 691 2322 
L 691 4666 
z
" transform="scale(0.015625)"/>
     </defs>
     <use xlink:href="#LiberationSans-Bold-24" transform="translate(0 0.78125)"/>
     <use xlink:href="#LiberationSans-Bold-50" transform="translate(72.216797 0.78125)"/>
     <use xlink:href="#LiberationSans-Bold-45" transform="translate(161.132812 0.78125)"/>
     <use xlink:href="#LiberationSans-Bold-44" transform="translate(222.216797 0.78125)"/>
     <use xlink:href="#LiberationSans-Bold-56" transform="translate(277.832031 0.78125)"/>
     <use xlink:href="#LiberationSans-Bold-3" transform="translate(333.447266 0.78125)"/>
     <use xlink:href="#LiberationSans-Bold-56" transform="translate(361.230469 0.78125)"/>
     <use xlink:href="#LiberationSans-Bold-48" transform="translate(416.845703 0.78125)"/>
     <use xlink:href="#LiberationSans-Bold-3" transform="translate(472.460938 0.78125)"/>
     <use xlink:href="#LiberationSans-Bold-44" transform="translate(500.244141 0.78125)"/>
     <use xlink:href="#LiberationSans-Bold-51" transform="translate(555.859375 0.78125)"/>
     <use xlink:href="#LiberationSans-Bold-58" transform="translate(616.943359 0.78125)"/>
     <use xlink:href="#LiberationSans-Bold-4f" transform="translate(678.027344 0.78125)"/>
     <use xlink:href="#LiberationSans-Bold-44" transform="translate(705.810547 0.78125)"/>
     <use xlink:href="#LiberationSans-Bold-50" transform="translate(761.425781 0.78125)"/>
     <use xlink:href="#LiberationSans-Bold-3" transform="translate(850.341797 0.78125)"/>
     <use xlink:href="#LiberationSans-Bold-51" transform="translate(878.125 0.78125)"/>
     <use xlink:href="#LiberationSans-Bold-44" transform="translate(939.208984 0.78125)"/>
     <use xlink:href="#LiberationSans-Bold-56" transform="translate(994.824219 0.78125)"/>
     <use xlink:href="#LiberationSans-Bold-3" transform="translate(1050.439453 0.78125)"/>
     <use xlink:href="#LiberationSans-Bold-45" transform="translate(1078.222656 0.78125)"/>
     <use xlink:href="#LiberationSans-Bold-52" transform="translate(1139.306641 0.78125)"/>
     <use xlink:href="#LiberationSans-Bold-55" transform="translate(1200.390625 0.78125)"/>
     <use xlink:href="#LiberationSans-Bold-47" transform="translate(1239.306641 0.78125)"/>
     <use xlink:href="#LiberationSans-Bold-44" transform="translate(1300.390625 0.78125)"/>
     <use xlink:href="#LiberationSans-Bold-56" transform="translate(1356.005859 0.78125)"/>
     <use xlink:href="#LiberationSans-Bold-f" transform="translate(1411.621094 0.78125)"/>
     <use xlink:href="#LiberationSans-Bold-3" transform="translate(1439.404297 0.78125)"/>
     <use xlink:href="#LiberationSans-Bold-50" transform="translate(1467.1875 0.78125)"/>
     <use xlink:href="#LiberationSans-Bold-a3" transform="translate(1556.103516 0.78125)"/>
     <use xlink:href="#LiberationSans-Bold-5b" transform="translate(1611.71875 0.78125)"/>
     <use xlink:href="#LiberationSans-Bold-4c" transform="translate(1667.333984 0.78125)"/>
     <use xlink:href="#LiberationSans-Bold-50" transform="translate(1695.117188 0.78125)"/>
     <use xlink:href="#LiberationSans-Bold-44" transform="translate(1784.033203 0.78125)"/>
     <use xlink:href="#LiberationSans-Bold-56" transform="translate(1839.648438 0.78125)"/>
     <use xlink:href="#LiberationSans-Bold-3" transform="translate(1895.263672 0.78125)"/>
     <use xlink:href="#LiberationSans-Bold-48" transform="translate(1923.046875 0.78125)"/>
     <use xlink:href="#LiberationSans-Bold-50" transform="translate(1978.662109 0.78125)"/>
     <use xlink:href="#LiberationSans-Bold-3" transform="translate(2067.578125 0.78125)"/>
     <use xlink:href="#DejaVuSans-Oblique-53" transform="translate(2095.361328 0.78125)"/>
     <use xlink:href="#DejaVuSans-20" transform="translate(2178.320312 0.78125)"/>
     <use xlink:href="#DejaVuSans-13" transform="translate(2281.591797 0.78125)"/>
     <use xlink:href="#DejaVuSans-f" transform="translate(2345.214844 0.78125)"/>
     <use xlink:href="#DejaVuSans-18" transform="translate(2377.001953 0.78125)"/>
    </g>
   </g>
   <g id="legend_1">
    <g id="patch_7">
     <path d="M 149.793079 207.82445 
L 305.443079 207.82445 
Q 307.643079 207.82445 307.643079 205.62445 
L 307.643079 174.374567 
Q 307.643079 172.174567 305.443079 172.174567 
L 149.793079 172.174567 
Q 147.593079 172.174567 147.593079 174.374567 
L 147.593079 205.62445 
Q 147.593079 207.82445 149.793079 207.82445 
z
" style="fill: #ffffff; opacity: 0.9; stroke: #cccccc; stroke-linejoin: miter"/>
    </g>
    <g id="line2d_31">
     <path d="M 151.993079 181.084567 
L 162.993079 181.084567 
L 173.993079 181.084567 
" style="fill: none; stroke: #c0392b; stroke-width: 2.4; stroke-linecap: round"/>
    </g>
    <g id="text_18">
     <!-- entropia $H(p)$ -->
     <g style="fill: #262626" transform="translate(182.793079 184.934567) scale(0.11 -0.11)">
      <defs>
       <path id="LiberationSans-51" d="M 2578 0 
L 2578 2144 
Q 2578 2478 2512 2662 
Q 2447 2847 2303 2928 
Q 2159 3009 1881 3009 
Q 1475 3009 1240 2731 
Q 1006 2453 1006 1959 
L 1006 0 
L 444 0 
L 444 2659 
Q 444 3250 425 3381 
L 956 3381 
Q 959 3366 962 3297 
Q 966 3228 970 3139 
Q 975 3050 981 2803 
L 991 2803 
Q 1184 3153 1439 3298 
Q 1694 3444 2072 3444 
Q 2628 3444 2886 3167 
Q 3144 2891 3144 2253 
L 3144 0 
L 2578 0 
z
" transform="scale(0.015625)"/>
       <path id="DejaVuSans-Oblique-2b" d="M 1081 4666 
L 1716 4666 
L 1344 2753 
L 3634 2753 
L 4006 4666 
L 4641 4666 
L 3731 0 
L 3097 0 
L 3531 2222 
L 1241 2222 
L 806 0 
L 172 0 
L 1081 4666 
z
" transform="scale(0.015625)"/>
       <path id="DejaVuSans-b" d="M 1984 4856 
Q 1566 4138 1362 3434 
Q 1159 2731 1159 2009 
Q 1159 1288 1364 580 
Q 1569 -128 1984 -844 
L 1484 -844 
Q 1016 -109 783 600 
Q 550 1309 550 2009 
Q 550 2706 781 3412 
Q 1013 4119 1484 4856 
L 1984 4856 
z
" transform="scale(0.015625)"/>
       <path id="DejaVuSans-c" d="M 513 4856 
L 1013 4856 
Q 1481 4119 1714 3412 
Q 1947 2706 1947 2009 
Q 1947 1309 1714 600 
Q 1481 -109 1013 -844 
L 513 -844 
Q 928 -128 1133 580 
Q 1338 1288 1338 2009 
Q 1338 2731 1133 3434 
Q 928 4138 513 4856 
z
" transform="scale(0.015625)"/>
      </defs>
      <use xlink:href="#LiberationSans-48" transform="translate(0 0.125)"/>
      <use xlink:href="#LiberationSans-51" transform="translate(55.615234 0.125)"/>
      <use xlink:href="#LiberationSans-57" transform="translate(111.230469 0.125)"/>
      <use xlink:href="#LiberationSans-55" transform="translate(139.013672 0.125)"/>
      <use xlink:href="#LiberationSans-52" transform="translate(172.314453 0.125)"/>
      <use xlink:href="#LiberationSans-53" transform="translate(227.929688 0.125)"/>
      <use xlink:href="#LiberationSans-4c" transform="translate(283.544922 0.125)"/>
      <use xlink:href="#LiberationSans-44" transform="translate(305.761719 0.125)"/>
      <use xlink:href="#LiberationSans-3" transform="translate(361.376953 0.125)"/>
      <use xlink:href="#DejaVuSans-Oblique-2b" transform="translate(389.160156 0.125)"/>
      <use xlink:href="#DejaVuSans-b" transform="translate(464.355469 0.125)"/>
      <use xlink:href="#DejaVuSans-Oblique-53" transform="translate(503.369141 0.125)"/>
      <use xlink:href="#DejaVuSans-c" transform="translate(566.845703 0.125)"/>
     </g>
    </g>
    <g id="line2d_32">
     <path d="M 151.993079 197.259509 
L 162.993079 197.259509 
L 173.993079 197.259509 
" style="fill: none; stroke: #2471a3; stroke-width: 2.4; stroke-linecap: round"/>
    </g>
    <g id="text_19">
     <!-- índice de Gini $2p(1-p)$ -->
     <g style="fill: #262626" transform="translate(182.793079 201.109509) scale(0.11 -0.11)">
      <defs>
       <path id="LiberationSans-af" d="M 606 0 
L 606 3381 
L 1169 3381 
L 1169 0 
L 606 0 
z
M 422 3753 
L 422 3816 
L 1100 4713 
L 1747 4713 
L 1747 4622 
L 716 3753 
L 422 3753 
z
" transform="scale(0.015625)"/>
       <path id="LiberationSans-2a" d="M 322 2222 
Q 322 3294 897 3881 
Q 1472 4469 2513 4469 
Q 3244 4469 3700 4222 
Q 4156 3975 4403 3431 
L 3834 3263 
Q 3647 3638 3317 3809 
Q 2988 3981 2497 3981 
Q 1734 3981 1331 3520 
Q 928 3059 928 2222 
Q 928 1388 1356 905 
Q 1784 422 2541 422 
Q 2972 422 3345 553 
Q 3719 684 3950 909 
L 3950 1703 
L 2634 1703 
L 2634 2203 
L 4500 2203 
L 4500 684 
Q 4150 328 3642 132 
Q 3134 -63 2541 -63 
Q 1850 -63 1350 212 
Q 850 488 586 1005 
Q 322 1522 322 2222 
z
" transform="scale(0.015625)"/>
       <path id="DejaVuSans-15" d="M 1228 531 
L 3431 531 
L 3431 0 
L 469 0 
L 469 531 
Q 828 903 1448 1529 
Q 2069 2156 2228 2338 
Q 2531 2678 2651 2914 
Q 2772 3150 2772 3378 
Q 2772 3750 2511 3984 
Q 2250 4219 1831 4219 
Q 1534 4219 1204 4116 
Q 875 4013 500 3803 
L 500 4441 
Q 881 4594 1212 4672 
Q 1544 4750 1819 4750 
Q 2544 4750 2975 4387 
Q 3406 4025 3406 3419 
Q 3406 3131 3298 2873 
Q 3191 2616 2906 2266 
Q 2828 2175 2409 1742 
Q 1991 1309 1228 531 
z
" transform="scale(0.015625)"/>
       <path id="DejaVuSans-14" d="M 794 531 
L 1825 531 
L 1825 4091 
L 703 3866 
L 703 4441 
L 1819 4666 
L 2450 4666 
L 2450 531 
L 3481 531 
L 3481 0 
L 794 0 
L 794 531 
z
" transform="scale(0.015625)"/>
       <path id="DejaVuSans-c9c" d="M 678 2272 
L 4684 2272 
L 4684 1741 
L 678 1741 
L 678 2272 
z
" transform="scale(0.015625)"/>
      </defs>
      <use xlink:href="#LiberationSans-af" transform="translate(0 0.125)"/>
      <use xlink:href="#LiberationSans-51" transform="translate(27.783203 0.125)"/>
      <use xlink:href="#LiberationSans-47" transform="translate(83.398438 0.125)"/>
      <use xlink:href="#LiberationSans-4c" transform="translate(139.013672 0.125)"/>
      <use xlink:href="#LiberationSans-46" transform="translate(161.230469 0.125)"/>
      <use xlink:href="#LiberationSans-48" transform="translate(211.230469 0.125)"/>
      <use xlink:href="#LiberationSans-3" transform="translate(266.845703 0.125)"/>
      <use xlink:href="#LiberationSans-47" transform="translate(294.628906 0.125)"/>
      <use xlink:href="#LiberationSans-48" transform="translate(350.244141 0.125)"/>
      <use xlink:href="#LiberationSans-3" transform="translate(405.859375 0.125)"/>
      <use xlink:href="#LiberationSans-2a" transform="translate(433.642578 0.125)"/>
      <use xlink:href="#LiberationSans-4c" transform="translate(511.425781 0.125)"/>
      <use xlink:href="#LiberationSans-51" transform="translate(533.642578 0.125)"/>
      <use xlink:href="#LiberationSans-4c" transform="translate(589.257812 0.125)"/>
      <use xlink:href="#LiberationSans-3" transform="translate(611.474609 0.125)"/>
      <use xlink:href="#DejaVuSans-15" transform="translate(639.257812 0.125)"/>
      <use xlink:href="#DejaVuSans-Oblique-53" transform="translate(702.880859 0.125)"/>
      <use xlink:href="#DejaVuSans-b" transform="translate(766.357422 0.125)"/>
      <use xlink:href="#DejaVuSans-14" transform="translate(805.371094 0.125)"/>
      <use xlink:href="#DejaVuSans-c9c" transform="translate(888.476562 0.125)"/>
      <use xlink:href="#DejaVuSans-Oblique-53" transform="translate(991.748047 0.125)"/>
      <use xlink:href="#DejaVuSans-c" transform="translate(1055.224609 0.125)"/>
     </g>
    </g>
   </g>
  </g>
 </g>
 <defs>
  <clipPath id="p5c44c13f8b">
   <rect x="40.313242" y="22.2" width="374.609674" height="191.12445"/>
  </clipPath>
 </defs>
</svg>
