<?xml version="1.0" standalone="no"?>
<!DOCTYPE svg PUBLIC "-//W3C//DTD SVG 20010904//EN"
 "http://www.w3.org/TR/2001/REC-SVG-20010904/DTD/svg10.dtd">
<svg version="1.0" xmlns="http://www.w3.org/2000/svg"
 width="208.000000pt" height="208.000000pt" viewBox="0 0 208.000000 208.000000"
 preserveAspectRatio="xMidYMid meet">

<g transform="translate(0.000000,208.000000) scale(0.100000,-0.100000)"
fill="#000000" stroke="none">
<path d="M444 1482 c162 -186 301 -343 309 -350 11 -9 84 -12 289 -10 l275 3
-271 312 c-149 171 -286 327 -304 347 l-32 36 -280 0 -280 0 294 -338z"/>
<path d="M1384 1798 c-17 -13 -74 -64 -128 -114 l-97 -91 156 -97 c85 -54 161
-96 169 -94 8 2 106 88 218 192 111 104 212 198 223 208 19 17 12 18 -246 18
-259 0 -266 0 -295 -22z"/>
<path d="M874 779 c-70 -27 -124 -76 -165 -151 -32 -58 -34 -69 -34 -153 0
-113 21 -171 87 -241 63 -67 127 -95 234 -102 98 -6 195 20 262 68 l42 30 0
145 0 146 -147 -3 -148 -3 -3 -42 c-5 -67 9 -83 73 -83 l55 0 0 -40 c0 -49
-22 -63 -102 -63 -45 0 -65 5 -98 27 -112 74 -103 253 15 313 49 26 126 20
181 -12 l48 -28 33 39 c19 21 42 50 51 63 15 23 15 25 -13 47 -80 65 -261 86
-371 43z"/>
<path d="M92 468 l3 -323 85 0 85 0 3 113 3 112 144 0 c99 0 146 4 151 12 12
20 10 130 -3 135 -6 3 -74 5 -150 6 l-138 2 -3 53 -3 52 158 0 c87 0 164 4
171 9 9 5 12 28 10 77 l-3 69 -258 3 -257 2 2 -322z"/>
<path d="M1369 743 c88 -223 235 -580 243 -590 14 -17 152 -17 166 -1 8 11
155 367 243 591 l19 47 -99 0 -98 0 -68 -192 c-37 -106 -71 -197 -75 -201 -4
-4 -38 81 -77 190 l-70 198 -102 3 -101 3 19 -48z"/>
</g>
</svg>
