<?xml version="1.0" standalone="no"?>
<!DOCTYPE svg PUBLIC "-//W3C//DTD SVG 20010904//EN"
 "http://www.w3.org/TR/2001/REC-SVG-20010904/DTD/svg10.dtd">
<svg version="1.0" xmlns="http://www.w3.org/2000/svg"
 width="203.000000pt" height="300.000000pt" viewBox="0 0 203.000000 300.000000"
 preserveAspectRatio="xMidYMid meet">

<g transform="translate(0.000000,300.000000) scale(0.100000,-0.100000)"
fill="#000000" stroke="none">
<path d="M1065 2994 c-300 -33 -528 -130 -671 -287 -89 -97 -145 -234 -164
-398 -11 -90 -10 -99 18 -209 34 -135 81 -252 124 -311 l31 -42 18 38 c33 68
33 94 -2 180 -24 58 -33 98 -35 147 -2 76 -5 83 -47 108 -32 20 -28 26 23 32
19 2 26 11 32 42 7 35 5 43 -19 68 l-27 28 45 0 c39 0 46 4 61 31 24 41 23 68
-4 96 -31 33 -16 39 32 14 40 -21 42 -21 71 -4 28 16 30 21 24 53 -4 19 -9 49
-12 65 l-5 30 40 -39 41 -39 33 20 c30 17 34 25 42 81 5 34 12 62 16 62 5 0
16 -20 27 -45 16 -40 22 -45 50 -45 64 0 77 12 96 89 21 80 37 85 37 11 0 -76
3 -80 75 -80 l63 0 28 71 c15 38 31 72 36 75 4 3 8 -33 8 -79 l0 -84 48 -6
c47 -6 47 -5 110 56 34 34 62 58 62 54 0 -3 -11 -36 -25 -73 -14 -36 -25 -68
-25 -69 0 -2 66 -38 147 -79 125 -65 148 -74 156 -61 23 42 74 87 125 112 52
25 67 28 164 28 60 0 108 2 108 5 0 15 -71 87 -129 131 -116 89 -285 161 -465
200 -89 19 -282 31 -361 23z"/>
<path d="M800 2603 c-220 -60 -381 -284 -341 -475 6 -32 25 -100 41 -152 32
-105 30 -131 -14 -216 -17 -33 -22 -50 -14 -50 42 1 106 50 228 172 74 74 149
140 166 147 18 7 43 31 59 57 15 24 36 44 45 44 29 0 45 27 32 55 -14 30 -22
32 -202 44 -80 5 -153 12 -162 16 -14 5 -18 2 -18 -12 0 -32 44 -63 121 -87
84 -26 102 -46 40 -46 -22 0 -52 5 -67 10 -15 6 -30 8 -33 4 -10 -10 39 -43
75 -50 21 -4 34 -12 34 -21 0 -12 -8 -15 -38 -10 -50 6 -109 45 -117 77 -4 14
-17 39 -29 55 -39 51 -56 92 -56 134 l0 40 55 -34 c54 -32 59 -33 203 -39 170
-8 176 -9 220 -36 26 -16 32 -26 32 -53 0 -41 -17 -65 -61 -86 -42 -20 -44
-42 -4 -54 51 -15 363 -20 476 -8 103 12 344 57 361 67 5 3 -10 28 -33 55 -36
43 -43 47 -61 38 -12 -6 -34 -15 -49 -19 -26 -8 -32 -4 -71 43 -62 77 -121
137 -134 137 -6 0 -26 -8 -45 -17 -18 -9 -56 -19 -84 -21 -58 -5 -81 12 -71
52 14 55 134 60 227 10 28 -16 79 -59 114 -96 l63 -68 47 20 c25 11 44 24 40
30 -28 45 -284 223 -392 272 -160 72 -448 107 -583 71z"/>
<path d="M1775 2039 c-137 -44 -279 -62 -500 -62 -115 0 -245 5 -288 11 l-79
12 -59 -46 c-33 -25 -103 -89 -157 -142 -62 -63 -116 -106 -149 -122 l-52 -24
20 -28 20 -27 61 37 c33 20 100 76 149 124 108 106 208 162 280 156 33 -3 39
-6 24 -11 -11 -4 -58 -26 -105 -49 -72 -35 -99 -56 -181 -139 -80 -83 -107
-104 -170 -132 -41 -19 -103 -42 -139 -51 -80 -22 -134 -55 -157 -98 -15 -28
-18 -68 -20 -278 l-3 -245 27 35 c15 19 59 67 100 107 60 60 92 82 188 129
152 74 265 176 321 289 39 78 43 123 6 63 -39 -63 -142 -151 -207 -177 -75
-30 -220 -106 -262 -137 -32 -24 -53 -31 -53 -16 0 11 294 201 333 215 61 21
125 73 163 134 106 166 149 224 203 276 51 49 56 56 33 51 -84 -19 -198 -120
-284 -251 -48 -72 -97 -122 -148 -148 -38 -20 -252 -96 -257 -91 -6 6 120 84
182 112 90 40 147 86 210 169 64 83 165 171 237 206 46 22 49 22 180 9 73 -7
138 -17 145 -22 6 -5 24 -13 40 -17 l28 -8 -35 -21 -35 -22 73 0 c64 0 78 3
108 27 29 22 37 24 45 12 5 -8 9 -20 9 -26 0 -7 5 -13 10 -13 6 0 10 13 10 28
0 43 36 108 72 130 18 11 60 28 93 37 72 21 71 20 55 40 -15 18 -10 18 -85 -6z"/>
<path d="M87 1771 c-42 -109 -77 -200 -77 -204 0 -3 17 -15 38 -27 73 -41 72
-35 72 -439 l0 -361 50 0 50 0 -7 363 -6 363 32 36 c18 21 48 43 67 50 19 7
32 17 30 23 -2 5 -39 93 -81 195 -42 102 -80 188 -84 192 -3 4 -41 -82 -84
-191z"/>
<path d="M1595 1666 c-16 -11 -17 -16 -6 -29 11 -14 16 -13 47 5 19 11 34 24
34 29 0 14 -54 11 -75 -5z"/>
<path d="M1553 1575 c-9 -24 3 -29 37 -15 44 18 46 30 5 30 -23 0 -38 -5 -42
-15z"/>
<path d="M1567 1523 c-11 -3 -16 -10 -13 -20 3 -8 6 -20 6 -26 0 -6 11 0 25
13 13 12 22 27 19 31 -5 9 -8 10 -37 2z"/>
<path d="M1086 1471 c-3 -5 4 -31 16 -57 30 -69 28 -145 -6 -212 l-26 -52 32
6 c55 9 58 12 58 46 0 88 70 131 250 156 66 9 120 19 120 22 0 3 -42 6 -93 7
-104 2 -219 29 -296 67 -27 14 -52 22 -55 17z"/>
<path d="M1708 1245 c-287 -48 -539 -220 -687 -467 l-23 -38 49 0 c47 0 49 1
78 50 37 63 133 161 205 210 123 83 275 141 444 170 l101 17 3 36 3 37 -48 -1
c-26 -1 -83 -7 -125 -14z"/>
<path d="M1250 1162 c0 -14 11 -21 26 -15 21 8 17 23 -6 23 -11 0 -20 -4 -20
-8z"/>
<path d="M576 1137 c-41 -23 -47 -36 -24 -51 10 -6 28 0 57 19 67 45 38 73
-33 32z"/>
<path d="M1143 1124 c-44 -19 -48 -30 -18 -50 26 -17 27 -17 50 12 38 46 24
63 -32 38z"/>
<path d="M726 1071 c3 -31 8 -58 10 -60 3 -3 24 15 49 39 25 24 42 46 39 49
-3 3 -28 11 -55 17 l-50 11 7 -56z"/>
<path d="M1775 1114 c-231 -49 -431 -153 -551 -287 -86 -95 -114 -87 296 -87
l360 0 0 195 c0 223 11 203 -105 179z"/>
<path d="M618 1064 c-46 -23 -48 -26 -48 -67 0 -70 10 -76 75 -44 l55 27 -6
42 c-11 79 -8 78 -76 42z"/>
<path d="M921 1050 c13 -22 26 -40 29 -40 4 0 21 18 39 40 l32 40 -61 0 -61 0
22 -40z"/>
<path d="M444 1045 l-39 -36 35 7 c35 7 59 28 60 52 0 20 -14 14 -56 -23z"/>
<path d="M1027 1026 c-42 -51 -43 -53 -21 -77 16 -17 19 -17 60 18 24 19 44
38 44 42 -1 3 -11 19 -24 34 l-23 28 -36 -45z"/>
<path d="M806 1007 c-52 -45 -52 -49 -12 -101 14 -18 18 -16 70 29 l56 47 -28
33 c-15 19 -29 34 -32 34 -3 1 -27 -18 -54 -42z"/>
<path d="M442 987 c-41 -11 -42 -12 -37 -41 14 -69 13 -68 63 -60 26 3 51 10
55 14 5 4 7 27 5 51 -3 50 -13 54 -86 36z"/>
<path d="M330 921 c-5 -11 -10 -29 -10 -41 0 -16 5 -21 23 -18 18 2 23 10 25
41 2 28 -1 37 -12 37 -8 0 -20 -9 -26 -19z"/>
<path d="M668 916 c-21 -12 -40 -25 -44 -28 -3 -4 6 -32 20 -63 l26 -57 27 20
c16 11 39 31 52 45 l23 26 -18 38 c-23 45 -37 49 -86 19z"/>
<path d="M890 890 l-55 -49 38 -38 c36 -36 40 -37 50 -19 7 10 26 38 43 61
l31 41 -21 27 c-12 15 -24 27 -26 27 -3 0 -30 -23 -60 -50z"/>
<path d="M488 847 c-27 -6 -48 -15 -48 -20 0 -5 10 -27 22 -48 l22 -39 68 0
c49 0 68 4 68 13 0 22 -59 107 -72 106 -7 -1 -34 -6 -60 -12z"/>
<path d="M300 800 c-11 -11 -20 -29 -20 -40 0 -18 7 -20 70 -20 43 0 70 4 70
11 0 15 -21 53 -34 61 -21 14 -66 8 -86 -12z"/>
<path d="M755 775 l-40 -35 74 0 74 0 -25 32 c-14 18 -29 33 -34 35 -5 1 -27
-13 -49 -32z"/>
<path d="M120 320 l0 -320 880 0 880 0 0 320 0 320 -880 0 -880 0 0 -320z
m260 64 l5 -168 40 -23 c48 -27 113 -30 161 -7 56 27 59 34 64 208 l5 160 28
0 28 0 0 -163 c0 -194 -8 -214 -94 -252 -73 -32 -203 -33 -264 -1 -77 40 -83
57 -83 244 0 91 2 167 4 169 2 2 26 3 53 3 l48 -1 5 -169z m710 151 c0 -25 -1
-25 -85 -25 l-85 0 0 -70 0 -70 75 0 c73 0 75 -1 75 -25 0 -24 -2 -25 -75 -25
l-75 0 0 -105 0 -105 -60 0 -60 0 0 225 0 225 145 0 145 0 0 -25z m327 10 c51
-22 72 -42 79 -80 8 -45 -18 -92 -64 -113 -20 -9 -39 -17 -41 -19 -2 -1 29
-46 68 -100 79 -108 79 -111 -9 -112 l-45 -1 -65 90 -65 90 -3 -90 -3 -91 -55
3 -55 3 0 213 c0 116 1 214 1 217 0 3 50 5 110 5 77 0 122 -5 147 -15z m323
-196 c0 -245 -6 -269 -74 -300 -43 -20 -101 -25 -110 -10 -3 5 10 21 29 35
l35 27 0 230 0 229 60 0 60 0 0 -211z"/>
<path d="M1270 445 l0 -75 35 0 c40 0 55 20 55 72 0 47 -24 78 -61 78 l-29 0
0 -75z"/>
</g>
</svg>
