<?xml version="1.0" encoding="utf-8" standalone="no"?>
<!DOCTYPE svg PUBLIC "-//W3C//DTD SVG 1.1//EN"
  "http://www.w3.org/Graphics/SVG/1.1/DTD/svg11.dtd">
<svg xmlns:xlink="http://www.w3.org/1999/xlink" width="594.922916pt" height="270.648pt" viewBox="0 0 594.922916 270.648" xmlns="http://www.w3.org/2000/svg" version="1.1">
 <metadata>
  <rdf:RDF xmlns:dc="http://purl.org/dc/elements/1.1/" xmlns:cc="http://creativecommons.org/ns#" xmlns:rdf="http://www.w3.org/1999/02/22-rdf-syntax-ns#">
   <cc:Work>
    <dc:type rdf:resource="http://purl.org/dc/dcmitype/StillImage"/>
    <dc:date>2026-08-10T17:36:50.138527</dc:date>
    <dc:format>image/svg+xml</dc:format>
    <dc:creator>
     <cc:Agent>
      <dc:title>Matplotlib v3.11.1, https://matplotlib.org/</dc:title>
     </cc:Agent>
    </dc:creator>
   </cc:Work>
  </rdf:RDF>
 </metadata>
 <defs>
  <style type="text/css">*{stroke-linejoin: round; stroke-linecap: butt}</style>
 </defs>
 <g id="figure_1">
  <g id="patch_1">
   <path d="M 0 270.648 
L 594.922916 270.648 
L 594.922916 0 
L 0 0 
z
" style="fill: #ffffff"/>
  </g>
  <g id="axes_1">
   <g id="patch_2">
    <path d="M 40.313242 235.301516 
L 298.574233 235.301516 
L 298.574233 67.42571 
L 40.313242 67.42571 
z
" style="fill: #ffffff"/>
   </g>
   <g id="matplotlib.axis_1">
    <g id="xtick_1">
     <g id="line2d_1">
      <path d="M 52.028895 235.301516 
L 52.028895 67.42571 
" clip-path="url(#p1de0901162)" style="fill: none; stroke: #cccccc; stroke-width: 0.8; stroke-linecap: round"/>
     </g>
     <g id="line2d_2"/>
     <g id="text_1">
      <!-- 0.0 -->
      <g style="fill: #262626" transform="translate(44.383895 246.809816) scale(0.11 -0.11)">
       <defs>
        <path id="LiberationSans-13" d="M 3309 2203 
Q 3309 1100 2920 518 
Q 2531 -63 1772 -63 
Q 1013 -63 631 515 
Q 250 1094 250 2203 
Q 250 3338 620 3903 
Q 991 4469 1791 4469 
Q 2569 4469 2939 3897 
Q 3309 3325 3309 2203 
z
M 2738 2203 
Q 2738 3156 2517 3584 
Q 2297 4013 1791 4013 
Q 1272 4013 1045 3591 
Q 819 3169 819 2203 
Q 819 1266 1048 831 
Q 1278 397 1778 397 
Q 2275 397 2506 840 
Q 2738 1284 2738 2203 
z
" transform="scale(0.015625)"/>
        <path id="LiberationSans-11" d="M 584 0 
L 584 684 
L 1194 684 
L 1194 0 
L 584 0 
z
" transform="scale(0.015625)"/>
       </defs>
       <use xlink:href="#LiberationSans-13"/>
       <use xlink:href="#LiberationSans-11" transform="translate(55.609375 0)"/>
       <use xlink:href="#LiberationSans-13" transform="translate(83.390625 0)"/>
      </g>
     </g>
    </g>
    <g id="xtick_2">
     <g id="line2d_3">
      <path d="M 98.994832 235.301516 
L 98.994832 67.42571 
" clip-path="url(#p1de0901162)" style="fill: none; stroke: #cccccc; stroke-width: 0.8; stroke-linecap: round"/>
     </g>
     <g id="line2d_4"/>
     <g id="text_2">
      <!-- 0.2 -->
      <g style="fill: #262626" transform="translate(91.349832 246.809816) scale(0.11 -0.11)">
       <defs>
        <path id="LiberationSans-15" d="M 322 0 
L 322 397 
Q 481 763 711 1042 
Q 941 1322 1194 1548 
Q 1447 1775 1695 1969 
Q 1944 2163 2144 2356 
Q 2344 2550 2467 2762 
Q 2591 2975 2591 3244 
Q 2591 3606 2378 3806 
Q 2166 4006 1788 4006 
Q 1428 4006 1195 3811 
Q 963 3616 922 3263 
L 347 3316 
Q 409 3844 795 4156 
Q 1181 4469 1788 4469 
Q 2453 4469 2811 4155 
Q 3169 3841 3169 3263 
Q 3169 3006 3051 2753 
Q 2934 2500 2703 2247 
Q 2472 1994 1819 1463 
Q 1459 1169 1246 933 
Q 1034 697 941 478 
L 3238 478 
L 3238 0 
L 322 0 
z
" transform="scale(0.015625)"/>
       </defs>
       <use xlink:href="#LiberationSans-13"/>
       <use xlink:href="#LiberationSans-11" transform="translate(55.609375 0)"/>
       <use xlink:href="#LiberationSans-15" transform="translate(83.390625 0)"/>
      </g>
     </g>
    </g>
    <g id="xtick_3">
     <g id="line2d_5">
      <path d="M 145.960769 235.301516 
L 145.960769 67.42571 
" clip-path="url(#p1de0901162)" style="fill: none; stroke: #cccccc; stroke-width: 0.8; stroke-linecap: round"/>
     </g>
     <g id="line2d_6"/>
     <g id="text_3">
      <!-- 0.4 -->
      <g style="fill: #262626" transform="translate(138.315769 246.809816) scale(0.11 -0.11)">
       <defs>
        <path id="LiberationSans-17" d="M 2753 997 
L 2753 0 
L 2222 0 
L 2222 997 
L 147 997 
L 147 1434 
L 2163 4403 
L 2753 4403 
L 2753 1441 
L 3372 1441 
L 3372 997 
L 2753 997 
z
M 2222 3769 
Q 2216 3750 2134 3603 
Q 2053 3456 2013 3397 
L 884 1734 
L 716 1503 
L 666 1441 
L 2222 1441 
L 2222 3769 
z
" transform="scale(0.015625)"/>
       </defs>
       <use xlink:href="#LiberationSans-13"/>
       <use xlink:href="#LiberationSans-11" transform="translate(55.609375 0)"/>
       <use xlink:href="#LiberationSans-17" transform="translate(83.390625 0)"/>
      </g>
     </g>
    </g>
    <g id="xtick_4">
     <g id="line2d_7">
      <path d="M 192.926706 235.301516 
L 192.926706 67.42571 
" clip-path="url(#p1de0901162)" style="fill: none; stroke: #cccccc; stroke-width: 0.8; stroke-linecap: round"/>
     </g>
     <g id="line2d_8"/>
     <g id="text_4">
      <!-- 0.6 -->
      <g style="fill: #262626" transform="translate(185.281706 246.809816) scale(0.11 -0.11)">
       <defs>
        <path id="LiberationSans-19" d="M 3278 1441 
Q 3278 744 2900 340 
Q 2522 -63 1856 -63 
Q 1113 -63 719 490 
Q 325 1044 325 2100 
Q 325 3244 734 3856 
Q 1144 4469 1900 4469 
Q 2897 4469 3156 3572 
L 2619 3475 
Q 2453 4013 1894 4013 
Q 1413 4013 1148 3564 
Q 884 3116 884 2266 
Q 1038 2550 1316 2698 
Q 1594 2847 1953 2847 
Q 2563 2847 2920 2465 
Q 3278 2084 3278 1441 
z
M 2706 1416 
Q 2706 1894 2472 2153 
Q 2238 2413 1819 2413 
Q 1425 2413 1183 2183 
Q 941 1953 941 1550 
Q 941 1041 1192 716 
Q 1444 391 1838 391 
Q 2244 391 2475 664 
Q 2706 938 2706 1416 
z
" transform="scale(0.015625)"/>
       </defs>
       <use xlink:href="#LiberationSans-13"/>
       <use xlink:href="#LiberationSans-11" transform="translate(55.609375 0)"/>
       <use xlink:href="#LiberationSans-19" transform="translate(83.390625 0)"/>
      </g>
     </g>
    </g>
    <g id="xtick_5">
     <g id="line2d_9">
      <path d="M 239.892643 235.301516 
L 239.892643 67.42571 
" clip-path="url(#p1de0901162)" style="fill: none; stroke: #cccccc; stroke-width: 0.8; stroke-linecap: round"/>
     </g>
     <g id="line2d_10"/>
     <g id="text_5">
      <!-- 0.8 -->
      <g style="fill: #262626" transform="translate(232.247643 246.809816) scale(0.11 -0.11)">
       <defs>
        <path id="LiberationSans-1b" d="M 3281 1228 
Q 3281 619 2893 278 
Q 2506 -63 1781 -63 
Q 1075 -63 676 271 
Q 278 606 278 1222 
Q 278 1653 525 1947 
Q 772 2241 1156 2303 
L 1156 2316 
Q 797 2400 589 2681 
Q 381 2963 381 3341 
Q 381 3844 757 4156 
Q 1134 4469 1769 4469 
Q 2419 4469 2795 4162 
Q 3172 3856 3172 3334 
Q 3172 2956 2962 2675 
Q 2753 2394 2391 2322 
L 2391 2309 
Q 2813 2241 3047 1952 
Q 3281 1663 3281 1228 
z
M 2588 3303 
Q 2588 4050 1769 4050 
Q 1372 4050 1164 3862 
Q 956 3675 956 3303 
Q 956 2925 1170 2726 
Q 1384 2528 1775 2528 
Q 2172 2528 2380 2711 
Q 2588 2894 2588 3303 
z
M 2697 1281 
Q 2697 1691 2453 1898 
Q 2209 2106 1769 2106 
Q 1341 2106 1100 1882 
Q 859 1659 859 1269 
Q 859 359 1788 359 
Q 2247 359 2472 579 
Q 2697 800 2697 1281 
z
" transform="scale(0.015625)"/>
       </defs>
       <use xlink:href="#LiberationSans-13"/>
       <use xlink:href="#LiberationSans-11" transform="translate(55.609375 0)"/>
       <use xlink:href="#LiberationSans-1b" transform="translate(83.390625 0)"/>
      </g>
     </g>
    </g>
    <g id="xtick_6">
     <g id="line2d_11">
      <path d="M 286.85858 235.301516 
L 286.85858 67.42571 
" clip-path="url(#p1de0901162)" style="fill: none; stroke: #cccccc; stroke-width: 0.8; stroke-linecap: round"/>
     </g>
     <g id="line2d_12"/>
     <g id="text_6">
      <!-- 1.0 -->
      <g style="fill: #262626" transform="translate(279.21358 246.809816) scale(0.11 -0.11)">
       <defs>
        <path id="LiberationSans-14" d="M 488 0 
L 488 478 
L 1609 478 
L 1609 3866 
L 616 3156 
L 616 3688 
L 1656 4403 
L 2175 4403 
L 2175 478 
L 3247 478 
L 3247 0 
L 488 0 
z
" transform="scale(0.015625)"/>
       </defs>
       <use xlink:href="#LiberationSans-14"/>
       <use xlink:href="#LiberationSans-11" transform="translate(55.609375 0)"/>
       <use xlink:href="#LiberationSans-13" transform="translate(83.390625 0)"/>
      </g>
     </g>
    </g>
    <g id="text_7">
     <!-- $x$ -->
     <g style="fill: #262626" transform="translate(166.143738 261.133059) scale(0.11 -0.11)">
      <defs>
       <path id="DejaVuSans-Oblique-5b" d="M 3841 3500 
L 2234 1784 
L 3219 0 
L 2559 0 
L 1819 1388 
L 531 0 
L -166 0 
L 1556 1844 
L 641 3500 
L 1300 3500 
L 1972 2234 
L 3144 3500 
L 3841 3500 
z
" transform="scale(0.015625)"/>
      </defs>
      <use xlink:href="#DejaVuSans-Oblique-5b" transform="translate(0 0.3125)"/>
     </g>
    </g>
   </g>
   <g id="matplotlib.axis_2">
    <g id="ytick_1">
     <g id="line2d_13">
      <path d="M 40.313242 227.670797 
L 298.574233 227.670797 
" clip-path="url(#p1de0901162)" style="fill: none; stroke: #cccccc; stroke-width: 0.8; stroke-linecap: round"/>
     </g>
     <g id="line2d_14"/>
     <g id="text_8">
      <!-- 0.0 -->
      <g style="fill: #262626" transform="translate(21.523242 231.674948) scale(0.11 -0.11)">
       <use xlink:href="#LiberationSans-13"/>
       <use xlink:href="#LiberationSans-11" transform="translate(55.609375 0)"/>
       <use xlink:href="#LiberationSans-13" transform="translate(83.390625 0)"/>
      </g>
     </g>
    </g>
    <g id="ytick_2">
     <g id="line2d_15">
      <path d="M 40.313242 197.745841 
L 298.574233 197.745841 
" clip-path="url(#p1de0901162)" style="fill: none; stroke: #cccccc; stroke-width: 0.8; stroke-linecap: round"/>
     </g>
     <g id="line2d_16"/>
     <g id="text_9">
      <!-- 0.5 -->
      <g style="fill: #262626" transform="translate(21.523242 201.749991) scale(0.11 -0.11)">
       <defs>
        <path id="LiberationSans-18" d="M 3291 1434 
Q 3291 738 2877 337 
Q 2463 -63 1728 -63 
Q 1113 -63 734 206 
Q 356 475 256 984 
L 825 1050 
Q 1003 397 1741 397 
Q 2194 397 2450 670 
Q 2706 944 2706 1422 
Q 2706 1838 2448 2094 
Q 2191 2350 1753 2350 
Q 1525 2350 1328 2278 
Q 1131 2206 934 2034 
L 384 2034 
L 531 4403 
L 3034 4403 
L 3034 3925 
L 1044 3925 
L 959 2528 
Q 1325 2809 1869 2809 
Q 2519 2809 2905 2428 
Q 3291 2047 3291 1434 
z
" transform="scale(0.015625)"/>
       </defs>
       <use xlink:href="#LiberationSans-13"/>
       <use xlink:href="#LiberationSans-11" transform="translate(55.609375 0)"/>
       <use xlink:href="#LiberationSans-18" transform="translate(83.390625 0)"/>
      </g>
     </g>
    </g>
    <g id="ytick_3">
     <g id="line2d_17">
      <path d="M 40.313242 167.820885 
L 298.574233 167.820885 
" clip-path="url(#p1de0901162)" style="fill: none; stroke: #cccccc; stroke-width: 0.8; stroke-linecap: round"/>
     </g>
     <g id="line2d_18"/>
     <g id="text_10">
      <!-- 1.0 -->
      <g style="fill: #262626" transform="translate(21.523242 171.825035) scale(0.11 -0.11)">
       <use xlink:href="#LiberationSans-14"/>
       <use xlink:href="#LiberationSans-11" transform="translate(55.609375 0)"/>
       <use xlink:href="#LiberationSans-13" transform="translate(83.390625 0)"/>
      </g>
     </g>
    </g>
    <g id="ytick_4">
     <g id="line2d_19">
      <path d="M 40.313242 137.895928 
L 298.574233 137.895928 
" clip-path="url(#p1de0901162)" style="fill: none; stroke: #cccccc; stroke-width: 0.8; stroke-linecap: round"/>
     </g>
     <g id="line2d_20"/>
     <g id="text_11">
      <!-- 1.5 -->
      <g style="fill: #262626" transform="translate(21.523242 141.900079) scale(0.11 -0.11)">
       <use xlink:href="#LiberationSans-14"/>
       <use xlink:href="#LiberationSans-11" transform="translate(55.609375 0)"/>
       <use xlink:href="#LiberationSans-18" transform="translate(83.390625 0)"/>
      </g>
     </g>
    </g>
    <g id="ytick_5">
     <g id="line2d_21">
      <path d="M 40.313242 107.970972 
L 298.574233 107.970972 
" clip-path="url(#p1de0901162)" style="fill: none; stroke: #cccccc; stroke-width: 0.8; stroke-linecap: round"/>
     </g>
     <g id="line2d_22"/>
     <g id="text_12">
      <!-- 2.0 -->
      <g style="fill: #262626" transform="translate(21.523242 111.975123) scale(0.11 -0.11)">
       <use xlink:href="#LiberationSans-15"/>
       <use xlink:href="#LiberationSans-11" transform="translate(55.609375 0)"/>
       <use xlink:href="#LiberationSans-13" transform="translate(83.390625 0)"/>
      </g>
     </g>
    </g>
    <g id="ytick_6">
     <g id="line2d_23">
      <path d="M 40.313242 78.046016 
L 298.574233 78.046016 
" clip-path="url(#p1de0901162)" style="fill: none; stroke: #cccccc; stroke-width: 0.8; stroke-linecap: round"/>
     </g>
     <g id="line2d_24"/>
     <g id="text_13">
      <!-- 2.5 -->
      <g style="fill: #262626" transform="translate(21.523242 82.050166) scale(0.11 -0.11)">
       <use xlink:href="#LiberationSans-15"/>
       <use xlink:href="#LiberationSans-11" transform="translate(55.609375 0)"/>
       <use xlink:href="#LiberationSans-18" transform="translate(83.390625 0)"/>
      </g>
     </g>
    </g>
    <g id="text_14">
     <!-- densidade -->
     <g style="fill: #262626" transform="translate(15.208301 176.745254) rotate(-90) scale(0.11 -0.11)">
      <defs>
       <path id="LiberationSans-47" d="M 2566 544 
Q 2409 219 2151 78 
Q 1894 -63 1513 -63 
Q 872 -63 570 368 
Q 269 800 269 1675 
Q 269 3444 1513 3444 
Q 1897 3444 2153 3303 
Q 2409 3163 2566 2856 
L 2572 2856 
L 2566 3234 
L 2566 4638 
L 3128 4638 
L 3128 697 
Q 3128 169 3147 0 
L 2609 0 
Q 2600 50 2589 231 
Q 2578 413 2578 544 
L 2566 544 
z
M 859 1694 
Q 859 984 1046 678 
Q 1234 372 1656 372 
Q 2134 372 2350 703 
Q 2566 1034 2566 1731 
Q 2566 2403 2350 2715 
Q 2134 3028 1663 3028 
Q 1238 3028 1048 2714 
Q 859 2400 859 1694 
z
" transform="scale(0.015625)"/>
       <path id="LiberationSans-48" d="M 863 1572 
Q 863 991 1103 675 
Q 1344 359 1806 359 
Q 2172 359 2392 506 
Q 2613 653 2691 878 
L 3184 738 
Q 2881 -63 1806 -63 
Q 1056 -63 664 384 
Q 272 831 272 1713 
Q 272 2550 664 2997 
Q 1056 3444 1784 3444 
Q 3275 3444 3275 1647 
L 3275 1572 
L 863 1572 
z
M 2694 2003 
Q 2647 2538 2422 2783 
Q 2197 3028 1775 3028 
Q 1366 3028 1127 2754 
Q 888 2481 869 2003 
L 2694 2003 
z
" transform="scale(0.015625)"/>
       <path id="LiberationSans-51" d="M 2578 0 
L 2578 2144 
Q 2578 2478 2512 2662 
Q 2447 2847 2303 2928 
Q 2159 3009 1881 3009 
Q 1475 3009 1240 2731 
Q 1006 2453 1006 1959 
L 1006 0 
L 444 0 
L 444 2659 
Q 444 3250 425 3381 
L 956 3381 
Q 959 3366 962 3297 
Q 966 3228 970 3139 
Q 975 3050 981 2803 
L 991 2803 
Q 1184 3153 1439 3298 
Q 1694 3444 2072 3444 
Q 2628 3444 2886 3167 
Q 3144 2891 3144 2253 
L 3144 0 
L 2578 0 
z
" transform="scale(0.015625)"/>
       <path id="LiberationSans-56" d="M 2969 934 
Q 2969 456 2608 196 
Q 2247 -63 1597 -63 
Q 966 -63 623 145 
Q 281 353 178 794 
L 675 891 
Q 747 619 972 492 
Q 1197 366 1597 366 
Q 2025 366 2223 497 
Q 2422 628 2422 891 
Q 2422 1091 2284 1216 
Q 2147 1341 1841 1422 
L 1438 1528 
Q 953 1653 748 1773 
Q 544 1894 428 2066 
Q 313 2238 313 2488 
Q 313 2950 642 3192 
Q 972 3434 1603 3434 
Q 2163 3434 2492 3237 
Q 2822 3041 2909 2606 
L 2403 2544 
Q 2356 2769 2151 2889 
Q 1947 3009 1603 3009 
Q 1222 3009 1040 2893 
Q 859 2778 859 2544 
Q 859 2400 934 2306 
Q 1009 2213 1156 2147 
Q 1303 2081 1775 1966 
Q 2222 1853 2419 1758 
Q 2616 1663 2730 1547 
Q 2844 1431 2906 1279 
Q 2969 1128 2969 934 
z
" transform="scale(0.015625)"/>
       <path id="LiberationSans-4c" d="M 428 4100 
L 428 4638 
L 991 4638 
L 991 4100 
L 428 4100 
z
M 428 0 
L 428 3381 
L 991 3381 
L 991 0 
L 428 0 
z
" transform="scale(0.015625)"/>
       <path id="LiberationSans-44" d="M 1294 -63 
Q 784 -63 528 206 
Q 272 475 272 944 
Q 272 1469 617 1750 
Q 963 2031 1731 2050 
L 2491 2063 
L 2491 2247 
Q 2491 2659 2316 2837 
Q 2141 3016 1766 3016 
Q 1388 3016 1216 2887 
Q 1044 2759 1009 2478 
L 422 2531 
Q 566 3444 1778 3444 
Q 2416 3444 2737 3151 
Q 3059 2859 3059 2306 
L 3059 850 
Q 3059 600 3125 473 
Q 3191 347 3375 347 
Q 3456 347 3559 369 
L 3559 19 
Q 3347 -31 3125 -31 
Q 2813 -31 2670 133 
Q 2528 297 2509 647 
L 2491 647 
Q 2275 259 1989 98 
Q 1703 -63 1294 -63 
z
M 1422 359 
Q 1731 359 1972 500 
Q 2213 641 2352 886 
Q 2491 1131 2491 1391 
L 2491 1669 
L 1875 1656 
Q 1478 1650 1273 1575 
Q 1069 1500 959 1344 
Q 850 1188 850 934 
Q 850 659 998 509 
Q 1147 359 1422 359 
z
" transform="scale(0.015625)"/>
      </defs>
      <use xlink:href="#LiberationSans-47"/>
      <use xlink:href="#LiberationSans-48" transform="translate(55.609375 0)"/>
      <use xlink:href="#LiberationSans-51" transform="translate(111.21875 0)"/>
      <use xlink:href="#LiberationSans-56" transform="translate(166.828125 0)"/>
      <use xlink:href="#LiberationSans-4c" transform="translate(216.828125 0)"/>
      <use xlink:href="#LiberationSans-47" transform="translate(239.046875 0)"/>
      <use xlink:href="#LiberationSans-44" transform="translate(294.65625 0)"/>
      <use xlink:href="#LiberationSans-47" transform="translate(350.265625 0)"/>
      <use xlink:href="#LiberationSans-48" transform="translate(405.875 0)"/>
     </g>
    </g>
   </g>
   <g id="line2d_25">
    <path d="M 52.052378 227.491319 
L 54.637573 208.596599 
L 57.222768 191.357172 
L 59.807963 175.690576 
L 62.158141 162.745703 
L 64.508318 150.97618 
L 66.858496 140.325277 
L 69.208673 130.73788 
L 71.323833 122.974252 
L 73.438992 115.990762 
L 75.554152 109.750501 
L 77.669311 104.217562 
L 79.549453 99.86495 
L 81.429595 96.01974 
L 83.309737 92.658669 
L 85.189879 89.759066 
L 87.070021 87.298856 
L 88.715145 85.489698 
L 90.360269 83.986446 
L 92.005393 82.775397 
L 93.650518 81.843178 
L 95.295642 81.176743 
L 96.940766 80.763369 
L 98.58589 80.590652 
L 100.231014 80.646506 
L 101.876138 80.919154 
L 103.521262 81.397131 
L 105.401404 82.180508 
L 107.281546 83.201323 
L 109.396706 84.614055 
L 111.511866 86.285914 
L 113.862043 88.422211 
L 116.447238 91.079405 
L 119.267451 94.30567 
L 122.322681 98.138101 
L 125.847947 102.930582 
L 129.843249 108.752755 
L 134.543604 116.004633 
L 140.889083 126.238684 
L 160.160537 157.613686 
L 165.800963 166.234655 
L 170.971353 173.732281 
L 175.671708 180.158861 
L 180.137045 185.887297 
L 184.367364 190.95504 
L 188.362665 195.408439 
L 192.357967 199.531972 
L 196.118251 203.109398 
L 199.878535 206.393396 
L 203.638818 209.387551 
L 207.399102 212.097866 
L 211.159386 214.532526 
L 214.91967 216.701679 
L 218.679953 218.617206 
L 222.440237 220.292494 
L 226.435539 221.825681 
L 230.43084 223.123116 
L 234.66116 224.26206 
L 239.126497 225.228888 
L 243.826851 226.017241 
L 248.997241 226.653143 
L 254.637667 227.121725 
L 261.218164 227.443466 
L 269.678802 227.623127 
L 284.48492 227.670779 
L 286.835097 227.670797 
L 286.835097 227.670797 
" clip-path="url(#p1de0901162)" style="fill: none; stroke: #c0392b; stroke-width: 2.6; stroke-linecap: round"/>
   </g>
   <g id="line2d_26">
    <path d="M 52.052378 227.670797 
L 76.964258 227.562359 
L 84.484826 227.294197 
L 90.125251 226.877794 
L 94.825606 226.319019 
L 99.055925 225.599497 
L 103.051227 224.687963 
L 106.576493 223.66319 
L 110.101759 222.401892 
L 113.392007 220.986276 
L 116.682256 219.317544 
L 119.737486 217.522732 
L 122.792717 215.475435 
L 125.847947 213.16127 
L 128.903178 210.567644 
L 131.958409 207.68408 
L 135.013639 204.502518 
L 138.303887 200.736898 
L 141.594136 196.616767 
L 144.884384 192.143794 
L 148.40965 186.967212 
L 152.169934 181.023738 
L 156.165235 174.261073 
L 160.395555 166.645852 
L 165.095909 157.717243 
L 170.971353 146.039346 
L 189.067719 109.661429 
L 193.06302 102.331448 
L 196.588286 96.322908 
L 199.643517 91.547731 
L 202.46373 87.558649 
L 205.048925 84.302751 
L 207.399102 81.711431 
L 209.514262 79.70556 
L 211.394404 78.200406 
L 213.274545 76.972249 
L 214.91967 76.136135 
L 216.564794 75.532327 
L 218.209918 75.169644 
L 219.855042 75.056429 
L 221.265149 75.163878 
L 222.675255 75.464927 
L 224.085361 75.963796 
L 225.730486 76.800924 
L 227.37561 77.917879 
L 229.020734 79.319187 
L 230.665858 81.008458 
L 232.546 83.294965 
L 234.426142 85.963135 
L 236.306284 89.013141 
L 238.421443 92.898234 
L 240.536603 97.257591 
L 242.88678 102.644649 
L 245.236958 108.583327 
L 247.822153 115.719116 
L 250.642366 124.168154 
L 253.697596 134.011876 
L 257.45788 146.923912 
L 262.62827 165.568858 
L 269.443785 190.053724 
L 272.499015 200.246653 
L 275.08421 208.1256 
L 277.19937 213.881495 
L 279.079512 218.347481 
L 280.724636 221.660834 
L 282.134742 223.995182 
L 283.309831 225.542895 
L 284.48492 226.694363 
L 285.424991 227.307368 
L 286.365062 227.626853 
L 286.835097 227.670697 
L 286.835097 227.670697 
" clip-path="url(#p1de0901162)" style="fill: none; stroke: #2471a3; stroke-width: 2.6; stroke-linecap: round"/>
   </g>
   <g id="line2d_27">
    <path d="M 162.926358 235.301516 
L 162.926358 67.42571 
" clip-path="url(#p1de0901162)" style="fill: none; stroke-dasharray: 7.4,3.2; stroke-dashoffset: 0; stroke: #117a65; stroke-width: 2"/>
   </g>
   <g id="patch_3">
    <path d="M 40.313242 235.301516 
L 40.313242 67.42571 
" style="fill: none; stroke: #cccccc; stroke-linejoin: miter; stroke-linecap: square"/>
   </g>
   <g id="patch_4">
    <path d="M 298.574233 235.301516 
L 298.574233 67.42571 
" style="fill: none; stroke: #cccccc; stroke-linejoin: miter; stroke-linecap: square"/>
   </g>
   <g id="patch_5">
    <path d="M 40.313242 235.301516 
L 298.574233 235.301516 
" style="fill: none; stroke: #cccccc; stroke-linejoin: miter; stroke-linecap: square"/>
   </g>
   <g id="patch_6">
    <path d="M 40.313242 67.42571 
L 298.574233 67.42571 
" style="fill: none; stroke: #cccccc; stroke-linejoin: miter; stroke-linecap: square"/>
   </g>
   <g id="text_15">
    <!-- Condicionais — cruzam em 0.47 -->
    <g style="fill: #262626" transform="translate(77.752488 48.365163) scale(0.12 -0.12)">
     <defs>
      <path id="LiberationSans-Bold-26" d="M 2484 663 
Q 3319 663 3644 1500 
L 4447 1197 
Q 4188 559 3686 248 
Q 3184 -63 2484 -63 
Q 1422 -63 842 539 
Q 263 1141 263 2222 
Q 263 3306 822 3887 
Q 1381 4469 2444 4469 
Q 3219 4469 3706 4158 
Q 4194 3847 4391 3244 
L 3578 3022 
Q 3475 3353 3173 3548 
Q 2872 3744 2463 3744 
Q 1838 3744 1514 3356 
Q 1191 2969 1191 2222 
Q 1191 1463 1523 1063 
Q 1856 663 2484 663 
z
" transform="scale(0.015625)"/>
      <path id="LiberationSans-Bold-52" d="M 3659 1694 
Q 3659 872 3203 404 
Q 2747 -63 1941 -63 
Q 1150 -63 700 406 
Q 250 875 250 1694 
Q 250 2509 700 2976 
Q 1150 3444 1959 3444 
Q 2788 3444 3223 2992 
Q 3659 2541 3659 1694 
z
M 2741 1694 
Q 2741 2297 2544 2569 
Q 2347 2841 1972 2841 
Q 1172 2841 1172 1694 
Q 1172 1128 1367 833 
Q 1563 538 1931 538 
Q 2741 538 2741 1694 
z
" transform="scale(0.015625)"/>
      <path id="LiberationSans-Bold-51" d="M 2638 0 
L 2638 1897 
Q 2638 2788 2034 2788 
Q 1716 2788 1520 2514 
Q 1325 2241 1325 1813 
L 1325 0 
L 447 0 
L 447 2625 
Q 447 2897 439 3070 
Q 431 3244 422 3381 
L 1259 3381 
Q 1269 3322 1284 3064 
Q 1300 2806 1300 2709 
L 1313 2709 
Q 1491 3097 1759 3272 
Q 2028 3447 2400 3447 
Q 2938 3447 3225 3115 
Q 3513 2784 3513 2147 
L 3513 0 
L 2638 0 
z
" transform="scale(0.015625)"/>
      <path id="LiberationSans-Bold-47" d="M 2638 0 
Q 2625 47 2608 236 
Q 2591 425 2591 550 
L 2578 550 
Q 2294 -63 1497 -63 
Q 906 -63 584 398 
Q 263 859 263 1688 
Q 263 2528 602 2986 
Q 941 3444 1563 3444 
Q 1922 3444 2183 3294 
Q 2444 3144 2584 2847 
L 2591 2847 
L 2584 3403 
L 2584 4638 
L 3463 4638 
L 3463 738 
Q 3463 425 3488 0 
L 2638 0 
z
M 2597 1709 
Q 2597 2256 2414 2551 
Q 2231 2847 1875 2847 
Q 1522 2847 1350 2561 
Q 1178 2275 1178 1688 
Q 1178 538 1869 538 
Q 2216 538 2406 842 
Q 2597 1147 2597 1709 
z
" transform="scale(0.015625)"/>
      <path id="LiberationSans-Bold-4c" d="M 447 3991 
L 447 4638 
L 1325 4638 
L 1325 3991 
L 447 3991 
z
M 447 0 
L 447 3381 
L 1325 3381 
L 1325 0 
L 447 0 
z
" transform="scale(0.015625)"/>
      <path id="LiberationSans-Bold-46" d="M 1856 -63 
Q 1088 -63 669 395 
Q 250 853 250 1672 
Q 250 2509 672 2976 
Q 1094 3444 1869 3444 
Q 2466 3444 2856 3144 
Q 3247 2844 3347 2316 
L 2463 2272 
Q 2425 2531 2275 2686 
Q 2125 2841 1850 2841 
Q 1172 2841 1172 1706 
Q 1172 538 1863 538 
Q 2113 538 2281 695 
Q 2450 853 2491 1166 
L 3372 1125 
Q 3325 778 3123 506 
Q 2922 234 2594 85 
Q 2266 -63 1856 -63 
z
" transform="scale(0.015625)"/>
      <path id="LiberationSans-Bold-44" d="M 1228 -63 
Q 738 -63 463 204 
Q 188 472 188 956 
Q 188 1481 530 1756 
Q 872 2031 1522 2038 
L 2250 2050 
L 2250 2222 
Q 2250 2553 2134 2714 
Q 2019 2875 1756 2875 
Q 1513 2875 1398 2764 
Q 1284 2653 1256 2397 
L 341 2441 
Q 425 2934 792 3189 
Q 1159 3444 1794 3444 
Q 2434 3444 2781 3128 
Q 3128 2813 3128 2231 
L 3128 1000 
Q 3128 716 3192 608 
Q 3256 500 3406 500 
Q 3506 500 3600 519 
L 3600 44 
Q 3522 25 3459 9 
Q 3397 -6 3334 -15 
Q 3272 -25 3201 -31 
Q 3131 -38 3038 -38 
Q 2706 -38 2548 125 
Q 2391 288 2359 603 
L 2341 603 
Q 1972 -63 1228 -63 
z
M 2250 1566 
L 1800 1559 
Q 1494 1547 1366 1492 
Q 1238 1438 1170 1325 
Q 1103 1213 1103 1025 
Q 1103 784 1214 667 
Q 1325 550 1509 550 
Q 1716 550 1886 662 
Q 2056 775 2153 973 
Q 2250 1172 2250 1394 
L 2250 1566 
z
" transform="scale(0.015625)"/>
      <path id="LiberationSans-Bold-56" d="M 3297 988 
Q 3297 497 2895 217 
Q 2494 -63 1784 -63 
Q 1088 -63 717 157 
Q 347 378 225 844 
L 997 959 
Q 1063 719 1223 619 
Q 1384 519 1784 519 
Q 2153 519 2322 612 
Q 2491 706 2491 906 
Q 2491 1069 2355 1164 
Q 2219 1259 1894 1325 
Q 1150 1472 890 1598 
Q 631 1725 495 1926 
Q 359 2128 359 2422 
Q 359 2906 732 3176 
Q 1106 3447 1791 3447 
Q 2394 3447 2761 3212 
Q 3128 2978 3219 2534 
L 2441 2453 
Q 2403 2659 2256 2761 
Q 2109 2863 1791 2863 
Q 1478 2863 1322 2783 
Q 1166 2703 1166 2516 
Q 1166 2369 1286 2283 
Q 1406 2197 1691 2141 
Q 2088 2059 2395 1973 
Q 2703 1888 2889 1769 
Q 3075 1650 3186 1464 
Q 3297 1278 3297 988 
z
" transform="scale(0.015625)"/>
      <path id="LiberationSans-Bold-3" transform="scale(0.015625)"/>
      <path id="LiberationSans-Bold-7e0" d="M 0 1400 
L 0 2034 
L 6400 2034 
L 6400 1400 
L 0 1400 
z
" transform="scale(0.015625)"/>
      <path id="LiberationSans-Bold-55" d="M 447 0 
L 447 2588 
Q 447 2866 439 3052 
Q 431 3238 422 3381 
L 1259 3381 
Q 1269 3325 1284 3039 
Q 1300 2753 1300 2659 
L 1313 2659 
Q 1441 3016 1541 3161 
Q 1641 3306 1778 3376 
Q 1916 3447 2122 3447 
Q 2291 3447 2394 3400 
L 2394 2666 
Q 2181 2713 2019 2713 
Q 1691 2713 1508 2447 
Q 1325 2181 1325 1659 
L 1325 0 
L 447 0 
z
" transform="scale(0.015625)"/>
      <path id="LiberationSans-Bold-58" d="M 1275 3381 
L 1275 1484 
Q 1275 594 1875 594 
Q 2194 594 2389 867 
Q 2584 1141 2584 1569 
L 2584 3381 
L 3463 3381 
L 3463 756 
Q 3463 325 3488 0 
L 2650 0 
Q 2613 450 2613 672 
L 2597 672 
Q 2422 288 2151 112 
Q 1881 -63 1509 -63 
Q 972 -63 684 267 
Q 397 597 397 1234 
L 397 3381 
L 1275 3381 
z
" transform="scale(0.015625)"/>
      <path id="LiberationSans-Bold-5d" d="M 256 0 
L 256 622 
L 1847 2747 
L 384 2747 
L 384 3381 
L 2816 3381 
L 2816 2753 
L 1234 641 
L 2969 641 
L 2969 0 
L 256 0 
z
" transform="scale(0.015625)"/>
      <path id="LiberationSans-Bold-50" d="M 2438 0 
L 2438 1897 
Q 2438 2788 1925 2788 
Q 1659 2788 1492 2516 
Q 1325 2244 1325 1813 
L 1325 0 
L 447 0 
L 447 2625 
Q 447 2897 439 3070 
Q 431 3244 422 3381 
L 1259 3381 
Q 1269 3322 1284 3064 
Q 1300 2806 1300 2709 
L 1313 2709 
Q 1475 3097 1717 3272 
Q 1959 3447 2297 3447 
Q 3072 3447 3238 2709 
L 3256 2709 
Q 3428 3103 3668 3275 
Q 3909 3447 4281 3447 
Q 4775 3447 5034 3111 
Q 5294 2775 5294 2147 
L 5294 0 
L 4422 0 
L 4422 1897 
Q 4422 2788 3909 2788 
Q 3653 2788 3489 2539 
Q 3325 2291 3309 1853 
L 3309 0 
L 2438 0 
z
" transform="scale(0.015625)"/>
      <path id="LiberationSans-Bold-48" d="M 1831 -63 
Q 1069 -63 659 389 
Q 250 841 250 1706 
Q 250 2544 665 2994 
Q 1081 3444 1844 3444 
Q 2572 3444 2956 2961 
Q 3341 2478 3341 1547 
L 3341 1522 
L 1172 1522 
Q 1172 1028 1355 776 
Q 1538 525 1875 525 
Q 2341 525 2463 928 
L 3291 856 
Q 2931 -63 1831 -63 
z
M 1831 2891 
Q 1522 2891 1355 2675 
Q 1188 2459 1178 2072 
L 2491 2072 
Q 2466 2481 2294 2686 
Q 2122 2891 1831 2891 
z
" transform="scale(0.015625)"/>
      <path id="LiberationSans-Bold-13" d="M 3297 2203 
Q 3297 1088 2914 512 
Q 2531 -63 1766 -63 
Q 253 -63 253 2203 
Q 253 2994 418 3494 
Q 584 3994 915 4231 
Q 1247 4469 1791 4469 
Q 2572 4469 2934 3903 
Q 3297 3338 3297 2203 
z
M 2416 2203 
Q 2416 2813 2356 3150 
Q 2297 3488 2165 3634 
Q 2034 3781 1784 3781 
Q 1519 3781 1383 3632 
Q 1247 3484 1189 3148 
Q 1131 2813 1131 2203 
Q 1131 1600 1192 1261 
Q 1253 922 1386 775 
Q 1519 628 1772 628 
Q 2022 628 2158 783 
Q 2294 938 2355 1278 
Q 2416 1619 2416 2203 
z
" transform="scale(0.015625)"/>
      <path id="LiberationSans-Bold-11" d="M 434 0 
L 434 953 
L 1338 953 
L 1338 0 
L 434 0 
z
" transform="scale(0.015625)"/>
      <path id="LiberationSans-Bold-17" d="M 2938 897 
L 2938 0 
L 2100 0 
L 2100 897 
L 97 897 
L 97 1556 
L 1956 4403 
L 2938 4403 
L 2938 1550 
L 3525 1550 
L 3525 897 
L 2938 897 
z
M 2100 2991 
Q 2100 3159 2111 3356 
Q 2122 3553 2128 3609 
Q 2047 3434 1834 3103 
L 813 1550 
L 2100 1550 
L 2100 2991 
z
" transform="scale(0.015625)"/>
      <path id="LiberationSans-Bold-1a" d="M 3278 3706 
Q 2981 3238 2717 2797 
Q 2453 2356 2256 1911 
Q 2059 1466 1945 995 
Q 1831 525 1831 0 
L 916 0 
Q 916 550 1059 1064 
Q 1203 1578 1475 2111 
Q 1747 2644 2463 3681 
L 275 3681 
L 275 4403 
L 3278 4403 
L 3278 3706 
z
" transform="scale(0.015625)"/>
     </defs>
     <use xlink:href="#LiberationSans-Bold-26"/>
     <use xlink:href="#LiberationSans-Bold-52" transform="translate(72.21875 0)"/>
     <use xlink:href="#LiberationSans-Bold-51" transform="translate(133.296875 0)"/>
     <use xlink:href="#LiberationSans-Bold-47" transform="translate(194.375 0)"/>
     <use xlink:href="#LiberationSans-Bold-4c" transform="translate(255.453125 0)"/>
     <use xlink:href="#LiberationSans-Bold-46" transform="translate(283.234375 0)"/>
     <use xlink:href="#LiberationSans-Bold-4c" transform="translate(338.84375 0)"/>
     <use xlink:href="#LiberationSans-Bold-52" transform="translate(366.625 0)"/>
     <use xlink:href="#LiberationSans-Bold-51" transform="translate(427.703125 0)"/>
     <use xlink:href="#LiberationSans-Bold-44" transform="translate(488.78125 0)"/>
     <use xlink:href="#LiberationSans-Bold-4c" transform="translate(544.390625 0)"/>
     <use xlink:href="#LiberationSans-Bold-56" transform="translate(572.171875 0)"/>
     <use xlink:href="#LiberationSans-Bold-3" transform="translate(627.78125 0)"/>
     <use xlink:href="#LiberationSans-Bold-7e0" transform="translate(655.5625 0)"/>
     <use xlink:href="#LiberationSans-Bold-3" transform="translate(755.5625 0)"/>
     <use xlink:href="#LiberationSans-Bold-46" transform="translate(783.34375 0)"/>
     <use xlink:href="#LiberationSans-Bold-55" transform="translate(838.953125 0)"/>
     <use xlink:href="#LiberationSans-Bold-58" transform="translate(877.875 0)"/>
     <use xlink:href="#LiberationSans-Bold-5d" transform="translate(938.953125 0)"/>
     <use xlink:href="#LiberationSans-Bold-44" transform="translate(988.953125 0)"/>
     <use xlink:href="#LiberationSans-Bold-50" transform="translate(1044.5625 0)"/>
     <use xlink:href="#LiberationSans-Bold-3" transform="translate(1133.484375 0)"/>
     <use xlink:href="#LiberationSans-Bold-48" transform="translate(1161.265625 0)"/>
     <use xlink:href="#LiberationSans-Bold-50" transform="translate(1216.875 0)"/>
     <use xlink:href="#LiberationSans-Bold-3" transform="translate(1305.796875 0)"/>
     <use xlink:href="#LiberationSans-Bold-13" transform="translate(1333.578125 0)"/>
     <use xlink:href="#LiberationSans-Bold-11" transform="translate(1389.1875 0)"/>
     <use xlink:href="#LiberationSans-Bold-17" transform="translate(1416.96875 0)"/>
     <use xlink:href="#LiberationSans-Bold-1a" transform="translate(1472.578125 0)"/>
    </g>
    <!-- (148 erros) -->
    <g style="fill: #262626" transform="translate(138.763113 61.42571) scale(0.12 -0.12)">
     <defs>
      <path id="LiberationSans-Bold-b" d="M 1247 -1328 
Q 756 -622 537 81 
Q 319 784 319 1659 
Q 319 2531 537 3232 
Q 756 3934 1247 4638 
L 2125 4638 
Q 1631 3925 1407 3219 
Q 1184 2513 1184 1656 
Q 1184 803 1406 101 
Q 1628 -600 2125 -1328 
L 1247 -1328 
z
" transform="scale(0.015625)"/>
      <path id="LiberationSans-Bold-14" d="M 403 0 
L 403 653 
L 1494 653 
L 1494 3656 
L 438 2997 
L 438 3688 
L 1541 4403 
L 2372 4403 
L 2372 653 
L 3381 653 
L 3381 0 
L 403 0 
z
" transform="scale(0.015625)"/>
      <path id="LiberationSans-Bold-1b" d="M 3363 1241 
Q 3363 622 2953 279 
Q 2544 -63 1784 -63 
Q 1031 -63 617 278 
Q 203 619 203 1234 
Q 203 1656 447 1945 
Q 691 2234 1100 2303 
L 1100 2316 
Q 744 2394 525 2669 
Q 306 2944 306 3303 
Q 306 3844 689 4156 
Q 1072 4469 1772 4469 
Q 2488 4469 2870 4164 
Q 3253 3859 3253 3297 
Q 3253 2938 3036 2666 
Q 2819 2394 2453 2322 
L 2453 2309 
Q 2878 2241 3120 1961 
Q 3363 1681 3363 1241 
z
M 2350 3250 
Q 2350 3563 2206 3708 
Q 2063 3853 1772 3853 
Q 1203 3853 1203 3250 
Q 1203 2619 1778 2619 
Q 2066 2619 2208 2766 
Q 2350 2913 2350 3250 
z
M 2453 1313 
Q 2453 2003 1766 2003 
Q 1447 2003 1276 1822 
Q 1106 1641 1106 1300 
Q 1106 913 1275 734 
Q 1444 556 1791 556 
Q 2131 556 2292 734 
Q 2453 913 2453 1313 
z
" transform="scale(0.015625)"/>
      <path id="LiberationSans-Bold-c" d="M 6 -1328 
Q 506 -597 726 101 
Q 947 800 947 1656 
Q 947 2516 722 3223 
Q 497 3931 6 4638 
L 884 4638 
Q 1378 3928 1595 3225 
Q 1813 2522 1813 1659 
Q 1813 791 1595 87 
Q 1378 -616 884 -1328 
L 6 -1328 
z
" transform="scale(0.015625)"/>
     </defs>
     <use xlink:href="#LiberationSans-Bold-b"/>
     <use xlink:href="#LiberationSans-Bold-14" transform="translate(33.296875 0)"/>
     <use xlink:href="#LiberationSans-Bold-17" transform="translate(88.90625 0)"/>
     <use xlink:href="#LiberationSans-Bold-1b" transform="translate(144.515625 0)"/>
     <use xlink:href="#LiberationSans-Bold-3" transform="translate(200.125 0)"/>
     <use xlink:href="#LiberationSans-Bold-48" transform="translate(227.90625 0)"/>
     <use xlink:href="#LiberationSans-Bold-55" transform="translate(283.515625 0)"/>
     <use xlink:href="#LiberationSans-Bold-55" transform="translate(322.4375 0)"/>
     <use xlink:href="#LiberationSans-Bold-52" transform="translate(361.359375 0)"/>
     <use xlink:href="#LiberationSans-Bold-56" transform="translate(422.4375 0)"/>
     <use xlink:href="#LiberationSans-Bold-c" transform="translate(478.046875 0)"/>
    </g>
   </g>
   <g id="legend_1">
    <g id="patch_7">
     <path d="M 227.564233 101.62571 
L 292.274233 101.62571 
Q 294.074233 101.62571 294.074233 99.82571 
L 294.074233 73.72571 
Q 294.074233 71.92571 292.274233 71.92571 
L 227.564233 71.92571 
Q 225.764233 71.92571 225.764233 73.72571 
L 225.764233 99.82571 
Q 225.764233 101.62571 227.564233 101.62571 
z
" style="fill: #ffffff; opacity: 0.9; stroke: #cccccc; stroke-linejoin: miter"/>
    </g>
    <g id="line2d_28">
     <path d="M 229.364233 79.39571 
L 238.364233 79.39571 
L 247.364233 79.39571 
" style="fill: none; stroke: #c0392b; stroke-width: 2.6; stroke-linecap: round"/>
    </g>
    <g id="text_16">
     <!-- $p(x \mid \mathcal{C}_A)$ -->
     <g style="fill: #262626" transform="translate(254.564233 82.54571) scale(0.09 -0.09)">
      <defs>
       <path id="DejaVuSans-Oblique-53" d="M 3175 2156 
Q 3175 2616 2975 2859 
Q 2775 3103 2400 3103 
Q 2144 3103 1911 2972 
Q 1678 2841 1497 2591 
Q 1319 2344 1212 1994 
Q 1106 1644 1106 1300 
Q 1106 863 1306 627 
Q 1506 391 1875 391 
Q 2147 391 2380 519 
Q 2613 647 2778 891 
Q 2956 1147 3065 1494 
Q 3175 1841 3175 2156 
z
M 1394 2969 
Q 1625 3272 1939 3428 
Q 2253 3584 2638 3584 
Q 3175 3584 3472 3232 
Q 3769 2881 3769 2247 
Q 3769 1728 3584 1258 
Q 3400 788 3053 416 
Q 2822 169 2531 39 
Q 2241 -91 1919 -91 
Q 1547 -91 1294 64 
Q 1041 219 916 525 
L 556 -1331 
L -19 -1331 
L 922 3500 
L 1497 3500 
L 1394 2969 
z
" transform="scale(0.015625)"/>
       <path id="DejaVuSans-b" d="M 1984 4856 
Q 1566 4138 1362 3434 
Q 1159 2731 1159 2009 
Q 1159 1288 1364 580 
Q 1569 -128 1984 -844 
L 1484 -844 
Q 1016 -109 783 600 
Q 550 1309 550 2009 
Q 550 2706 781 3412 
Q 1013 4119 1484 4856 
L 1984 4856 
z
" transform="scale(0.015625)"/>
       <path id="DejaVuSans-cad" d="M 1350 4934 
L 1850 4934 
L 1850 -1369 
L 1350 -1369 
L 1350 4934 
z
" transform="scale(0.015625)"/>
       <path id="STIXNonUnicode-Italic-75" d="M 3290 896 
L 3386 794 
Q 3354 742 3309 684 
Q 3264 627 3110 476 
Q 2957 326 2787 217 
Q 2618 109 2346 19 
Q 2074 -70 1786 -70 
Q 1158 -70 716 298 
Q 275 666 275 1402 
Q 275 2432 947 3232 
Q 1619 4032 2560 4243 
Q 2803 4294 2989 4294 
Q 3334 4294 3542 4134 
Q 3750 3974 3750 3693 
Q 3750 3520 3609 3334 
Q 3469 3149 3270 3149 
Q 3104 3149 3008 3245 
Q 2912 3341 2912 3482 
Q 2912 3590 2963 3664 
Q 3014 3738 3072 3763 
Q 3130 3789 3181 3827 
Q 3232 3866 3232 3923 
Q 3232 3987 3136 4028 
Q 3040 4070 2925 4070 
Q 2406 4070 1939 3708 
Q 1472 3347 1210 2701 
Q 960 2074 960 1370 
Q 960 787 1251 496 
Q 1542 205 1997 205 
Q 2637 205 3290 896 
z
" transform="scale(0.015625)"/>
       <path id="DejaVuSans-Oblique-24" d="M 2356 4666 
L 3072 4666 
L 3938 0 
L 3278 0 
L 3084 1197 
L 984 1197 
L 325 0 
L -341 0 
L 2356 4666 
z
M 2584 4044 
L 1275 1722 
L 2988 1722 
L 2584 4044 
z
" transform="scale(0.015625)"/>
       <path id="DejaVuSans-c" d="M 513 4856 
L 1013 4856 
Q 1481 4119 1714 3412 
Q 1947 2706 1947 2009 
Q 1947 1309 1714 600 
Q 1481 -109 1013 -844 
L 513 -844 
Q 928 -128 1133 580 
Q 1338 1288 1338 2009 
Q 1338 2731 1133 3434 
Q 928 4138 513 4856 
z
" transform="scale(0.015625)"/>
      </defs>
      <use xlink:href="#DejaVuSans-Oblique-53" transform="translate(0 0.90625)"/>
      <use xlink:href="#DejaVuSans-b" transform="translate(63.476562 0.90625)"/>
      <use xlink:href="#DejaVuSans-Oblique-5b" transform="translate(102.490234 0.90625)"/>
      <use xlink:href="#DejaVuSans-cad" transform="translate(181.152344 0.90625)"/>
      <use xlink:href="#STIXNonUnicode-Italic-75" transform="translate(250.634766 0.90625)"/>
      <use xlink:href="#DejaVuSans-Oblique-24" transform="translate(308.491745 -14.093701) scale(0.7)"/>
      <use xlink:href="#DejaVuSans-c" transform="translate(359.111862 0.90625)"/>
     </g>
    </g>
    <g id="line2d_29">
     <path d="M 229.364233 92.89571 
L 238.364233 92.89571 
L 247.364233 92.89571 
" style="fill: none; stroke: #2471a3; stroke-width: 2.6; stroke-linecap: round"/>
    </g>
    <g id="text_17">
     <!-- $p(x \mid \mathcal{C}_B)$ -->
     <g style="fill: #262626" transform="translate(254.564233 96.04571) scale(0.09 -0.09)">
      <defs>
       <path id="DejaVuSans-Oblique-25" d="M 1081 4666 
L 2694 4666 
Q 3350 4666 3675 4422 
Q 4000 4178 4000 3688 
Q 4000 3238 3720 2911 
Q 3441 2584 2988 2516 
Q 3375 2428 3569 2181 
Q 3763 1934 3763 1522 
Q 3763 819 3242 409 
Q 2722 0 1819 0 
L 172 0 
L 1081 4666 
z
M 1234 2228 
L 903 519 
L 1919 519 
Q 2491 519 2800 781 
Q 3109 1044 3109 1522 
Q 3109 1891 2904 2059 
Q 2700 2228 2247 2228 
L 1234 2228 
z
M 1606 4147 
L 1331 2741 
L 2272 2741 
Q 2775 2741 3058 2959 
Q 3341 3178 3341 3566 
Q 3341 3869 3150 4008 
Q 2959 4147 2541 4147 
L 1606 4147 
z
" transform="scale(0.015625)"/>
      </defs>
      <use xlink:href="#DejaVuSans-Oblique-53" transform="translate(0 0.90625)"/>
      <use xlink:href="#DejaVuSans-b" transform="translate(63.476562 0.90625)"/>
      <use xlink:href="#DejaVuSans-Oblique-5b" transform="translate(102.490234 0.90625)"/>
      <use xlink:href="#DejaVuSans-cad" transform="translate(181.152344 0.90625)"/>
      <use xlink:href="#STIXNonUnicode-Italic-75" transform="translate(250.634766 0.90625)"/>
      <use xlink:href="#DejaVuSans-Oblique-25" transform="translate(308.491745 -14.093701) scale(0.7)"/>
      <use xlink:href="#DejaVuSans-c" transform="translate(359.248581 0.90625)"/>
     </g>
    </g>
   </g>
  </g>
  <g id="axes_2">
   <g id="patch_8">
    <path d="M 329.461925 235.301516 
L 587.722916 235.301516 
L 587.722916 67.42571 
L 329.461925 67.42571 
z
" style="fill: #ffffff"/>
   </g>
   <g id="matplotlib.axis_3">
    <g id="xtick_7">
     <g id="line2d_30">
      <path d="M 341.177578 235.301516 
L 341.177578 67.42571 
" clip-path="url(#p3516545980)" style="fill: none; stroke: #cccccc; stroke-width: 0.8; stroke-linecap: round"/>
     </g>
     <g id="line2d_31"/>
     <g id="text_18">
      <!-- 0.0 -->
      <g style="fill: #262626" transform="translate(333.532578 246.809816) scale(0.11 -0.11)">
       <use xlink:href="#LiberationSans-13"/>
       <use xlink:href="#LiberationSans-11" transform="translate(55.609375 0)"/>
       <use xlink:href="#LiberationSans-13" transform="translate(83.390625 0)"/>
      </g>
     </g>
    </g>
    <g id="xtick_8">
     <g id="line2d_32">
      <path d="M 388.143515 235.301516 
L 388.143515 67.42571 
" clip-path="url(#p3516545980)" style="fill: none; stroke: #cccccc; stroke-width: 0.8; stroke-linecap: round"/>
     </g>
     <g id="line2d_33"/>
     <g id="text_19">
      <!-- 0.2 -->
      <g style="fill: #262626" transform="translate(380.498515 246.809816) scale(0.11 -0.11)">
       <use xlink:href="#LiberationSans-13"/>
       <use xlink:href="#LiberationSans-11" transform="translate(55.609375 0)"/>
       <use xlink:href="#LiberationSans-15" transform="translate(83.390625 0)"/>
      </g>
     </g>
    </g>
    <g id="xtick_9">
     <g id="line2d_34">
      <path d="M 435.109452 235.301516 
L 435.109452 67.42571 
" clip-path="url(#p3516545980)" style="fill: none; stroke: #cccccc; stroke-width: 0.8; stroke-linecap: round"/>
     </g>
     <g id="line2d_35"/>
     <g id="text_20">
      <!-- 0.4 -->
      <g style="fill: #262626" transform="translate(427.464452 246.809816) scale(0.11 -0.11)">
       <use xlink:href="#LiberationSans-13"/>
       <use xlink:href="#LiberationSans-11" transform="translate(55.609375 0)"/>
       <use xlink:href="#LiberationSans-17" transform="translate(83.390625 0)"/>
      </g>
     </g>
    </g>
    <g id="xtick_10">
     <g id="line2d_36">
      <path d="M 482.075389 235.301516 
L 482.075389 67.42571 
" clip-path="url(#p3516545980)" style="fill: none; stroke: #cccccc; stroke-width: 0.8; stroke-linecap: round"/>
     </g>
     <g id="line2d_37"/>
     <g id="text_21">
      <!-- 0.6 -->
      <g style="fill: #262626" transform="translate(474.430389 246.809816) scale(0.11 -0.11)">
       <use xlink:href="#LiberationSans-13"/>
       <use xlink:href="#LiberationSans-11" transform="translate(55.609375 0)"/>
       <use xlink:href="#LiberationSans-19" transform="translate(83.390625 0)"/>
      </g>
     </g>
    </g>
    <g id="xtick_11">
     <g id="line2d_38">
      <path d="M 529.041326 235.301516 
L 529.041326 67.42571 
" clip-path="url(#p3516545980)" style="fill: none; stroke: #cccccc; stroke-width: 0.8; stroke-linecap: round"/>
     </g>
     <g id="line2d_39"/>
     <g id="text_22">
      <!-- 0.8 -->
      <g style="fill: #262626" transform="translate(521.396326 246.809816) scale(0.11 -0.11)">
       <use xlink:href="#LiberationSans-13"/>
       <use xlink:href="#LiberationSans-11" transform="translate(55.609375 0)"/>
       <use xlink:href="#LiberationSans-1b" transform="translate(83.390625 0)"/>
      </g>
     </g>
    </g>
    <g id="xtick_12">
     <g id="line2d_40">
      <path d="M 576.007263 235.301516 
L 576.007263 67.42571 
" clip-path="url(#p3516545980)" style="fill: none; stroke: #cccccc; stroke-width: 0.8; stroke-linecap: round"/>
     </g>
     <g id="line2d_41"/>
     <g id="text_23">
      <!-- 1.0 -->
      <g style="fill: #262626" transform="translate(568.362263 246.809816) scale(0.11 -0.11)">
       <use xlink:href="#LiberationSans-14"/>
       <use xlink:href="#LiberationSans-11" transform="translate(55.609375 0)"/>
       <use xlink:href="#LiberationSans-13" transform="translate(83.390625 0)"/>
      </g>
     </g>
    </g>
    <g id="text_24">
     <!-- $x$ -->
     <g style="fill: #262626" transform="translate(455.292421 261.133059) scale(0.11 -0.11)">
      <use xlink:href="#DejaVuSans-Oblique-5b" transform="translate(0 0.3125)"/>
     </g>
    </g>
   </g>
   <g id="matplotlib.axis_4">
    <g id="ytick_7">
     <g id="line2d_42">
      <path d="M 329.461925 227.670797 
L 587.722916 227.670797 
" clip-path="url(#p3516545980)" style="fill: none; stroke: #cccccc; stroke-width: 0.8; stroke-linecap: round"/>
     </g>
     <g id="line2d_43"/>
     <g id="text_25">
      <!-- 0.0 -->
      <g style="fill: #262626" transform="translate(310.671925 231.674948) scale(0.11 -0.11)">
       <use xlink:href="#LiberationSans-13"/>
       <use xlink:href="#LiberationSans-11" transform="translate(55.609375 0)"/>
       <use xlink:href="#LiberationSans-13" transform="translate(83.390625 0)"/>
      </g>
     </g>
    </g>
    <g id="ytick_8">
     <g id="line2d_44">
      <path d="M 329.461925 194.987107 
L 587.722916 194.987107 
" clip-path="url(#p3516545980)" style="fill: none; stroke: #cccccc; stroke-width: 0.8; stroke-linecap: round"/>
     </g>
     <g id="line2d_45"/>
     <g id="text_26">
      <!-- 0.5 -->
      <g style="fill: #262626" transform="translate(310.671925 198.991258) scale(0.11 -0.11)">
       <use xlink:href="#LiberationSans-13"/>
       <use xlink:href="#LiberationSans-11" transform="translate(55.609375 0)"/>
       <use xlink:href="#LiberationSans-18" transform="translate(83.390625 0)"/>
      </g>
     </g>
    </g>
    <g id="ytick_9">
     <g id="line2d_46">
      <path d="M 329.461925 162.303417 
L 587.722916 162.303417 
" clip-path="url(#p3516545980)" style="fill: none; stroke: #cccccc; stroke-width: 0.8; stroke-linecap: round"/>
     </g>
     <g id="line2d_47"/>
     <g id="text_27">
      <!-- 1.0 -->
      <g style="fill: #262626" transform="translate(310.671925 166.307567) scale(0.11 -0.11)">
       <use xlink:href="#LiberationSans-14"/>
       <use xlink:href="#LiberationSans-11" transform="translate(55.609375 0)"/>
       <use xlink:href="#LiberationSans-13" transform="translate(83.390625 0)"/>
      </g>
     </g>
    </g>
    <g id="ytick_10">
     <g id="line2d_48">
      <path d="M 329.461925 129.619727 
L 587.722916 129.619727 
" clip-path="url(#p3516545980)" style="fill: none; stroke: #cccccc; stroke-width: 0.8; stroke-linecap: round"/>
     </g>
     <g id="line2d_49"/>
     <g id="text_28">
      <!-- 1.5 -->
      <g style="fill: #262626" transform="translate(310.671925 133.623877) scale(0.11 -0.11)">
       <use xlink:href="#LiberationSans-14"/>
       <use xlink:href="#LiberationSans-11" transform="translate(55.609375 0)"/>
       <use xlink:href="#LiberationSans-18" transform="translate(83.390625 0)"/>
      </g>
     </g>
    </g>
    <g id="ytick_11">
     <g id="line2d_50">
      <path d="M 329.461925 96.936037 
L 587.722916 96.936037 
" clip-path="url(#p3516545980)" style="fill: none; stroke: #cccccc; stroke-width: 0.8; stroke-linecap: round"/>
     </g>
     <g id="line2d_51"/>
     <g id="text_29">
      <!-- 2.0 -->
      <g style="fill: #262626" transform="translate(310.671925 100.940187) scale(0.11 -0.11)">
       <use xlink:href="#LiberationSans-15"/>
       <use xlink:href="#LiberationSans-11" transform="translate(55.609375 0)"/>
       <use xlink:href="#LiberationSans-13" transform="translate(83.390625 0)"/>
      </g>
     </g>
    </g>
   </g>
   <g id="line2d_52">
    <path d="M 341.201061 227.484575 
L 343.786256 207.87981 
L 346.371451 189.992543 
L 348.956647 173.737212 
L 351.306824 160.305884 
L 353.657001 148.094074 
L 356.007179 137.042921 
L 358.357356 127.09524 
L 360.472516 119.039863 
L 362.587675 111.793941 
L 364.702835 105.319177 
L 366.817995 99.578315 
L 368.698136 95.062136 
L 370.578278 91.072428 
L 372.45842 87.585051 
L 374.338562 84.576484 
L 376.218704 82.023821 
L 377.863828 80.146677 
L 379.508952 78.586935 
L 381.154077 77.330376 
L 382.799201 76.363125 
L 384.444325 75.671646 
L 386.089449 75.242738 
L 387.734573 75.063531 
L 389.379697 75.121483 
L 391.024821 75.404377 
L 392.669946 75.900316 
L 394.550088 76.713132 
L 396.430229 77.772307 
L 398.545389 79.238129 
L 400.660549 80.972815 
L 403.010726 83.189392 
L 405.595921 85.946439 
L 408.416134 89.293945 
L 411.471365 93.270395 
L 414.996631 98.242972 
L 418.991932 104.283936 
L 423.692287 111.808333 
L 430.037766 122.426969 
L 449.30922 154.981012 
L 454.949646 163.925948 
L 459.885018 171.361437 
L 464.585373 178.049783 
L 469.05071 184.014202 
L 473.281029 189.292952 
L 477.276331 193.933673 
L 481.271632 198.232406 
L 485.031916 201.963358 
L 488.7922 205.389712 
L 492.552484 208.515023 
L 496.312767 211.345369 
L 500.073051 213.889108 
L 503.833335 216.15665 
L 507.593619 218.160216 
L 511.353903 219.913606 
L 515.114186 221.43196 
L 519.109488 222.805875 
L 523.339807 224.014271 
L 527.570126 224.994198 
L 532.270481 225.846596 
L 537.205854 226.51162 
L 542.611262 227.017139 
L 548.956741 227.380565 
L 556.712326 227.592862 
L 568.69823 227.669103 
L 575.98378 227.670797 
L 575.98378 227.670797 
" clip-path="url(#p3516545980)" style="fill: none; stroke: #c0392b; stroke-width: 2.6; stroke-linecap: round"/>
   </g>
   <g id="line2d_53">
    <path d="M 341.201061 227.670797 
L 387.969591 227.560207 
L 403.245744 227.287436 
L 415.701684 226.847132 
L 426.982535 226.230514 
L 438.263387 225.388917 
L 450.249291 224.266707 
L 466.93555 222.453191 
L 483.856827 220.669665 
L 493.257537 219.903634 
L 501.013122 219.490089 
L 508.063654 219.338454 
L 514.644151 219.424421 
L 520.754612 219.721484 
L 526.865073 220.237325 
L 533.210552 221.001667 
L 540.026067 222.058611 
L 548.01667 223.535024 
L 564.232893 226.603445 
L 569.168266 227.269062 
L 573.163567 227.595036 
L 575.98378 227.670792 
L 575.98378 227.670792 
" clip-path="url(#p3516545980)" style="fill: none; stroke: #2471a3; stroke-width: 2.6; stroke-linecap: round"/>
   </g>
   <g id="line2d_54">
    <path d="M 510.065428 235.301516 
L 510.065428 67.42571 
" clip-path="url(#p3516545980)" style="fill: none; stroke-dasharray: 7.4,3.2; stroke-dashoffset: 0; stroke: #117a65; stroke-width: 2"/>
   </g>
   <g id="line2d_55">
    <path d="M 452.075041 235.301516 
L 452.075041 67.42571 
" clip-path="url(#p3516545980)" style="fill: none; stroke-dasharray: 1.4,2.31; stroke-dashoffset: 0; stroke: #5d6d7e; stroke-width: 1.4"/>
   </g>
   <g id="patch_9">
    <path d="M 329.461925 235.301516 
L 329.461925 67.42571 
" style="fill: none; stroke: #cccccc; stroke-linejoin: miter; stroke-linecap: square"/>
   </g>
   <g id="patch_10">
    <path d="M 587.722916 235.301516 
L 587.722916 67.42571 
" style="fill: none; stroke: #cccccc; stroke-linejoin: miter; stroke-linecap: square"/>
   </g>
   <g id="patch_11">
    <path d="M 329.461925 235.301516 
L 587.722916 235.301516 
" style="fill: none; stroke: #cccccc; stroke-linejoin: miter; stroke-linecap: square"/>
   </g>
   <g id="patch_12">
    <path d="M 329.461925 67.42571 
L 587.722916 67.42571 
" style="fill: none; stroke: #cccccc; stroke-linejoin: miter; stroke-linecap: square"/>
   </g>
   <g id="text_30">
    <!-- Conjuntas — cruzam em 0.72 -->
    <g style="fill: #262626" transform="translate(375.238358 48.365163) scale(0.12 -0.12)">
     <defs>
      <path id="LiberationSans-Bold-4d" d="M 450 3991 
L 450 4638 
L 1328 4638 
L 1328 3991 
L 450 3991 
z
M 431 -1328 
Q 119 -1328 -100 -1300 
L -100 -681 
L 59 -694 
Q 284 -694 367 -595 
Q 450 -497 450 -188 
L 450 3381 
L 1328 3381 
L 1328 -400 
Q 1328 -847 1101 -1087 
Q 875 -1328 431 -1328 
z
" transform="scale(0.015625)"/>
      <path id="LiberationSans-Bold-57" d="M 1313 -56 
Q 925 -56 715 155 
Q 506 366 506 794 
L 506 2788 
L 78 2788 
L 78 3381 
L 550 3381 
L 825 4175 
L 1375 4175 
L 1375 3381 
L 2016 3381 
L 2016 2788 
L 1375 2788 
L 1375 1031 
Q 1375 784 1469 667 
Q 1563 550 1759 550 
Q 1863 550 2053 594 
L 2053 50 
Q 1728 -56 1313 -56 
z
" transform="scale(0.015625)"/>
      <path id="LiberationSans-Bold-15" d="M 222 0 
L 222 609 
Q 394 988 711 1347 
Q 1028 1706 1509 2097 
Q 1972 2472 2158 2715 
Q 2344 2959 2344 3194 
Q 2344 3769 1766 3769 
Q 1484 3769 1336 3617 
Q 1188 3466 1144 3163 
L 259 3213 
Q 334 3825 717 4147 
Q 1100 4469 1759 4469 
Q 2472 4469 2853 4144 
Q 3234 3819 3234 3231 
Q 3234 2922 3112 2672 
Q 2991 2422 2800 2211 
Q 2609 2000 2376 1815 
Q 2144 1631 1925 1456 
Q 1706 1281 1526 1103 
Q 1347 925 1259 722 
L 3303 722 
L 3303 0 
L 222 0 
z
" transform="scale(0.015625)"/>
     </defs>
     <use xlink:href="#LiberationSans-Bold-26"/>
     <use xlink:href="#LiberationSans-Bold-52" transform="translate(72.21875 0)"/>
     <use xlink:href="#LiberationSans-Bold-51" transform="translate(133.296875 0)"/>
     <use xlink:href="#LiberationSans-Bold-4d" transform="translate(194.375 0)"/>
     <use xlink:href="#LiberationSans-Bold-58" transform="translate(222.15625 0)"/>
     <use xlink:href="#LiberationSans-Bold-51" transform="translate(283.234375 0)"/>
     <use xlink:href="#LiberationSans-Bold-57" transform="translate(344.3125 0)"/>
     <use xlink:href="#LiberationSans-Bold-44" transform="translate(377.609375 0)"/>
     <use xlink:href="#LiberationSans-Bold-56" transform="translate(433.21875 0)"/>
     <use xlink:href="#LiberationSans-Bold-3" transform="translate(488.828125 0)"/>
     <use xlink:href="#LiberationSans-Bold-7e0" transform="translate(516.609375 0)"/>
     <use xlink:href="#LiberationSans-Bold-3" transform="translate(616.609375 0)"/>
     <use xlink:href="#LiberationSans-Bold-46" transform="translate(644.390625 0)"/>
     <use xlink:href="#LiberationSans-Bold-55" transform="translate(700 0)"/>
     <use xlink:href="#LiberationSans-Bold-58" transform="translate(738.921875 0)"/>
     <use xlink:href="#LiberationSans-Bold-5d" transform="translate(800 0)"/>
     <use xlink:href="#LiberationSans-Bold-44" transform="translate(850 0)"/>
     <use xlink:href="#LiberationSans-Bold-50" transform="translate(905.609375 0)"/>
     <use xlink:href="#LiberationSans-Bold-3" transform="translate(994.53125 0)"/>
     <use xlink:href="#LiberationSans-Bold-48" transform="translate(1022.3125 0)"/>
     <use xlink:href="#LiberationSans-Bold-50" transform="translate(1077.921875 0)"/>
     <use xlink:href="#LiberationSans-Bold-3" transform="translate(1166.84375 0)"/>
     <use xlink:href="#LiberationSans-Bold-13" transform="translate(1194.625 0)"/>
     <use xlink:href="#LiberationSans-Bold-11" transform="translate(1250.234375 0)"/>
     <use xlink:href="#LiberationSans-Bold-1a" transform="translate(1278.015625 0)"/>
     <use xlink:href="#LiberationSans-Bold-15" transform="translate(1333.625 0)"/>
    </g>
    <!-- (44 erros) -->
    <g style="fill: #262626" transform="translate(431.248358 61.42571) scale(0.12 -0.12)">
     <use xlink:href="#LiberationSans-Bold-b"/>
     <use xlink:href="#LiberationSans-Bold-17" transform="translate(33.296875 0)"/>
     <use xlink:href="#LiberationSans-Bold-17" transform="translate(88.90625 0)"/>
     <use xlink:href="#LiberationSans-Bold-3" transform="translate(144.515625 0)"/>
     <use xlink:href="#LiberationSans-Bold-48" transform="translate(172.296875 0)"/>
     <use xlink:href="#LiberationSans-Bold-55" transform="translate(227.90625 0)"/>
     <use xlink:href="#LiberationSans-Bold-55" transform="translate(266.828125 0)"/>
     <use xlink:href="#LiberationSans-Bold-52" transform="translate(305.75 0)"/>
     <use xlink:href="#LiberationSans-Bold-56" transform="translate(366.828125 0)"/>
     <use xlink:href="#LiberationSans-Bold-c" transform="translate(422.4375 0)"/>
    </g>
   </g>
   <g id="legend_2">
    <g id="patch_13">
     <path d="M 505.282916 101.62571 
L 581.422916 101.62571 
Q 583.222916 101.62571 583.222916 99.82571 
L 583.222916 73.72571 
Q 583.222916 71.92571 581.422916 71.92571 
L 505.282916 71.92571 
Q 503.482916 71.92571 503.482916 73.72571 
L 503.482916 99.82571 
Q 503.482916 101.62571 505.282916 101.62571 
z
" style="fill: #ffffff; opacity: 0.9; stroke: #cccccc; stroke-linejoin: miter"/>
    </g>
    <g id="line2d_56">
     <path d="M 507.082916 79.39571 
L 516.082916 79.39571 
L 525.082916 79.39571 
" style="fill: none; stroke: #c0392b; stroke-width: 2.6; stroke-linecap: round"/>
    </g>
    <g id="text_31">
     <!-- $p(x \mid \mathcal{C}_A)\,\pi_A$ -->
     <g style="fill: #262626" transform="translate(532.282916 82.54571) scale(0.09 -0.09)">
      <defs>
       <path id="DejaVuSans-Oblique-354" d="M 584 3500 
L 3938 3500 
L 3825 2925 
L 3384 2925 
L 2966 775 
Q 2922 550 2981 450 
Q 3038 353 3209 353 
Q 3256 353 3325 363 
Q 3397 369 3419 372 
L 3338 -44 
Q 3222 -84 3103 -103 
Q 2981 -122 2866 -122 
Q 2491 -122 2388 81 
Q 2284 288 2391 838 
L 2797 2925 
L 1506 2925 
L 938 0 
L 350 0 
L 919 2925 
L 472 2925 
L 584 3500 
z
" transform="scale(0.015625)"/>
      </defs>
      <use xlink:href="#DejaVuSans-Oblique-53" transform="translate(0 0.90625)"/>
      <use xlink:href="#DejaVuSans-b" transform="translate(63.476562 0.90625)"/>
      <use xlink:href="#DejaVuSans-Oblique-5b" transform="translate(102.490234 0.90625)"/>
      <use xlink:href="#DejaVuSans-cad" transform="translate(181.152344 0.90625)"/>
      <use xlink:href="#STIXNonUnicode-Italic-75" transform="translate(250.634766 0.90625)"/>
      <use xlink:href="#DejaVuSans-Oblique-24" transform="translate(308.491745 -14.093701) scale(0.7)"/>
      <use xlink:href="#DejaVuSans-c" transform="translate(359.111862 0.90625)"/>
      <use xlink:href="#DejaVuSans-Oblique-354" transform="translate(414.36121 0.90625)"/>
      <use xlink:href="#DejaVuSans-Oblique-24" transform="translate(474.566288 -14.093701) scale(0.7)"/>
     </g>
    </g>
    <g id="line2d_57">
     <path d="M 507.082916 92.89571 
L 516.082916 92.89571 
L 525.082916 92.89571 
" style="fill: none; stroke: #2471a3; stroke-width: 2.6; stroke-linecap: round"/>
    </g>
    <g id="text_32">
     <!-- $p(x \mid \mathcal{C}_B)\,\pi_B$ -->
     <g style="fill: #262626" transform="translate(532.282916 96.04571) scale(0.09 -0.09)">
      <use xlink:href="#DejaVuSans-Oblique-53" transform="translate(0 0.90625)"/>
      <use xlink:href="#DejaVuSans-b" transform="translate(63.476562 0.90625)"/>
      <use xlink:href="#DejaVuSans-Oblique-5b" transform="translate(102.490234 0.90625)"/>
      <use xlink:href="#DejaVuSans-cad" transform="translate(181.152344 0.90625)"/>
      <use xlink:href="#STIXNonUnicode-Italic-75" transform="translate(250.634766 0.90625)"/>
      <use xlink:href="#DejaVuSans-Oblique-25" transform="translate(308.491745 -14.093701) scale(0.7)"/>
      <use xlink:href="#DejaVuSans-c" transform="translate(359.248581 0.90625)"/>
      <use xlink:href="#DejaVuSans-Oblique-354" transform="translate(414.497929 0.90625)"/>
      <use xlink:href="#DejaVuSans-Oblique-25" transform="translate(474.703007 -14.093701) scale(0.7)"/>
     </g>
    </g>
   </g>
  </g>
  <g id="text_33">
   <!-- Escalar pela priori move a fronteira para onde o erro é mínimo -->
   <g style="fill: #262626" transform="translate(102.084229 16.881375) scale(0.132 -0.132)">
    <defs>
     <path id="LiberationSans-Bold-28" d="M 428 0 
L 428 4403 
L 3891 4403 
L 3891 3691 
L 1350 3691 
L 1350 2584 
L 3700 2584 
L 3700 1872 
L 1350 1872 
L 1350 713 
L 4019 713 
L 4019 0 
L 428 0 
z
" transform="scale(0.015625)"/>
     <path id="LiberationSans-Bold-4f" d="M 447 0 
L 447 4638 
L 1325 4638 
L 1325 0 
L 447 0 
z
" transform="scale(0.015625)"/>
     <path id="LiberationSans-Bold-53" d="M 3647 1706 
Q 3647 859 3308 398 
Q 2969 -63 2350 -63 
Q 1994 -63 1730 92 
Q 1466 247 1325 538 
L 1306 538 
Q 1325 444 1325 -31 
L 1325 -1328 
L 447 -1328 
L 447 2603 
Q 447 3081 422 3381 
L 1275 3381 
Q 1291 3325 1302 3159 
Q 1313 2994 1313 2831 
L 1325 2831 
Q 1622 3453 2406 3453 
Q 2997 3453 3322 2998 
Q 3647 2544 3647 1706 
z
M 2731 1706 
Q 2731 2844 2034 2844 
Q 1684 2844 1498 2537 
Q 1313 2231 1313 1681 
Q 1313 1134 1498 836 
Q 1684 538 2028 538 
Q 2731 538 2731 1706 
z
" transform="scale(0.015625)"/>
     <path id="LiberationSans-Bold-59" d="M 2284 0 
L 1234 0 
L 25 3381 
L 953 3381 
L 1544 1491 
Q 1591 1334 1766 709 
Q 1797 838 1894 1159 
Q 1991 1481 2613 3381 
L 3531 3381 
L 2284 0 
z
" transform="scale(0.015625)"/>
     <path id="LiberationSans-Bold-49" d="M 1478 2788 
L 1478 0 
L 603 0 
L 603 2788 
L 109 2788 
L 109 3381 
L 603 3381 
L 603 3734 
Q 603 4194 847 4416 
Q 1091 4638 1588 4638 
Q 1834 4638 2144 4588 
L 2144 4022 
Q 2016 4050 1888 4050 
Q 1663 4050 1570 3961 
Q 1478 3872 1478 3647 
L 1478 3381 
L 2144 3381 
L 2144 2788 
L 1478 2788 
z
" transform="scale(0.015625)"/>
     <path id="LiberationSans-Bold-ab" d="M 1831 -63 
Q 1069 -63 659 389 
Q 250 841 250 1706 
Q 250 2544 665 2994 
Q 1081 3444 1844 3444 
Q 2572 3444 2956 2961 
Q 3341 2478 3341 1547 
L 3341 1522 
L 1172 1522 
Q 1172 1028 1355 776 
Q 1538 525 1875 525 
Q 2341 525 2463 928 
L 3291 856 
Q 2931 -63 1831 -63 
z
M 1831 2891 
Q 1522 2891 1355 2675 
Q 1188 2459 1178 2072 
L 2491 2072 
Q 2466 2481 2294 2686 
Q 2122 2891 1831 2891 
z
M 1306 3697 
L 1306 3794 
L 2093 4694 
L 2900 4694 
L 2900 4559 
L 1837 3697 
L 1306 3697 
z
" transform="scale(0.015625)"/>
     <path id="LiberationSans-Bold-af" d="M 453 0 
L 453 3381 
L 1331 3381 
L 1331 0 
L 453 0 
z
M 356 3697 
L 356 3794 
L 1143 4694 
L 1950 4694 
L 1950 4559 
L 887 3697 
L 356 3697 
z
" transform="scale(0.015625)"/>
    </defs>
    <use xlink:href="#LiberationSans-Bold-28"/>
    <use xlink:href="#LiberationSans-Bold-56" transform="translate(66.703125 0)"/>
    <use xlink:href="#LiberationSans-Bold-46" transform="translate(122.3125 0)"/>
    <use xlink:href="#LiberationSans-Bold-44" transform="translate(177.921875 0)"/>
    <use xlink:href="#LiberationSans-Bold-4f" transform="translate(233.53125 0)"/>
    <use xlink:href="#LiberationSans-Bold-44" transform="translate(261.3125 0)"/>
    <use xlink:href="#LiberationSans-Bold-55" transform="translate(316.921875 0)"/>
    <use xlink:href="#LiberationSans-Bold-3" transform="translate(355.84375 0)"/>
    <use xlink:href="#LiberationSans-Bold-53" transform="translate(383.625 0)"/>
    <use xlink:href="#LiberationSans-Bold-48" transform="translate(444.703125 0)"/>
    <use xlink:href="#LiberationSans-Bold-4f" transform="translate(500.3125 0)"/>
    <use xlink:href="#LiberationSans-Bold-44" transform="translate(528.09375 0)"/>
    <use xlink:href="#LiberationSans-Bold-3" transform="translate(583.703125 0)"/>
    <use xlink:href="#LiberationSans-Bold-53" transform="translate(611.484375 0)"/>
    <use xlink:href="#LiberationSans-Bold-55" transform="translate(672.5625 0)"/>
    <use xlink:href="#LiberationSans-Bold-4c" transform="translate(711.484375 0)"/>
    <use xlink:href="#LiberationSans-Bold-52" transform="translate(739.265625 0)"/>
    <use xlink:href="#LiberationSans-Bold-55" transform="translate(800.34375 0)"/>
    <use xlink:href="#LiberationSans-Bold-4c" transform="translate(839.265625 0)"/>
    <use xlink:href="#LiberationSans-Bold-3" transform="translate(867.046875 0)"/>
    <use xlink:href="#LiberationSans-Bold-50" transform="translate(894.828125 0)"/>
    <use xlink:href="#LiberationSans-Bold-52" transform="translate(983.75 0)"/>
    <use xlink:href="#LiberationSans-Bold-59" transform="translate(1044.828125 0)"/>
    <use xlink:href="#LiberationSans-Bold-48" transform="translate(1100.4375 0)"/>
    <use xlink:href="#LiberationSans-Bold-3" transform="translate(1156.046875 0)"/>
    <use xlink:href="#LiberationSans-Bold-44" transform="translate(1183.828125 0)"/>
    <use xlink:href="#LiberationSans-Bold-3" transform="translate(1239.4375 0)"/>
    <use xlink:href="#LiberationSans-Bold-49" transform="translate(1267.21875 0)"/>
    <use xlink:href="#LiberationSans-Bold-55" transform="translate(1300.515625 0)"/>
    <use xlink:href="#LiberationSans-Bold-52" transform="translate(1339.4375 0)"/>
    <use xlink:href="#LiberationSans-Bold-51" transform="translate(1400.515625 0)"/>
    <use xlink:href="#LiberationSans-Bold-57" transform="translate(1461.59375 0)"/>
    <use xlink:href="#LiberationSans-Bold-48" transform="translate(1494.890625 0)"/>
    <use xlink:href="#LiberationSans-Bold-4c" transform="translate(1550.5 0)"/>
    <use xlink:href="#LiberationSans-Bold-55" transform="translate(1578.28125 0)"/>
    <use xlink:href="#LiberationSans-Bold-44" transform="translate(1617.203125 0)"/>
    <use xlink:href="#LiberationSans-Bold-3" transform="translate(1672.8125 0)"/>
    <use xlink:href="#LiberationSans-Bold-53" transform="translate(1700.59375 0)"/>
    <use xlink:href="#LiberationSans-Bold-44" transform="translate(1761.671875 0)"/>
    <use xlink:href="#LiberationSans-Bold-55" transform="translate(1817.28125 0)"/>
    <use xlink:href="#LiberationSans-Bold-44" transform="translate(1856.203125 0)"/>
    <use xlink:href="#LiberationSans-Bold-3" transform="translate(1911.8125 0)"/>
    <use xlink:href="#LiberationSans-Bold-52" transform="translate(1939.59375 0)"/>
    <use xlink:href="#LiberationSans-Bold-51" transform="translate(2000.671875 0)"/>
    <use xlink:href="#LiberationSans-Bold-47" transform="translate(2061.75 0)"/>
    <use xlink:href="#LiberationSans-Bold-48" transform="translate(2122.828125 0)"/>
    <use xlink:href="#LiberationSans-Bold-3" transform="translate(2178.4375 0)"/>
    <use xlink:href="#LiberationSans-Bold-52" transform="translate(2206.21875 0)"/>
    <use xlink:href="#LiberationSans-Bold-3" transform="translate(2267.296875 0)"/>
    <use xlink:href="#LiberationSans-Bold-48" transform="translate(2295.078125 0)"/>
    <use xlink:href="#LiberationSans-Bold-55" transform="translate(2350.6875 0)"/>
    <use xlink:href="#LiberationSans-Bold-55" transform="translate(2389.609375 0)"/>
    <use xlink:href="#LiberationSans-Bold-52" transform="translate(2428.53125 0)"/>
    <use xlink:href="#LiberationSans-Bold-3" transform="translate(2489.609375 0)"/>
    <use xlink:href="#LiberationSans-Bold-ab" transform="translate(2517.390625 0)"/>
    <use xlink:href="#LiberationSans-Bold-3" transform="translate(2573 0)"/>
    <use xlink:href="#LiberationSans-Bold-50" transform="translate(2600.78125 0)"/>
    <use xlink:href="#LiberationSans-Bold-af" transform="translate(2689.703125 0)"/>
    <use xlink:href="#LiberationSans-Bold-51" transform="translate(2717.484375 0)"/>
    <use xlink:href="#LiberationSans-Bold-4c" transform="translate(2778.5625 0)"/>
    <use xlink:href="#LiberationSans-Bold-50" transform="translate(2806.34375 0)"/>
    <use xlink:href="#LiberationSans-Bold-52" transform="translate(2895.265625 0)"/>
   </g>
  </g>
 </g>
 <defs>
  <clipPath id="p1de0901162">
   <rect x="40.313242" y="67.42571" width="258.260991" height="167.875805"/>
  </clipPath>
  <clipPath id="p3516545980">
   <rect x="329.461925" y="67.42571" width="258.260991" height="167.875805"/>
  </clipPath>
 </defs>
</svg>
